SplineFontDB: 3.0
FontName: OptimaModoki
FullName: OptimaModoki
FamilyName: OptimaModoki
Weight: Book
Copyright: Copyright (c) 2017, Dare-demo Iie, based on IPA Mincho
Version: 002.000
ItalicAngle: 0
UnderlinePosition: -358
UnderlineWidth: 102
Ascent: 1638
Descent: 410
InvalidEm: 0
sfntRevision: 0x00010000
LayerCount: 2
Layer: 0 1 "+gMyXYgAA" 1
Layer: 1 1 "+Uk2XYgAA" 0
XUID: [1021 384 1582114421 12829]
StyleMap: 0x0000
FSType: 0
OS2Version: 4
OS2_WeightWidthSlopeOnly: 0
OS2_UseTypoMetrics: 0
CreationTime: 1508239932
ModificationTime: 1603199754
PfmFamily: 17
TTFWeight: 400
TTFWidth: 5
LineGap: 0
VLineGap: 0
Panose: 2 0 5 3 0 0 0 0 0 0
OS2TypoAscent: 1516
OS2TypoAOffset: 0
OS2TypoDescent: -399
OS2TypoDOffset: 0
OS2TypoLinegap: 276
OS2WinAscent: 2019
OS2WinAOffset: 0
OS2WinDescent: 442
OS2WinDOffset: 0
HheadAscent: 2019
HheadAOffset: 0
HheadDescent: -443
HheadDOffset: 0
OS2SubXSize: 1024
OS2SubYSize: 1024
OS2SubXOff: 0
OS2SubYOff: 736
OS2SupXSize: 1024
OS2SupYSize: 1024
OS2SupXOff: 0
OS2SupYOff: 1760
OS2StrikeYSize: 104
OS2StrikeYPos: 528
OS2CapHeight: 1464
OS2XHeight: 1008
OS2Vendor: 'PfEd'
OS2CodePages: 600301bf.00000000
OS2UnicodeRanges: e1018fff.5247e4fb.00010000.00000002
Lookup: 4 0 1 "'liga' +ahluljBuVAhbVwAA lookup 0" { "'liga' +ahluljBuVAhbVwAA lookup 0 +MLUw1jDGMPww1jDr"  } ['liga' ('DFLT' <'dflt' > 'armn' <'dflt' > 'cyrl' <'dflt' > 'grek' <'dflt' > 'hebr' <'dflt' > 'latn' <'dflt' > 'thai' <'dflt' > 'tibt' <'dflt' > ) ]
Lookup: 2 0 0 "'ccmp' +MLAw6jDVVAhiEAAA-/+UgaJ4wAA in +ML8wpGWHW1cA lookup 1" { "'ccmp' +MLAw6jDVVAhiEAAA-/+UgaJ4wAA in +ML8wpGWHW1cA lookup 1-1"  } ['ccmp' ('thai' <'dflt' > ) ]
Lookup: 1 0 0 "+U1h9FH9uY9sA in +ML8wpGWHW1cA lookup 2" { "+U1h9FH9uY9sA in +ML8wpGWHW1cA lookup 2-1"  } ['    ' ('thai' <'dflt' > ) ]
Lookup: 6 0 0 "'clig' +ZYeBCE+dW1gwblQIW1cA in +ML8wpGWHW1cA lookup 3" { "'clig' +ZYeBCE+dW1gwblQIW1cA in +ML8wpGWHW1cA lookup 3-1"  } ['clig' ('thai' <'dflt' > ) ]

StartChar: .notdef
Encoding: 1114112 -1 0
Width: 748
Flags: W
LayerCount: 2
Fore
SplineSet
68 0 m 1,0,-1
 68 1365 l 1,1,-1
 612 1365 l 1,2,-1
 612 0 l 1,3,-1
 68 0 l 1,0,-1
136 68 m 1,4,-1
 544 68 l 1,5,-1
 544 1297 l 1,6,-1
 136 1297 l 1,7,-1
 136 68 l 1,4,-1
EndSplineSet
Validated: 1
EndChar

StartChar: exclam
Encoding: 33 33 4
Width: 578
GlyphClass: 2
Flags: W
LayerCount: 2
Fore
SplineSet
293 227 m 0,0,1
 340 227 340 227 372 194 c 0,2,3
 407 159 407 159 407 112 c 0,4,5
 407 0 407 0 293 0 c 0,6,7
 180 0 180 0 180 112 c 0,8,9
 180 159 180 159 215 194 c 0,10,11
 247 227 247 227 293 227 c 0,0,1
266 424 m 1,12,-1
 241 788 l 2,13,14
 217 1155 217 1155 217 1308 c 2,15,-1
 217 1478 l 1,16,-1
 375 1478 l 1,17,-1
 375 1302 l 2,18,19
 375 1154 375 1154 350 788 c 2,20,-1
 325 424 l 1,21,-1
 266 424 l 1,12,-1
EndSplineSet
Validated: 1
EndChar

StartChar: quotedbl
Encoding: 34 34 5
Width: 723
GlyphClass: 2
Flags: W
LayerCount: 2
Fore
SplineSet
495 1016 m 1,0,-1
 457 1231 l 2,1,2
 438 1340 438 1340 434 1407 c 1,3,-1
 434 1503 l 1,4,-1
 602 1503 l 1,5,-1
 602 1407 l 2,6,7
 599 1340 599 1340 579 1231 c 2,8,-1
 541 1016 l 1,9,-1
 495 1016 l 1,0,-1
194 1020 m 1,10,-1
 156 1235 l 2,11,12
 136 1344 136 1344 133 1411 c 2,13,-1
 133 1507 l 1,14,-1
 301 1507 l 1,15,-1
 301 1411 l 2,16,17
 298 1344 298 1344 278 1235 c 2,18,-1
 240 1020 l 1,19,-1
 194 1020 l 1,10,-1
EndSplineSet
Validated: 1
EndChar

StartChar: numbersign
Encoding: 35 35 6
Width: 1266
GlyphClass: 2
Flags: W
LayerCount: 2
Fore
SplineSet
1157 969 m 1,0,-1
 916 969 l 1,1,-1
 852 614 l 1,2,-1
 1143 614 l 1,3,-1
 1143 526 l 1,4,-1
 842 526 l 1,5,-1
 744 -41 l 1,6,-1
 637 -23 l 1,7,-1
 733 526 l 1,8,-1
 457 526 l 1,9,-1
 350 -41 l 1,10,-1
 242 -23 l 1,11,-1
 346 526 l 1,12,-1
 117 526 l 1,13,-1
 117 614 l 1,14,-1
 359 614 l 1,15,-1
 426 969 l 1,16,-1
 131 969 l 1,17,-1
 131 1059 l 1,18,-1
 439 1059 l 1,19,-1
 520 1487 l 1,20,-1
 625 1470 l 1,21,-1
 547 1059 l 1,22,-1
 822 1059 l 1,23,-1
 897 1487 l 1,24,-1
 1006 1470 l 1,25,-1
 930 1059 l 1,26,-1
 1157 1059 l 1,27,-1
 1157 969 l 1,0,-1
807 969 m 1,28,-1
 537 969 l 1,29,-1
 469 614 l 1,30,-1
 744 614 l 1,31,-1
 807 969 l 1,28,-1
EndSplineSet
Validated: 1
EndChar

StartChar: dollar
Encoding: 36 36 7
Width: 1266
GlyphClass: 2
Flags: W
LayerCount: 2
Fore
SplineSet
672 819 m 1,0,-1
 697 809 l 2,1,2
 846 753 846 753 924 702 c 0,3,4
 1090 592 1090 592 1090 403 c 0,5,6
 1090 202 1090 202 924 94 c 0,7,8
 818 28 818 28 672 22 c 1,9,-1
 672 -88 l 1,10,-1
 590 -88 l 1,11,-1
 590 22 l 1,12,13
 512 23 512 23 378.5 72.5 c 128,-1,14
 245 122 245 122 171 168 c 1,15,-1
 171 293 l 1,16,17
 216 228 216 228 351 164.5 c 128,-1,18
 486 101 486 101 590 98 c 1,19,-1
 590 704 l 1,20,21
 450 755 450 755 369 807 c 0,22,23
 195 914 195 914 195 1093 c 0,24,25
 195 1259 195 1259 314 1360 c 0,26,27
 415 1446 415 1446 590 1458 c 1,28,-1
 590 1548 l 1,29,-1
 672 1548 l 1,30,-1
 672 1458 l 1,31,32
 735 1454 735 1454 853.5 1409.5 c 128,-1,33
 972 1365 972 1365 1032 1330 c 0,34,35
 1035 1328 1035 1328 1038 1327 c 2,36,-1
 1038 1218 l 1,37,38
 998 1270 998 1270 876.5 1326.5 c 128,-1,39
 755 1383 755 1383 672 1386 c 1,40,-1
 672 819 l 1,0,-1
590 844 m 1,41,-1
 590 1386 l 1,42,43
 499 1377 499 1377 437 1335 c 0,44,45
 326 1261 326 1261 326 1124 c 0,46,47
 326 961 326 961 494 885 c 1,48,49
 510 868 510 868 559 854 c 0,50,51
 570 852 570 852 590 844 c 1,41,-1
672 98 m 1,52,53
 787 107 787 107 857 168 c 0,54,55
 949 251 949 251 949 387 c 0,56,57
 949 517 949 517 853 592 c 0,58,59
 799 632 799 632 672 684 c 1,60,-1
 672 98 l 1,52,53
EndSplineSet
Validated: 1
EndChar

StartChar: percent
Encoding: 37 37 8
Width: 1606
GlyphClass: 2
Flags: W
LayerCount: 2
Fore
SplineSet
1208 755 m 0,0,1
 1360 755 1360 755 1440 618 c 0,2,3
 1499 512 1499 512 1499 364 c 0,4,5
 1499 187 1499 187 1413 80 c 0,6,7
 1334 -20 1334 -20 1208 -20 c 0,8,9
 1060 -20 1060 -20 983 115 c 0,10,11
 924 221 924 221 924 368 c 0,12,13
 924 573 924 573 1030 679 c 0,14,15
 1103 755 1103 755 1208 755 c 0,0,1
1210 689 m 0,16,17
 1039 689 1039 689 1039 368 c 256,18,19
 1039 47 1039 47 1210 47 c 0,20,21
 1382 47 1382 47 1382 366 c 0,22,23
 1382 689 1382 689 1210 689 c 0,16,17
397 1487 m 0,24,25
 550 1487 550 1487 627 1350 c 0,26,27
 686 1243 686 1243 686 1097 c 0,28,29
 686 918 686 918 600 810 c 0,30,31
 523 712 523 712 397 712 c 0,32,33
 250 712 250 712 172 845 c 0,34,35
 113 952 113 952 113 1100 c 0,36,37
 113 1304 113 1304 219 1411 c 0,38,39
 292 1487 292 1487 397 1487 c 0,24,25
400 1421 m 0,40,41
 226 1421 226 1421 226 1100 c 0,42,43
 226 780 226 780 400 780 c 0,44,45
 569 780 569 780 569 1097 c 0,46,47
 569 1421 569 1421 400 1421 c 0,40,41
1370 1456 m 1,48,-1
 324 -14 l 1,49,-1
 252 34 l 1,50,-1
 1297 1505 l 1,51,-1
 1370 1456 l 1,48,-1
EndSplineSet
Validated: 1
EndChar

StartChar: ampersand
Encoding: 38 38 9
Width: 1392
GlyphClass: 2
Flags: W
LayerCount: 2
Fore
SplineSet
867 239 m 1,0,1
 653 467 653 467 422 754 c 1,2,3
 215 636 215 636 215 414 c 0,4,5
 215 274 215 274 307 182 c 0,6,7
 400 90 400 90 541 90 c 0,8,9
 735 90 735 90 867 239 c 1,0,1
494 872 m 1,10,11
 509 878 509 878 523 887 c 0,12,13
 770 1012 770 1012 770 1196 c 0,14,15
 770 1303 770 1303 707 1367 c 0,16,17
 649 1424 649 1424 563 1424 c 0,18,19
 469 1424 469 1424 405 1360 c 0,20,21
 342 1297 342 1297 342 1201 c 0,22,23
 342 1117 342 1117 391 1022 c 0,24,25
 408 991 408 991 445 936 c 0,26,27
 480 887 480 887 494 872 c 1,10,11
1225 836 m 0,28,29
 1212 826 1212 826 1200.5 794.5 c 128,-1,30
 1189 763 1189 763 1176 707.5 c 128,-1,31
 1163 652 1163 652 1162 647 c 0,32,33
 1106 444 1106 444 1006 307 c 1,34,35
 1206 83 1206 83 1368 79 c 1,36,-1
 1368 20 l 1,37,-1
 1084 20 l 1,38,-1
 920 188 l 1,39,40
 746 -4 746 -4 506 -4 c 0,41,42
 303 -4 303 -4 179 121 c 0,43,44
 70 232 70 232 70 391 c 0,45,46
 70 639 70 639 383 805 c 1,47,48
 213 1025 213 1025 213 1165 c 0,49,50
 213 1292 213 1292 303 1383 c 0,51,52
 408 1487 408 1487 574 1487 c 0,53,54
 734 1487 734 1487 819 1393 c 0,55,56
 891 1315 891 1315 891 1200 c 0,57,58
 891 996 891 996 533 815 c 1,59,60
 754 553 754 553 953 354 c 1,61,62
 1076 520 1076 520 1076 676 c 0,63,64
 1076 753 1076 753 1065.5 792 c 128,-1,65
 1055 831 1055 831 1025 850 c 1,66,-1
 1249 850 l 1,67,68
 1236 844 1236 844 1225 836 c 0,28,29
EndSplineSet
Validated: 1
EndChar

StartChar: quotesingle
Encoding: 39 39 10
Width: 434
GlyphClass: 2
Flags: W
LayerCount: 2
Fore
SplineSet
194 1020 m 1,0,-1
 156 1235 l 2,1,2
 136 1344 136 1344 133 1411 c 2,3,-1
 133 1507 l 1,4,-1
 301 1507 l 1,5,-1
 301 1411 l 2,6,7
 298 1344 298 1344 278 1235 c 2,8,-1
 240 1020 l 1,9,-1
 194 1020 l 1,0,-1
EndSplineSet
Validated: 1
EndChar

StartChar: parenleft
Encoding: 40 40 11
Width: 748
GlyphClass: 2
Flags: W
LayerCount: 2
Fore
SplineSet
614 -422 m 1,0,-1
 555 -455 l 1,1,2
 184 2 184 2 184 559 c 256,3,4
 184 1116 184 1116 555 1573 c 1,5,-1
 614 1538 l 1,6,7
 323 1106 323 1106 323 557 c 0,8,9
 323 13 323 13 614 -422 c 1,0,-1
EndSplineSet
Validated: 1
EndChar

StartChar: parenright
Encoding: 41 41 12
Width: 748
GlyphClass: 2
Flags: W
LayerCount: 2
Fore
SplineSet
192 1573 m 1,0,1
 563 1117 563 1117 563 559 c 0,2,3
 563 2 563 2 192 -455 c 1,4,-1
 133 -422 l 1,5,6
 424 13 424 13 424 557 c 0,7,8
 424 1103 424 1103 133 1538 c 1,9,-1
 192 1573 l 1,0,1
EndSplineSet
Validated: 1
EndChar

StartChar: asterisk
Encoding: 42 42 13
Width: 566
GlyphClass: 2
Flags: W
LayerCount: 2
Fore
SplineSet
241 1191 m 1,0,-1
 222 1198 l 2,1,2
 133 1229 133 1229 90 1254 c 2,3,-1
 50 1277 l 1,4,-1
 94 1353 l 1,5,-1
 132 1331 l 2,6,7
 163 1313 163 1313 247 1241 c 2,8,-1
 261 1229 l 1,9,-1
 257 1249 l 2,10,11
 239 1341 239 1341 239 1391 c 2,12,-1
 239 1437 l 1,13,-1
 327 1437 l 1,14,-1
 327 1393 l 2,15,16
 327 1357 327 1357 307 1249 c 2,17,-1
 303 1229 l 1,18,-1
 319 1243 l 2,19,20
 395 1308 395 1308 434 1331 c 2,21,-1
 472 1353 l 1,22,-1
 517 1277 l 1,23,-1
 478 1255 l 2,24,25
 444 1235 444 1235 344 1200 c 2,26,-1
 325 1194 l 1,27,-1
 344 1187 l 2,28,29
 439 1154 439 1154 478 1131 c 2,30,-1
 517 1109 l 1,31,-1
 472 1033 l 1,32,-1
 434 1055 l 2,33,34
 400 1075 400 1075 319 1144 c 1,35,-1
 305 1157 l 1,36,-1
 308 1137 l 1,37,38
 327 1039 327 1039 327 993 c 2,39,-1
 327 949 l 1,40,-1
 239 949 l 1,41,-1
 239 993 l 2,42,43
 239 1033 239 1033 259 1137 c 2,44,-1
 263 1155 l 1,45,-1
 248 1142 l 2,46,47
 177 1081 177 1081 134 1056 c 2,48,-1
 94 1033 l 1,49,-1
 50 1109 l 1,50,-1
 88 1131 l 2,51,52
 119 1149 119 1149 223 1185 c 2,53,-1
 241 1191 l 1,0,-1
EndSplineSet
Validated: 1
EndChar

StartChar: plus
Encoding: 43 43 14
Width: 1389
GlyphClass: 2
Flags: W
LayerCount: 2
Fore
SplineSet
748 604 m 1,0,-1
 748 80 l 1,1,-1
 646 80 l 1,2,-1
 646 604 l 1,3,-1
 144 604 l 1,4,-1
 144 698 l 1,5,-1
 646 698 l 1,6,-1
 646 1181 l 1,7,-1
 748 1181 l 1,8,-1
 748 698 l 1,9,-1
 1245 698 l 1,10,-1
 1245 604 l 1,11,-1
 748 604 l 1,0,-1
EndSplineSet
Validated: 1
EndChar

StartChar: comma
Encoding: 44 44 15
Width: 355
GlyphClass: 2
Flags: W
LayerCount: 2
Fore
SplineSet
69 -167 m 1,0,1
 163 -78 163 -78 182 27 c 1,2,3
 79 31 79 31 79 130 c 0,4,5
 79 155 79 155 92 179 c 0,6,7
 121 233 121 233 182 233 c 0,8,9
 208 233 208 233 231 220 c 0,10,11
 285 188 285 188 285 125 c 0,12,13
 285 -45 285 -45 96 -191 c 1,14,-1
 69 -167 l 1,0,1
EndSplineSet
Validated: 1
EndChar

StartChar: hyphen
Encoding: 45 45 16
Width: 604
GlyphClass: 2
Flags: W
LayerCount: 2
Fore
SplineSet
524 544 m 1,0,-1
 82 544 l 1,1,-1
 82 655 l 1,2,-1
 524 655 l 1,3,-1
 524 544 l 1,0,-1
EndSplineSet
Validated: 1
EndChar

StartChar: period
Encoding: 46 46 17
Width: 383
GlyphClass: 2
Flags: W
LayerCount: 2
Fore
SplineSet
190 231 m 0,0,1
 238 231 238 231 270 198 c 0,2,3
 303 165 303 165 303 118 c 0,4,5
 303 73 303 73 270 41 c 0,6,7
 238 8 238 8 190 8 c 0,8,9
 145 8 145 8 113 41 c 0,10,11
 80 73 80 73 80 118 c 0,12,13
 80 165 80 165 113 198 c 256,14,15
 146 231 146 231 190 231 c 0,0,1
EndSplineSet
Validated: 1
EndChar

StartChar: slash
Encoding: 47 47 18
Width: 1024
GlyphClass: 2
Flags: W
LayerCount: 2
Fore
SplineSet
875 1491 m 1,0,-1
 195 -307 l 1,1,-1
 109 -274 l 1,2,-1
 787 1524 l 1,3,-1
 875 1491 l 1,0,-1
EndSplineSet
Validated: 1
EndChar

StartChar: zero
Encoding: 48 48 19
Width: 1139
GlyphClass: 2
Flags: W
LayerCount: 2
Fore
SplineSet
569 -31 m 0,0,1
 465 -31 465 -31 380 12.5 c 128,-1,2
 295 56 295 56 238.5 129.5 c 128,-1,3
 182 203 182 203 143 303 c 128,-1,4
 104 403 104 403 87 513 c 128,-1,5
 70 623 70 623 70 743 c 0,6,7
 70 1198 70 1198 281 1400 c 0,8,9
 402 1515 402 1515 563 1515 c 0,10,11
 668 1515 668 1515 754 1472.5 c 128,-1,12
 840 1430 840 1430 897.5 1357 c 128,-1,13
 955 1284 955 1284 994.5 1184 c 128,-1,14
 1034 1084 1034 1084 1051.5 973.5 c 128,-1,15
 1069 863 1069 863 1069 741 c 0,16,17
 1069 622 1069 622 1051.5 512 c 128,-1,18
 1034 402 1034 402 995 302 c 128,-1,19
 956 202 956 202 899 129 c 128,-1,20
 842 56 842 56 757 12.5 c 128,-1,21
 672 -31 672 -31 569 -31 c 0,0,1
571 44 m 128,-1,23
 647 44 647 44 707 86.5 c 128,-1,24
 767 129 767 129 805 197.5 c 128,-1,25
 843 266 843 266 868 359 c 128,-1,26
 893 452 893 452 903 546 c 128,-1,27
 913 640 913 640 913 740 c 0,28,29
 913 1042 913 1042 835 1226 c 0,30,31
 744 1443 744 1443 571 1443 c 0,32,33
 424 1443 424 1443 334 1285 c 0,34,35
 226 1090 226 1090 226 742 c 0,36,37
 226 642 226 642 236.5 548 c 128,-1,38
 247 454 247 454 272 360.5 c 128,-1,39
 297 267 297 267 335.5 198 c 128,-1,40
 374 129 374 129 434.5 86.5 c 128,-1,22
 495 44 495 44 571 44 c 128,-1,23
EndSplineSet
Validated: 1
EndChar

StartChar: one
Encoding: 49 49 20
Width: 486
GlyphClass: 2
Flags: W
LayerCount: 2
Fore
SplineSet
364 155 m 2,0,1
 364 44 364 44 446 20 c 1,2,-1
 140 20 l 1,3,4
 221 45 221 45 221 155 c 2,5,-1
 221 1284 l 2,6,7
 221 1320 221 1320 210 1344 c 1,8,9
 136 1317 136 1317 12 1304 c 1,10,-1
 12 1390 l 1,11,12
 75 1397 75 1397 125 1407.5 c 128,-1,13
 175 1418 175 1418 204.5 1427 c 128,-1,14
 234 1436 234 1436 267.5 1456 c 128,-1,15
 301 1476 301 1476 314.5 1486 c 128,-1,16
 328 1496 328 1496 364 1524 c 1,17,-1
 364 155 l 2,0,1
EndSplineSet
Validated: 1
EndChar

StartChar: two
Encoding: 50 50 21
Width: 933
GlyphClass: 2
Flags: W
LayerCount: 2
Fore
SplineSet
904 181 m 1,0,-1
 885 20 l 1,1,-1
 36 20 l 1,2,-1
 36 102 l 1,3,4
 74 265 74 265 157 405.5 c 128,-1,5
 240 546 240 546 402 678 c 2,6,-1
 435 705 l 1,7,8
 602 833 602 833 657 909 c 0,9,10
 735 1015 735 1015 735 1134 c 0,11,12
 735 1298 735 1298 629 1380 c 0,13,14
 551 1439 551 1439 442 1439 c 0,15,16
 355 1439 355 1439 282 1406 c 128,-1,17
 209 1373 209 1373 169 1317 c 0,18,19
 127 1257 127 1257 124 1192 c 1,20,-1
 118 1386 l 1,21,22
 177 1446 177 1446 265 1480.5 c 128,-1,23
 353 1515 353 1515 449 1515 c 0,24,25
 630 1515 630 1515 752 1421 c 0,26,27
 895 1311 895 1311 895 1124 c 0,28,29
 895 995 895 995 819 889 c 0,30,31
 749 788 749 788 543 655 c 2,32,-1
 486 618 l 2,33,34
 330 518 330 518 253.5 403.5 c 128,-1,35
 177 289 177 289 145 145 c 1,36,-1
 757 145 l 2,37,38
 859 145 859 145 904 181 c 1,0,-1
EndSplineSet
Validated: 1
EndChar

StartChar: three
Encoding: 51 51 22
Width: 950
GlyphClass: 2
Flags: W
LayerCount: 2
Fore
SplineSet
60 1410 m 1,0,1
 69 1416 69 1416 78 1423 c 0,2,3
 206 1513 206 1513 391 1513 c 0,4,5
 500 1513 500 1513 592.5 1482.5 c 128,-1,6
 685 1452 685 1452 743 1394 c 0,7,8
 841 1296 841 1296 841 1151 c 0,9,10
 841 858 841 858 507 790 c 1,11,-1
 507 776 l 1,12,13
 880 702 880 702 880 395 c 0,14,15
 880 227 880 227 763 110 c 0,16,17
 694 40 694 40 589.5 3.5 c 128,-1,18
 485 -33 485 -33 362 -33 c 0,19,20
 276 -33 276 -33 186.5 -13 c 128,-1,21
 97 7 97 7 40 44 c 1,22,-1
 40 157 l 1,23,24
 48 146 48 146 58 136 c 0,25,26
 102 95 102 95 182.5 72.5 c 128,-1,27
 263 50 263 50 346 50 c 0,28,29
 427 50 427 50 501.5 76.5 c 128,-1,30
 576 103 576 103 626 153 c 0,31,32
 724 251 724 251 724 399 c 0,33,34
 724 538 724 538 632 630 c 0,35,36
 532 731 532 731 358 731 c 2,37,-1
 255 731 l 1,38,-1
 255 813 l 1,39,-1
 358 813 l 2,40,41
 501 813 501 813 593 905 c 0,42,43
 691 1003 691 1003 691 1153 c 0,44,45
 691 1274 691 1274 611 1351 c 0,46,47
 570 1392 570 1392 507 1413.5 c 128,-1,48
 444 1435 444 1435 376 1435 c 0,49,50
 307 1435 307 1435 241 1415.5 c 128,-1,51
 175 1396 175 1396 129 1359 c 0,52,53
 79 1320 79 1320 60 1267 c 1,54,-1
 60 1410 l 1,0,1
EndSplineSet
Validated: 1
EndChar

StartChar: four
Encoding: 52 52 23
Width: 980
GlyphClass: 2
Flags: W
LayerCount: 2
Fore
SplineSet
685 508 m 1,0,-1
 685 1278 l 1,1,-1
 144 508 l 1,2,-1
 685 508 l 1,0,-1
616 20 m 1,3,4
 685 47 685 47 685 157 c 2,5,-1
 685 420 l 1,6,-1
 40 420 l 1,7,-1
 40 518 l 1,8,-1
 738 1487 l 1,9,-1
 815 1487 l 1,10,-1
 815 508 l 1,11,-1
 950 508 l 1,12,-1
 950 420 l 1,13,-1
 815 420 l 1,14,-1
 815 157 l 2,15,16
 815 94 815 94 829 63.5 c 128,-1,17
 843 33 843 33 879 20 c 1,18,-1
 616 20 l 1,3,4
EndSplineSet
Validated: 1
EndChar

StartChar: five
Encoding: 53 53 24
Width: 990
GlyphClass: 2
Flags: W
LayerCount: 2
Fore
SplineSet
158 817 m 1,0,1
 224 883 224 883 293 913.5 c 128,-1,2
 362 944 362 944 457 944 c 0,3,4
 691 944 691 944 824 774 c 0,5,6
 920 646 920 646 920 481 c 0,7,8
 920 192 920 192 717 51 c 0,9,10
 658 11 658 11 563 -11 c 128,-1,11
 468 -33 468 -33 380 -33 c 0,12,13
 220 -33 220 -33 103 28 c 0,14,15
 68 47 68 47 40 68 c 1,16,-1
 40 207 l 1,17,18
 62 154 62 154 126 112 c 0,19,20
 169 82 169 82 234 66 c 128,-1,21
 299 50 299 50 364 50 c 0,22,23
 443 50 443 50 525.5 74.5 c 128,-1,24
 608 99 608 99 651 142 c 0,25,26
 762 253 762 253 762 460 c 0,27,28
 762 624 762 624 686 731 c 0,29,30
 590 864 590 864 430 864 c 0,31,32
 324 864 324 864 254.5 810 c 128,-1,33
 185 756 185 756 130 641 c 1,34,-1
 50 651 l 1,35,-1
 126 1464 l 1,36,-1
 854 1464 l 1,37,-1
 864 1247 l 1,38,39
 793 1337 793 1337 602 1337 c 2,40,-1
 212 1337 l 1,41,-1
 158 817 l 1,0,1
EndSplineSet
Validated: 1
EndChar

StartChar: six
Encoding: 54 54 25
Width: 1101
GlyphClass: 2
Flags: W
LayerCount: 2
Fore
SplineSet
572 862 m 0,0,1
 443 862 443 862 351 770 c 0,2,3
 238 657 238 657 238 458 c 0,4,5
 238 278 238 278 332 159 c 0,6,7
 425 44 425 44 566 44 c 0,8,9
 733 44 733 44 820 196 c 0,10,11
 881 300 881 300 881 452 c 0,12,13
 881 661 881 661 772 776 c 0,14,15
 690 862 690 862 572 862 c 0,0,1
213 714 m 1,16,17
 336 942 336 942 580 942 c 0,18,19
 803 942 803 942 935 774 c 0,20,21
 1031 646 1031 646 1031 452 c 0,22,23
 1031 231 1031 231 894 94 c 0,24,25
 764 -33 764 -33 572 -33 c 0,26,27
 361 -33 361 -33 228 118 c 0,28,29
 70 300 70 300 70 675 c 0,30,31
 70 1148 70 1148 275 1371 c 0,32,33
 338 1441 338 1441 434 1478 c 128,-1,34
 530 1515 530 1515 632 1515 c 0,35,36
 707 1515 707 1515 788.5 1499 c 128,-1,37
 870 1483 870 1483 916 1455 c 1,38,-1
 882 1373 l 1,39,40
 851 1404 851 1404 781 1421.5 c 128,-1,41
 711 1439 711 1439 643 1439 c 0,42,43
 552 1439 552 1439 467 1392 c 128,-1,44
 382 1345 382 1345 330 1257 c 0,45,46
 213 1060 213 1060 207 714 c 1,47,-1
 213 714 l 1,16,17
EndSplineSet
Validated: 1
EndChar

StartChar: seven
Encoding: 55 55 26
Width: 1002
GlyphClass: 2
Flags: W
LayerCount: 2
Fore
SplineSet
511 20 m 1,0,-1
 339 20 l 1,1,-1
 339 88 l 2,2,3
 342 290 342 290 560 778 c 0,4,5
 708 1102 708 1102 861 1339 c 1,6,-1
 170 1339 l 2,7,8
 67 1339 67 1339 31 1295 c 1,9,-1
 48 1464 l 1,10,-1
 972 1464 l 1,11,-1
 972 1368 l 1,12,13
 511 721 511 721 511 88 c 2,14,-1
 511 20 l 1,0,-1
EndSplineSet
Validated: 1
EndChar

StartChar: eight
Encoding: 56 56 27
Width: 1117
GlyphClass: 2
Flags: W
LayerCount: 2
Fore
SplineSet
553 -39 m 0,0,1
 424 -39 424 -39 315.5 6 c 128,-1,2
 207 51 207 51 138.5 141 c 128,-1,3
 70 231 70 231 70 350 c 0,4,5
 70 613 70 613 414 770 c 1,6,7
 121 912 121 912 121 1137 c 0,8,9
 121 1206 121 1206 147 1259 c 128,-1,10
 173 1312 173 1312 230 1369 c 0,11,12
 367 1506 367 1506 562 1506 c 0,13,14
 738 1506 738 1506 871 1399 c 0,15,16
 936 1347 936 1347 966 1292 c 128,-1,17
 996 1237 996 1237 996 1159 c 0,18,19
 996 923 996 923 678 784 c 1,20,21
 1047 621 1047 621 1047 360 c 0,22,23
 1047 175 1047 175 889 61 c 0,24,25
 752 -39 752 -39 553 -39 c 0,0,1
586 829 m 0,26,27
 869 940 869 940 869 1169 c 0,28,29
 869 1236 869 1236 843 1280 c 128,-1,30
 817 1324 817 1324 760 1365 c 0,31,32
 662 1434 662 1434 568 1434 c 0,33,34
 441 1434 441 1434 338 1334 c 0,35,36
 296 1292 296 1292 277 1253 c 128,-1,37
 258 1214 258 1214 258 1159 c 0,38,39
 258 1065 258 1065 318 994.5 c 128,-1,40
 378 924 378 924 471 880 c 0,41,42
 577 826 577 826 586 829 c 0,26,27
551 40 m 0,43,44
 700 40 700 40 802 121 c 128,-1,45
 904 202 904 202 904 340 c 0,46,47
 904 481 904 481 783 583 c 0,48,49
 730 628 730 628 639 672 c 0,50,51
 518 732 518 732 508 729 c 2,52,-1
 478 717 l 1,53,54
 203 593 203 593 203 348 c 0,55,56
 203 212 203 212 305.5 126 c 128,-1,57
 408 40 408 40 551 40 c 0,43,44
EndSplineSet
Validated: 33
EndChar

StartChar: nine
Encoding: 57 57 28
Width: 1101
GlyphClass: 2
Flags: W
LayerCount: 2
Fore
SplineSet
535 1465 m 0,0,1
 389 1465 389 1465 300 1342 c 0,2,3
 222 1230 222 1230 222 1064 c 0,4,5
 222 895 222 895 294 786 c 0,6,7
 377 663 377 663 529 663 c 0,8,9
 662 663 662 663 752 753 c 0,10,11
 861 864 861 864 861 1058 c 0,12,13
 861 1234 861 1234 771 1348 c 0,14,15
 679 1465 679 1465 535 1465 c 0,0,1
163 175 m 1,16,17
 191 134 191 134 280 102 c 128,-1,18
 369 70 369 70 442 70 c 0,19,20
 538 70 538 70 628.5 115.5 c 128,-1,21
 719 161 719 161 770 244 c 0,22,23
 891 440 891 440 897 810 c 1,24,-1
 891 810 l 1,25,26
 775 587 775 587 516 587 c 0,27,28
 316 587 316 587 197 712 c 0,29,30
 70 845 70 845 70 1056 c 0,31,32
 70 1276 70 1276 205 1408 c 0,33,34
 335 1535 335 1535 531 1535 c 0,35,36
 1031 1535 1031 1535 1031 834 c 0,37,38
 1031 391 1031 391 849 163 c 0,39,40
 780 78 780 78 672.5 32.5 c 128,-1,41
 565 -13 565 -13 454 -13 c 0,42,43
 396 -13 396 -13 303 9 c 128,-1,44
 210 31 210 31 163 56 c 1,45,-1
 163 175 l 1,16,17
EndSplineSet
Validated: 1
EndChar

StartChar: colon
Encoding: 58 58 29
Width: 590
GlyphClass: 2
Flags: W
LayerCount: 2
Fore
SplineSet
298 1020 m 0,0,1
 346 1020 346 1020 378 987 c 0,2,3
 411 954 411 954 411 908 c 0,4,5
 411 863 411 863 378 830 c 0,6,7
 346 797 346 797 298 797 c 0,8,9
 188 797 188 797 188 908 c 0,10,11
 188 1020 188 1020 298 1020 c 0,0,1
298 231 m 0,12,13
 346 231 346 231 378 198 c 0,14,15
 411 165 411 165 411 118 c 0,16,17
 411 73 411 73 378 41 c 0,18,19
 346 8 346 8 298 8 c 0,20,21
 253 8 253 8 221 41 c 0,22,23
 188 73 188 73 188 118 c 0,24,25
 188 165 188 165 221 198 c 256,26,27
 254 231 254 231 298 231 c 0,12,13
EndSplineSet
Validated: 1
EndChar

StartChar: semicolon
Encoding: 59 59 30
Width: 590
GlyphClass: 2
Flags: W
LayerCount: 2
Fore
SplineSet
180 -167 m 1,0,1
 274 -78 274 -78 293 27 c 1,2,3
 190 31 190 31 190 130 c 0,4,5
 190 155 190 155 203 179 c 0,6,7
 232 233 232 233 293 233 c 0,8,9
 319 233 319 233 342 220 c 0,10,11
 396 188 396 188 396 125 c 0,12,13
 396 -45 396 -45 207 -191 c 1,14,-1
 180 -167 l 1,0,1
300 1020 m 0,15,16
 346 1020 346 1020 379 987 c 0,17,18
 412 955 412 955 412 908 c 0,19,20
 412 862 412 862 379 830 c 0,21,22
 346 797 346 797 300 797 c 0,23,24
 189 797 189 797 189 908 c 0,25,26
 189 1020 189 1020 300 1020 c 0,15,16
EndSplineSet
Validated: 1
EndChar

StartChar: less
Encoding: 60 60 31
Width: 1389
GlyphClass: 2
Flags: W
LayerCount: 2
Fore
SplineSet
264 649 m 1,0,-1
 1245 190 l 1,1,-1
 1204 98 l 1,2,-1
 143 608 l 1,3,-1
 143 690 l 1,4,-1
 1204 1200 l 1,5,-1
 1245 1108 l 1,6,-1
 264 649 l 1,0,-1
EndSplineSet
Validated: 1
EndChar

StartChar: equal
Encoding: 61 61 32
Width: 1389
GlyphClass: 2
Flags: W
LayerCount: 2
Fore
SplineSet
143 887 m 1,0,-1
 1245 887 l 1,1,-1
 1245 791 l 1,2,-1
 143 791 l 1,3,-1
 143 887 l 1,0,-1
143 510 m 1,4,-1
 1245 510 l 1,5,-1
 1245 414 l 1,6,-1
 143 414 l 1,7,-1
 143 510 l 1,4,-1
EndSplineSet
Validated: 1
EndChar

StartChar: greater
Encoding: 62 62 33
Width: 1389
GlyphClass: 2
Flags: W
LayerCount: 2
Fore
SplineSet
1124 649 m 1,0,-1
 143 1108 l 1,1,-1
 184 1200 l 1,2,-1
 1245 690 l 1,3,-1
 1245 608 l 1,4,-1
 184 98 l 1,5,-1
 143 190 l 1,6,-1
 1124 649 l 1,0,-1
EndSplineSet
Validated: 1
EndChar

StartChar: question
Encoding: 63 63 34
Width: 888
GlyphClass: 2
Flags: W
LayerCount: 2
Fore
SplineSet
360 227 m 0,0,1
 405 227 405 227 437 194 c 0,2,3
 472 159 472 159 472 112 c 0,4,5
 472 0 472 0 360 0 c 0,6,7
 245 0 245 0 245 112 c 0,8,9
 245 157 245 157 280 192 c 0,10,11
 314 227 314 227 360 227 c 0,0,1
55 1353 m 1,12,13
 114 1413 114 1413 199.5 1444.5 c 128,-1,14
 285 1476 285 1476 380 1476 c 0,15,16
 483 1476 483 1476 572.5 1445.5 c 128,-1,17
 662 1415 662 1415 720 1357 c 0,18,19
 818 1262 818 1262 818 1104 c 0,20,21
 818 904 818 904 603 760 c 2,22,-1
 540 717 l 2,23,24
 390 617 390 617 390 437 c 2,25,-1
 390 390 l 1,26,-1
 308 390 l 1,27,-1
 308 441 l 2,28,29
 308 630 308 630 446 758 c 2,30,-1
 483 793 l 2,31,32
 588 893 588 893 619 942 c 0,33,34
 660 1008 660 1008 660 1100 c 0,35,36
 660 1235 660 1235 580 1318 c 0,37,38
 543 1358 543 1358 484 1379 c 128,-1,39
 425 1400 425 1400 362 1400 c 0,40,41
 294 1400 294 1400 229 1374.5 c 128,-1,42
 164 1349 164 1349 121 1302 c 0,43,44
 69 1241 69 1241 60 1163 c 1,45,-1
 55 1353 l 1,12,13
EndSplineSet
Validated: 1
EndChar

StartChar: at
Encoding: 64 64 35
Width: 1841
GlyphClass: 2
Flags: W
LayerCount: 2
Fore
SplineSet
1489 163 m 1,0,1
 1245 -10 1245 -10 928 -10 c 0,2,3
 563 -10 563 -10 351 198 c 0,4,5
 154 395 154 395 154 704 c 0,6,7
 154 1028 154 1028 383 1257 c 0,8,9
 621 1495 621 1495 973 1495 c 0,10,11
 1304 1495 1304 1495 1504 1298 c 0,12,13
 1684 1124 1684 1124 1684 847 c 0,14,15
 1684 625 1684 625 1555 462 c 0,16,17
 1404 278 1404 278 1180 278 c 0,18,19
 1028 278 1028 278 1028 409 c 0,20,21
 1028 436 1028 436 1031 450 c 1,22,23
 902 288 902 288 752 288 c 0,24,25
 527 288 527 288 527 556 c 0,26,27
 527 828 527 828 703 1042 c 0,28,29
 848 1218 848 1218 1026 1218 c 0,30,31
 1122 1218 1122 1218 1192 1144 c 1,32,-1
 1207 1192 l 1,33,-1
 1332 1192 l 1,34,35
 1301 1100 1301 1100 1243 880 c 0,36,37
 1145 490 1145 490 1145 424 c 256,38,39
 1145 358 1145 358 1215 358 c 0,40,41
 1383 358 1383 358 1500 524 c 0,42,43
 1604 671 1604 671 1604 858 c 0,44,45
 1604 1114 1604 1114 1418 1275 c 0,46,47
 1241 1427 1241 1427 971 1427 c 0,48,49
 670 1427 670 1427 477 1210 c 0,50,51
 299 1010 299 1010 299 712 c 0,52,53
 299 411 299 411 475 235 c 0,54,55
 645 65 645 65 934 65 c 0,56,57
 1237 65 1237 65 1450 223 c 1,58,-1
 1489 163 l 1,0,1
1031 1159 m 0,59,60
 881 1159 881 1159 771 917 c 0,61,62
 681 719 681 719 681 512 c 0,63,64
 681 356 681 356 773 356 c 0,65,66
 937 356 937 356 1051 655 c 0,67,68
 1139 886 1139 886 1139 1016 c 0,69,70
 1139 1159 1139 1159 1031 1159 c 0,59,60
EndSplineSet
Validated: 1
EndChar

StartChar: A
Encoding: 65 65 36
Width: 1323
GlyphClass: 2
Flags: W
LayerCount: 2
Fore
SplineSet
205 20 m 1,0,-1
 -18 20 l 1,1,2
 55 58 55 58 95 159 c 2,3,-1
 624 1487 l 1,4,-1
 679 1487 l 1,5,-1
 1221 147 l 2,6,7
 1240 101 1240 101 1268.5 69.5 c 128,-1,8
 1297 38 1297 38 1336 20 c 1,9,-1
 1050 20 l 1,10,11
 1084 38 1084 38 1084 69 c 0,12,13
 1084 116 1084 116 1063 167 c 2,14,-1
 915 526 l 1,15,-1
 337 526 l 1,16,-1
 196 157 l 2,17,18
 173 97 173 97 173 67 c 128,-1,19
 173 37 173 37 205 20 c 1,0,-1
888 604 m 1,20,-1
 626 1261 l 1,21,-1
 366 604 l 1,22,-1
 888 604 l 1,20,-1
EndSplineSet
EndChar

StartChar: B
Encoding: 66 66 37
Width: 1312
GlyphClass: 2
Flags: W
LayerCount: 2
Fore
SplineSet
491 1399 m 2,0,1
 396 1399 396 1399 353.5 1366 c 128,-1,2
 311 1333 311 1333 311 1243 c 2,3,-1
 311 811 l 1,4,-1
 530 811 l 2,5,6
 960 811 960 811 960 1110 c 0,7,8
 960 1399 960 1399 561 1399 c 2,9,-1
 491 1399 l 2,0,1
311 737 m 1,10,-1
 311 249 l 2,11,12
 311 86 311 86 491 86 c 2,13,-1
 557 86 l 2,14,15
 1038 86 1038 86 1038 407 c 0,16,17
 1038 737 1038 737 526 737 c 2,18,-1
 311 737 l 1,10,-1
172 1323 m 2,19,20
 172 1389 172 1389 156.5 1419.5 c 128,-1,21
 141 1450 141 1450 101 1464 c 1,22,-1
 600 1464 l 2,23,24
 799 1464 799 1464 934 1399 c 0,25,26
 1114 1310 1114 1310 1114 1118 c 0,27,28
 1114 847 1114 847 761 782 c 1,29,-1
 761 776 l 1,30,31
 1196 702 1196 702 1196 415 c 0,32,33
 1196 20 1196 20 589 20 c 2,34,-1
 105 20 l 1,35,36
 172 44 172 44 172 157 c 2,37,-1
 172 1323 l 2,19,20
EndSplineSet
EndChar

StartChar: C
Encoding: 67 67 38
Width: 1452
GlyphClass: 2
Flags: W
LayerCount: 2
Fore
SplineSet
251 751 m 0,0,1
 251 509 251 509 351 331 c 0,2,3
 496 73 496 73 794 73 c 0,4,5
 915 73 915 73 1042 113.5 c 128,-1,6
 1169 154 1169 154 1234 226 c 0,7,8
 1301 302 1301 302 1334 403 c 1,9,-1
 1334 138 l 1,10,11
 1327 148 1327 148 1316 148 c 0,12,13
 1300 148 1300 148 1258 119 c 0,14,15
 1178 62 1178 62 1042 30.5 c 128,-1,16
 906 -1 906 -1 783 -1 c 0,17,18
 498 -1 498 -1 304 194 c 0,19,20
 190 309 190 309 137.5 434 c 128,-1,21
 85 559 85 559 85 735 c 0,22,23
 85 1098 85 1098 306 1320 c 0,24,25
 500 1515 500 1515 785 1515 c 0,26,27
 908 1515 908 1515 1044 1483.5 c 128,-1,28
 1180 1452 1180 1452 1260 1395 c 0,29,30
 1302 1366 1302 1366 1318 1366 c 0,31,32
 1329 1366 1329 1366 1336 1376 c 1,33,-1
 1336 1111 l 1,34,35
 1303 1212 1303 1212 1236 1288 c 0,36,37
 1171 1360 1171 1360 1044 1400.5 c 128,-1,38
 917 1441 917 1441 796 1441 c 0,39,40
 498 1441 498 1441 353 1183 c 0,41,42
 251 1002 251 1002 251 751 c 0,0,1
EndSplineSet
EndChar

StartChar: D
Encoding: 68 68 39
Width: 1440
GlyphClass: 2
Flags: W
LayerCount: 2
Fore
SplineSet
315 239 m 2,0,1
 315 153 315 153 357.5 122.5 c 128,-1,2
 400 92 400 92 497 92 c 2,3,-1
 571 92 l 2,4,5
 829 92 829 92 954 180 c 0,6,7
 1189 342 1189 342 1189 755 c 0,8,9
 1189 1399 1189 1399 571 1399 c 2,10,-1
 497 1399 l 2,11,12
 401 1399 401 1399 358 1366.5 c 128,-1,13
 315 1334 315 1334 315 1243 c 2,14,-1
 315 239 l 2,0,1
172 1323 m 2,15,16
 172 1389 172 1389 156.5 1419.5 c 128,-1,17
 141 1450 141 1450 101 1464 c 1,18,-1
 587 1464 l 2,19,20
 905 1464 905 1464 1091 1327 c 0,21,22
 1355 1133 1355 1133 1355 745 c 0,23,24
 1355 258 1355 258 968 86 c 0,25,26
 818 20 818 20 577 20 c 2,27,-1
 105 20 l 1,28,29
 172 44 172 44 172 157 c 2,30,-1
 172 1323 l 2,15,16
EndSplineSet
EndChar

StartChar: E
Encoding: 69 69 40
Width: 1178
GlyphClass: 2
Flags: W
LayerCount: 2
Fore
SplineSet
172 1325 m 2,0,1
 172 1389 172 1389 156.5 1419.5 c 128,-1,2
 141 1450 141 1450 101 1464 c 1,3,-1
 1112 1464 l 1,4,-1
 1122 1306 l 1,5,6
 1049 1399 1049 1399 792 1399 c 2,7,-1
 491 1399 l 2,8,9
 389 1399 389 1399 350 1370 c 128,-1,10
 311 1341 311 1341 311 1245 c 2,11,-1
 311 803 l 1,12,-1
 628 803 l 2,13,14
 761 803 761 803 803 871 c 1,15,-1
 803 661 l 1,16,17
 758 731 758 731 628 731 c 2,18,-1
 311 731 l 1,19,-1
 311 241 l 2,20,21
 311 148 311 148 350.5 118 c 128,-1,22
 390 88 390 88 491 88 c 2,23,-1
 792 88 l 2,24,25
 941 88 941 88 1023 112 c 128,-1,26
 1105 136 1105 136 1149 196 c 1,27,-1
 1137 20 l 1,28,-1
 103 20 l 1,29,30
 139 32 139 32 155.5 65 c 128,-1,31
 172 98 172 98 172 157 c 2,32,-1
 172 1325 l 2,0,1
EndSplineSet
EndChar

StartChar: F
Encoding: 70 70 41
Width: 1153
GlyphClass: 2
Flags: W
LayerCount: 2
Fore
SplineSet
172 1323 m 2,0,1
 172 1389 172 1389 156.5 1419.5 c 128,-1,2
 141 1450 141 1450 101 1464 c 1,3,-1
 1114 1464 l 1,4,-1
 1124 1309 l 1,5,6
 1044 1399 1044 1399 788 1399 c 2,7,-1
 491 1399 l 2,8,9
 389 1399 389 1399 350 1369.5 c 128,-1,10
 311 1340 311 1340 311 1245 c 2,11,-1
 311 799 l 1,12,-1
 630 799 l 2,13,14
 701 799 701 799 742.5 816 c 128,-1,15
 784 833 784 833 805 870 c 1,16,-1
 805 661 l 1,17,18
 761 729 761 729 630 729 c 2,19,-1
 311 729 l 1,20,-1
 311 157 l 2,21,22
 311 49 311 49 385 20 c 1,23,-1
 105 20 l 1,24,25
 172 47 172 47 172 157 c 2,26,-1
 172 1323 l 2,0,1
EndSplineSet
EndChar

StartChar: G
Encoding: 71 71 42
Width: 1417
GlyphClass: 2
Flags: W
LayerCount: 2
Fore
SplineSet
1201 551 m 2,0,1
 1201 609 1201 609 1185.5 642.5 c 128,-1,2
 1170 676 1170 676 1137 688 c 1,3,-1
 1400 688 l 1,4,5
 1336 663 1336 663 1336 551 c 2,6,-1
 1336 26 l 1,7,-1
 1291 26 l 1,8,-1
 1228 145 l 1,9,10
 1060 -29 1060 -29 791 -29 c 0,11,12
 488 -29 488 -29 294 165 c 0,13,14
 85 377 85 377 85 733 c 0,15,16
 85 1097 85 1097 308 1320 c 0,17,18
 401 1413 401 1413 557.5 1464 c 128,-1,19
 714 1515 714 1515 865 1515 c 0,20,21
 1090 1515 1090 1515 1260 1395 c 0,22,23
 1302 1366 1302 1366 1318 1366 c 0,24,25
 1329 1366 1329 1366 1336 1376 c 1,26,-1
 1336 1117 l 1,27,28
 1303 1212 1303 1212 1236 1286 c 0,29,30
 1099 1441 1099 1441 876 1441 c 0,31,32
 717 1441 717 1441 569.5 1373.5 c 128,-1,33
 422 1306 422 1306 353 1183 c 0,34,35
 251 997 251 997 251 745 c 0,36,37
 251 442 251 442 407 250 c 0,38,39
 564 55 564 55 806 55 c 0,40,41
 1033 55 1033 55 1150 196 c 0,42,43
 1201 257 1201 257 1201 350 c 2,44,-1
 1201 551 l 2,0,1
EndSplineSet
EndChar

StartChar: H
Encoding: 72 72 43
Width: 1397
GlyphClass: 2
Flags: W
LayerCount: 2
Fore
SplineSet
313 157 m 2,0,1
 313 98 313 98 328.5 65.5 c 128,-1,2
 344 33 344 33 378 20 c 1,3,-1
 105 20 l 1,4,5
 172 45 172 45 172 157 c 2,6,-1
 172 1323 l 2,7,8
 172 1384 172 1384 155 1417.5 c 128,-1,9
 138 1451 138 1451 100 1464 c 1,10,-1
 384 1464 l 1,11,12
 347 1451 347 1451 330 1418 c 128,-1,13
 313 1385 313 1385 313 1323 c 2,14,-1
 313 809 l 1,15,-1
 1084 809 l 1,16,-1
 1084 1321 l 2,17,18
 1084 1382 1084 1382 1063 1415.5 c 128,-1,19
 1042 1449 1042 1449 998 1464 c 1,20,-1
 1301 1464 l 1,21,22
 1260 1451 1260 1451 1242.5 1418.5 c 128,-1,23
 1225 1386 1225 1386 1225 1321 c 2,24,-1
 1225 157 l 2,25,26
 1225 48 1225 48 1295 20 c 1,27,-1
 1020 20 l 1,28,29
 1084 48 1084 48 1084 157 c 2,30,-1
 1084 727 l 1,31,-1
 313 727 l 1,32,-1
 313 157 l 2,0,1
EndSplineSet
EndChar

StartChar: I
Encoding: 73 73 44
Width: 496
GlyphClass: 2
Flags: W
LayerCount: 2
Fore
SplineSet
321 157 m 2,0,1
 321 99 321 99 337.5 66 c 128,-1,2
 354 33 354 33 390 20 c 1,3,-1
 114 20 l 1,4,5
 176 43 176 43 176 157 c 2,6,-1
 176 1323 l 2,7,8
 176 1386 176 1386 159.5 1418.5 c 128,-1,9
 143 1451 143 1451 104 1464 c 1,10,-1
 396 1464 l 1,11,12
 321 1436 321 1436 321 1323 c 2,13,-1
 321 157 l 2,0,1
EndSplineSet
EndChar

StartChar: J
Encoding: 74 74 45
Width: 450
GlyphClass: 2
Flags: W
LayerCount: 2
Fore
SplineSet
163 1323 m 2,0,1
 163 1384 163 1384 146 1417 c 128,-1,2
 129 1450 129 1450 92 1464 c 1,3,-1
 377 1464 l 1,4,5
 341 1451 341 1451 324.5 1417.5 c 128,-1,6
 308 1384 308 1384 308 1323 c 2,7,-1
 308 11 l 2,8,9
 308 -400 308 -400 -38 -400 c 0,10,11
 -162 -400 -162 -400 -253 -335 c 1,12,-1
 -220 -235 l 1,13,14
 -186 -327 -186 -327 -48 -327 c 0,15,16
 89 -327 89 -327 138 -200 c 0,17,18
 163 -135 163 -135 163 48 c 2,19,-1
 163 1323 l 2,0,1
EndSplineSet
EndChar

StartChar: K
Encoding: 75 75 46
Width: 1327
GlyphClass: 2
Flags: W
LayerCount: 2
Fore
SplineSet
393 1464 m 1,0,1
 356 1451 356 1451 338 1416.5 c 128,-1,2
 320 1382 320 1382 320 1321 c 2,3,-1
 320 729 l 1,4,-1
 976 1360 l 2,5,6
 1017 1399 1017 1399 1017 1427 c 0,7,8
 1017 1450 1017 1450 992 1464 c 1,9,-1
 1258 1464 l 1,10,11
 1167 1431 1167 1431 1087 1356 c 2,12,-1
 558 854 l 1,13,-1
 1159 128 l 2,14,15
 1222 52 1222 52 1307 20 c 1,16,-1
 1002 20 l 1,17,18
 1022 32 1022 32 1022 51 c 0,19,20
 1022 77 1022 77 950 165 c 2,21,-1
 459 768 l 1,22,-1
 320 637 l 1,23,-1
 320 157 l 2,24,25
 320 48 320 48 390 20 c 1,26,-1
 117 20 l 1,27,28
 181 45 181 45 181 157 c 2,29,-1
 181 1319 l 2,30,31
 181 1381 181 1381 161 1415.5 c 128,-1,32
 141 1450 141 1450 98 1464 c 1,33,-1
 393 1464 l 1,0,1
EndSplineSet
EndChar

StartChar: L
Encoding: 76 76 47
Width: 1108
GlyphClass: 2
Flags: W
LayerCount: 2
Fore
SplineSet
739 88 m 2,0,1
 878 88 878 88 963 115 c 128,-1,2
 1048 142 1048 142 1088 201 c 1,3,-1
 1076 20 l 1,4,-1
 113 20 l 1,5,6
 179 43 179 43 179 157 c 2,7,-1
 179 1321 l 2,8,9
 179 1383 179 1383 159.5 1416.5 c 128,-1,10
 140 1450 140 1450 98 1464 c 1,11,-1
 397 1464 l 1,12,13
 357 1451 357 1451 339.5 1418.5 c 128,-1,14
 322 1386 322 1386 322 1321 c 2,15,-1
 322 239 l 2,16,17
 322 149 322 149 355 122 c 0,18,19
 396 88 396 88 494 88 c 2,20,-1
 739 88 l 2,0,1
EndSplineSet
EndChar

StartChar: M
Encoding: 77 77 48
Width: 1678
GlyphClass: 2
Flags: W
LayerCount: 2
Fore
SplineSet
253 159 m 2,0,1
 253 100 253 100 269 66.5 c 128,-1,2
 285 33 285 33 320 20 c 1,3,-1
 89 20 l 1,4,5
 153 43 153 43 153 159 c 2,6,-1
 153 1319 l 2,7,8
 153 1382 153 1382 137 1417 c 128,-1,9
 121 1452 121 1452 86 1464 c 1,10,-1
 368 1464 l 1,11,-1
 839 241 l 1,12,-1
 1306 1464 l 1,13,-1
 1584 1464 l 1,14,15
 1545 1450 1545 1450 1527 1416 c 128,-1,16
 1509 1382 1509 1382 1509 1321 c 2,17,-1
 1509 161 l 2,18,19
 1509 101 1509 101 1525 67 c 128,-1,20
 1541 33 1541 33 1576 20 c 1,21,-1
 1306 20 l 1,22,23
 1370 45 1370 45 1370 161 c 2,24,-1
 1370 1364 l 1,25,-1
 1364 1364 l 1,26,-1
 847 20 l 1,27,-1
 776 20 l 1,28,-1
 261 1362 l 1,29,-1
 253 1362 l 1,30,-1
 253 159 l 2,0,1
EndSplineSet
EndChar

StartChar: N
Encoding: 78 78 49
Width: 1391
GlyphClass: 2
Flags: W
LayerCount: 2
Fore
SplineSet
1171 1327 m 2,0,1
 1171 1385 1171 1385 1155 1418 c 128,-1,2
 1139 1451 1139 1451 1104 1464 c 1,3,-1
 1335 1464 l 1,4,5
 1271 1438 1271 1438 1271 1327 c 2,6,-1
 1271 0 l 1,7,-1
 1183 0 l 1,8,-1
 259 1298 l 1,9,-1
 253 1298 l 1,10,-1
 253 159 l 2,11,12
 253 100 253 100 269 66.5 c 128,-1,13
 285 33 285 33 320 20 c 1,14,-1
 89 20 l 1,15,16
 153 43 153 43 153 159 c 2,17,-1
 153 1319 l 2,18,19
 153 1382 153 1382 137 1417 c 128,-1,20
 121 1452 121 1452 86 1464 c 1,21,-1
 310 1464 l 1,22,-1
 1165 260 l 1,23,-1
 1171 260 l 1,24,-1
 1171 1327 l 2,0,1
EndSplineSet
EndChar

StartChar: O
Encoding: 79 79 50
Width: 1573
GlyphClass: 2
Flags: W
LayerCount: 2
Fore
SplineSet
787 1515 m 0,0,1
 1072 1515 1072 1515 1267 1320 c 0,2,3
 1488 1096 1488 1096 1488 749 c 0,4,5
 1488 382 1488 382 1265 159 c 0,6,7
 1072 -33 1072 -33 787 -33 c 0,8,9
 503 -33 503 -33 308 161 c 0,10,11
 85 384 85 384 85 745 c 0,12,13
 85 1096 85 1096 306 1320 c 0,14,15
 501 1515 501 1515 787 1515 c 0,0,1
787 1443 m 0,16,17
 537 1443 537 1443 390 1238 c 0,18,19
 255 1051 255 1051 255 749 c 0,20,21
 255 481 255 481 359 300 c 0,22,23
 503 46 503 46 787 46 c 0,24,25
 1033 46 1033 46 1181 249 c 0,26,27
 1318 435 1318 435 1318 742 c 0,28,29
 1318 1070 1318 1070 1164 1261 c 0,30,31
 1019 1443 1019 1443 787 1443 c 0,16,17
EndSplineSet
EndChar

StartChar: P
Encoding: 80 80 51
Width: 1229
GlyphClass: 2
Flags: W
LayerCount: 2
Fore
SplineSet
172 1321 m 2,0,1
 172 1388 172 1388 156.5 1419 c 128,-1,2
 141 1450 141 1450 101 1464 c 1,3,-1
 604 1464 l 2,4,5
 922 1464 922 1464 1056 1315 c 0,6,7
 1144 1217 1144 1217 1144 1077 c 0,8,9
 1144 659 1144 659 571 659 c 2,10,-1
 313 659 l 1,11,-1
 313 157 l 2,12,13
 313 47 313 47 383 20 c 1,14,-1
 105 20 l 1,15,16
 172 47 172 47 172 157 c 2,17,-1
 172 1321 l 2,0,1
495 1396 m 2,18,19
 399 1396 399 1396 356 1364 c 128,-1,20
 313 1332 313 1332 313 1241 c 2,21,-1
 313 737 l 1,22,-1
 512 737 l 2,23,24
 984 737 984 737 984 1065 c 0,25,26
 984 1396 984 1396 559 1396 c 2,27,-1
 495 1396 l 2,18,19
EndSplineSet
EndChar

StartChar: Q
Encoding: 81 81 52
Width: 1573
GlyphClass: 2
Flags: W
LayerCount: 2
Fore
SplineSet
1082 -175 m 0,0,1
 1183 -356 1183 -356 1318 -356 c 0,2,3
 1396 -356 1396 -356 1467 -284 c 1,4,-1
 1502 -327 l 1,5,6
 1403 -454 1403 -454 1271 -454 c 0,7,8
 1099 -454 1099 -454 976 -233 c 0,9,10
 968 -219 968 -219 952.5 -190 c 128,-1,11
 937 -161 937 -161 930.5 -150 c 128,-1,12
 924 -139 924 -139 910.5 -117.5 c 128,-1,13
 897 -96 897 -96 889.5 -87.5 c 128,-1,14
 882 -79 882 -79 869 -65.5 c 128,-1,15
 856 -52 856 -52 844.5 -47 c 128,-1,16
 833 -42 833 -42 818.5 -37.5 c 128,-1,17
 804 -33 804 -33 787 -33 c 0,18,19
 503 -33 503 -33 308 161 c 0,20,21
 85 384 85 384 85 745 c 0,22,23
 85 1096 85 1096 306 1320 c 0,24,25
 501 1515 501 1515 787 1515 c 0,26,27
 1072 1515 1072 1515 1267 1320 c 0,28,29
 1488 1096 1488 1096 1488 749 c 0,30,31
 1488 382 1488 382 1265 159 c 0,32,33
 1131 26 1131 26 954 -15 c 1,34,35
 1023 -70 1023 -70 1082 -175 c 0,0,1
1318 742 m 0,36,37
 1318 885 1318 885 1284 1010.5 c 128,-1,38
 1250 1136 1250 1136 1186 1233 c 128,-1,39
 1122 1330 1122 1330 1019 1386.5 c 128,-1,40
 916 1443 916 1443 787 1443 c 0,41,42
 659 1443 659 1443 556.5 1387.5 c 128,-1,43
 454 1332 454 1332 389 1236.5 c 128,-1,44
 324 1141 324 1141 289.5 1016 c 128,-1,45
 255 891 255 891 255 749 c 0,46,47
 255 481 255 481 359 300 c 0,48,49
 503 46 503 46 787 46 c 0,50,51
 1033 46 1033 46 1181 249 c 0,52,53
 1318 435 1318 435 1318 742 c 0,36,37
EndSplineSet
EndChar

StartChar: R
Encoding: 82 82 53
Width: 1313
GlyphClass: 2
Flags: W
LayerCount: 2
Fore
SplineSet
495 1399 m 2,0,1
 399 1399 399 1399 356 1366.5 c 128,-1,2
 313 1334 313 1334 313 1243 c 2,3,-1
 313 778 l 1,4,-1
 497 778 l 2,5,6
 970 778 970 778 970 1089 c 0,7,8
 970 1399 970 1399 573 1399 c 2,9,-1
 495 1399 l 2,0,1
172 1321 m 2,10,11
 172 1388 172 1388 156.5 1419 c 128,-1,12
 141 1450 141 1450 101 1464 c 1,13,-1
 612 1464 l 2,14,15
 822 1464 822 1464 946 1394 c 0,16,17
 1124 1293 1124 1293 1124 1103 c 0,18,19
 1124 896 1124 896 952 794 c 0,20,21
 847 736 847 736 706 727 c 1,22,-1
 706 720 l 1,23,24
 826 677 826 677 938 501 c 0,25,26
 986 423 986 423 1103 198 c 0,27,28
 1165 77 1165 77 1300 77 c 1,29,-1
 1300 20 l 1,30,-1
 1007 20 l 1,31,32
 876 353 876 353 737 551 c 0,33,34
 624 706 624 706 458 706 c 2,35,-1
 313 706 l 1,36,-1
 313 157 l 2,37,38
 313 46 313 46 381 20 c 1,39,-1
 105 20 l 1,40,41
 172 47 172 47 172 157 c 2,42,-1
 172 1321 l 2,10,11
EndSplineSet
EndChar

StartChar: S
Encoding: 83 83 54
Width: 1141
GlyphClass: 2
Flags: W
LayerCount: 2
Fore
SplineSet
1003 1401 m 1,0,-1
 1003 1148 l 1,1,2
 975 1240 975 1240 911 1308 c 0,3,4
 861 1363 861 1363 750.5 1394 c 128,-1,5
 640 1425 640 1425 538 1425 c 0,6,7
 389 1425 389 1425 302 1329 c 0,8,9
 232 1253 232 1253 232 1146 c 0,10,11
 232 963 232 963 499 868 c 2,12,-1
 550 850 l 2,13,14
 874 732 874 732 968 626 c 0,15,16
 1056 526 1056 526 1056 387 c 0,17,18
 1056 177 1056 177 886 65 c 0,19,20
 762 -16 762 -16 591 -16 c 0,21,22
 488 -16 488 -16 363 11 c 128,-1,23
 238 38 238 38 163 85 c 0,24,25
 117 116 117 116 91 116 c 0,26,27
 79 116 79 116 71 106 c 1,28,-1
 71 392 l 1,29,30
 103 279 103 279 171 204 c 0,31,32
 232 139 232 139 354 102 c 128,-1,33
 476 65 476 65 591 65 c 0,34,35
 730 65 730 65 812 141 c 0,36,37
 900 220 900 220 900 356 c 0,38,39
 900 458 900 458 826 538 c 0,40,41
 759 609 759 609 546 696 c 2,42,-1
 507 712 l 1,43,44
 284 799 284 799 214 852 c 0,45,46
 85 950 85 950 85 1112 c 0,47,48
 85 1293 85 1293 220 1401 c 0,49,50
 343 1499 343 1499 532 1499 c 0,51,52
 624 1499 624 1499 743.5 1475.5 c 128,-1,53
 863 1452 863 1452 938 1411 c 0,54,55
 971 1392 971 1392 987 1392 c 0,56,57
 996 1392 996 1392 1003 1401 c 1,0,-1
EndSplineSet
EndChar

StartChar: T
Encoding: 84 84 55
Width: 1278
GlyphClass: 2
Flags: W
LayerCount: 2
Fore
SplineSet
503 20 m 1,0,1
 565 43 565 43 565 157 c 2,2,-1
 565 1396 l 1,3,-1
 291 1396 l 2,4,5
 105 1396 105 1396 31 1311 c 1,6,-1
 43 1464 l 1,7,-1
 1247 1464 l 1,8,-1
 1255 1307 l 1,9,10
 1184 1396 1184 1396 994 1396 c 2,11,-1
 706 1396 l 1,12,-1
 706 157 l 2,13,14
 706 47 706 47 774 20 c 1,15,-1
 503 20 l 1,0,1
EndSplineSet
EndChar

StartChar: U
Encoding: 85 85 56
Width: 1360
GlyphClass: 2
Flags: W
LayerCount: 2
Fore
SplineSet
1151 1323 m 2,0,1
 1151 1383 1151 1383 1135 1416.5 c 128,-1,2
 1119 1450 1119 1450 1085 1464 c 1,3,-1
 1320 1464 l 1,4,5
 1251 1438 1251 1438 1251 1323 c 2,6,-1
 1251 600 l 2,7,8
 1251 -27 1251 -27 694 -27 c 0,9,10
 118 -27 118 -27 118 588 c 2,11,-1
 118 1321 l 2,12,13
 118 1382 118 1382 99 1416 c 128,-1,14
 80 1450 80 1450 38 1464 c 1,15,-1
 335 1464 l 1,16,17
 295 1450 295 1450 278 1417.5 c 128,-1,18
 261 1385 261 1385 261 1321 c 2,19,-1
 261 608 l 2,20,21
 261 75 261 75 708 75 c 0,22,23
 1151 75 1151 75 1151 608 c 2,24,-1
 1151 1323 l 2,0,1
EndSplineSet
EndChar

StartChar: V
Encoding: 86 86 57
Width: 1316
GlyphClass: 2
Flags: W
LayerCount: 2
Fore
SplineSet
623 -23 m 1,0,-1
 105 1325 l 2,1,2
 66 1426 66 1426 -16 1464 c 1,3,-1
 280 1464 l 1,4,5
 242 1446 242 1446 242 1413 c 0,6,7
 242 1374 242 1374 265 1313 c 2,8,-1
 678 213 l 1,9,-1
 1097 1324 l 2,10,11
 1120 1385 1120 1385 1120 1416 c 256,12,13
 1120 1447 1120 1447 1083 1464 c 1,14,-1
 1327 1464 l 1,15,16
 1244 1426 1244 1426 1204 1322 c 2,17,-1
 684 -23 l 1,18,-1
 623 -23 l 1,0,-1
EndSplineSet
EndChar

StartChar: W
Encoding: 87 87 58
Width: 1783
GlyphClass: 2
Flags: W
LayerCount: 2
Fore
SplineSet
872 1196 m 1,0,-1
 841 1323 l 2,1,2
 815 1431 815 1431 755 1464 c 1,3,-1
 994 1464 l 1,4,5
 964 1444 964 1444 964 1401 c 0,6,7
 964 1387 964 1387 977.5 1324 c 128,-1,8
 991 1261 991 1261 1001 1228 c 2,9,-1
 1283 264 l 1,10,-1
 1289 264 l 1,11,-1
 1600 1315 l 2,12,13
 1617 1372 1617 1372 1617 1401 c 0,14,15
 1617 1443 1617 1443 1569 1464 c 1,16,-1
 1799 1464 l 1,17,18
 1734 1432 1734 1432 1698 1315 c 2,19,-1
 1294 -12 l 1,20,-1
 1228 -12 l 1,21,-1
 915 1048 l 1,22,-1
 909 1048 l 1,23,-1
 564 -12 l 1,24,-1
 499 -12 l 1,25,-1
 87 1304 l 2,26,27
 46 1434 46 1434 -18 1464 c 1,28,-1
 257 1464 l 1,29,30
 222 1445 222 1445 222 1397 c 0,31,32
 222 1358 222 1358 242 1292 c 2,33,-1
 558 254 l 1,34,-1
 564 254 l 1,35,-1
 872 1196 l 1,0,-1
EndSplineSet
EndChar

StartChar: X
Encoding: 88 88 59
Width: 1355
GlyphClass: 2
Flags: W
LayerCount: 2
Fore
SplineSet
600 755 m 1,0,-1
 202 1300 l 2,1,2
 113 1421 113 1421 16 1464 c 1,3,-1
 328 1464 l 1,4,5
 298 1449 298 1449 298 1423 c 0,6,7
 298 1387 298 1387 353 1312 c 2,8,-1
 694 845 l 1,9,-1
 1057 1333 l 2,10,11
 1106 1399 1106 1399 1106 1431 c 0,12,13
 1106 1451 1106 1451 1080 1464 c 1,14,-1
 1336 1464 l 1,15,16
 1239 1423 1239 1423 1153 1308 c 2,17,-1
 751 774 l 1,18,-1
 1186 182 l 2,19,20
 1274 62 1274 62 1371 20 c 1,21,-1
 1062 20 l 1,22,23
 1088 35 1088 35 1088 59 c 0,24,25
 1088 96 1088 96 1036 167 c 2,26,-1
 659 680 l 1,27,-1
 262 147 l 2,28,29
 215 84 215 84 215 53 c 0,30,31
 215 33 215 33 238 20 c 1,32,-1
 -14 20 l 1,33,34
 84 61 84 61 168 174 c 2,35,-1
 600 755 l 1,0,-1
EndSplineSet
EndChar

StartChar: Y
Encoding: 89 89 60
Width: 1279
GlyphClass: 2
Flags: W
LayerCount: 2
Fore
SplineSet
503 20 m 1,0,1
 565 44 565 44 565 157 c 2,2,-1
 565 585 l 1,3,-1
 128 1325 l 2,4,5
 69 1426 69 1426 -17 1464 c 1,6,-1
 295 1464 l 1,7,8
 261 1447 261 1447 261 1419 c 0,9,10
 261 1377 261 1377 298 1312 c 2,11,-1
 655 686 l 1,12,-1
 1046 1348 l 2,13,14
 1066 1382 1066 1382 1066 1410 c 0,15,16
 1066 1445 1066 1445 1018 1464 c 1,17,-1
 1293 1464 l 1,18,19
 1201 1423 1201 1423 1130 1305 c 2,20,-1
 706 604 l 1,21,-1
 706 157 l 2,22,23
 706 47 706 47 779 20 c 1,24,-1
 503 20 l 1,0,1
EndSplineSet
EndChar

StartChar: Z
Encoding: 90 90 61
Width: 1294
GlyphClass: 2
Flags: W
LayerCount: 2
Fore
SplineSet
120 1284 m 1,0,-1
 133 1464 l 1,1,-1
 1162 1464 l 1,2,-1
 1162 1388 l 1,3,-1
 226 96 l 1,4,-1
 817 96 l 2,5,6
 1060 96 1060 96 1144 155 c 0,7,8
 1168 171 1168 171 1188 195 c 1,9,-1
 1176 20 l 1,10,-1
 70 20 l 1,11,-1
 70 121 l 1,12,-1
 996 1394 l 1,13,-1
 507 1394 l 2,14,15
 239 1394 239 1394 155 1322 c 0,16,17
 136 1305 136 1305 120 1284 c 1,0,-1
EndSplineSet
EndChar

StartChar: bracketleft
Encoding: 91 91 62
Width: 696
GlyphClass: 2
Flags: W
LayerCount: 2
Fore
SplineSet
607 -410 m 1,0,-1
 236 -410 l 1,1,-1
 236 1563 l 1,2,-1
 607 1563 l 1,3,-1
 607 1493 l 1,4,-1
 367 1493 l 1,5,-1
 367 -340 l 1,6,-1
 607 -340 l 1,7,-1
 607 -410 l 1,0,-1
EndSplineSet
Validated: 1
EndChar

StartChar: backslash
Encoding: 92 92 63
Width: 1024
GlyphClass: 2
Flags: W
LayerCount: 2
Fore
SplineSet
150 1491 m 1,0,-1
 238 1524 l 1,1,-1
 916 -274 l 1,2,-1
 830 -307 l 1,3,-1
 150 1491 l 1,0,-1
EndSplineSet
Validated: 1
EndChar

StartChar: bracketright
Encoding: 93 93 64
Width: 696
GlyphClass: 2
Flags: W
LayerCount: 2
Fore
SplineSet
462 -410 m 1,0,-1
 91 -410 l 1,1,-1
 91 -340 l 1,2,-1
 331 -340 l 1,3,-1
 331 1493 l 1,4,-1
 91 1493 l 1,5,-1
 91 1563 l 1,6,-1
 462 1563 l 1,7,-1
 462 -410 l 1,0,-1
EndSplineSet
Validated: 1
EndChar

StartChar: asciicircum
Encoding: 94 94 65
Width: 1024
GlyphClass: 2
Flags: W
LayerCount: 2
Fore
SplineSet
962 731 m 1,0,-1
 886 672 l 1,1,-1
 512 1128 l 1,2,-1
 135 672 l 1,3,-1
 59 731 l 1,4,-1
 512 1264 l 1,5,-1
 962 731 l 1,0,-1
EndSplineSet
Validated: 1
EndChar

StartChar: underscore
Encoding: 95 95 66
Width: 1024
GlyphClass: 2
Flags: W
LayerCount: 2
Fore
SplineSet
1024 -250 m 1,0,-1
 0 -250 l 1,1,-1
 0 -148 l 1,2,-1
 1024 -148 l 1,3,-1
 1024 -250 l 1,0,-1
EndSplineSet
Validated: 1
EndChar

StartChar: grave
Encoding: 96 96 67
Width: 1024
GlyphClass: 2
Flags: W
LayerCount: 2
Fore
SplineSet
622 1251 m 1,0,-1
 579 1206 l 1,1,-1
 274 1409 l 1,2,-1
 374 1505 l 1,3,-1
 622 1251 l 1,0,-1
EndSplineSet
Validated: 1
EndChar

StartChar: a
Encoding: 97 97 68
Width: 966
GlyphClass: 2
Flags: W
LayerCount: 2
Fore
SplineSet
725 276 m 1,0,-1
 725 557 l 1,1,-1
 639 553 l 2,2,3
 213 532 213 532 213 278 c 0,4,5
 213 184 213 184 272 124 c 0,6,7
 330 67 330 67 418 67 c 0,8,9
 538 67 538 67 633 141 c 0,10,11
 697 193 697 193 725 276 c 1,0,-1
739 165 m 1,12,13
 614 -14 614 -14 391 -14 c 0,14,15
 256 -14 256 -14 166 57 c 0,16,17
 70 135 70 135 70 266 c 0,18,19
 70 589 70 589 621 623 c 2,20,-1
 725 629 l 1,21,-1
 725 666 l 2,22,23
 725 819 725 819 660 896.5 c 128,-1,24
 595 974 595 974 473 974 c 0,25,26
 391 974 391 974 311 937 c 128,-1,27
 231 900 231 900 202 847 c 1,28,-1
 180 950 l 1,29,30
 235 987 235 987 324 1015 c 128,-1,31
 413 1043 413 1043 484 1043 c 0,32,33
 665 1043 665 1043 759.5 952.5 c 128,-1,34
 854 862 854 862 854 684 c 2,35,-1
 855 129 l 2,36,37
 855 41 855 41 896 20 c 1,38,-1
 748 20 l 1,39,-1
 739 165 l 1,12,13
EndSplineSet
EndChar

StartChar: b
Encoding: 98 98 69
Width: 1083
GlyphClass: 2
Flags: W
LayerCount: 2
Fore
SplineSet
233 639 m 2,0,-1
 233 373 l 2,1,2
 233 245 233 245 366 150 c 0,3,4
 457 84 457 84 559 84 c 0,5,6
 714 84 714 84 800 231 c 0,7,8
 868 345 868 345 868 518 c 0,9,10
 868 749 868 749 749 868 c 0,11,12
 663 954 663 954 549 954 c 0,13,14
 398 954 398 954 296 813 c 0,15,16
 233 728 233 728 233 639 c 2,0,-1
100 1356 m 2,17,18
 100 1453 100 1453 50 1470 c 1,19,20
 149 1478 149 1478 233 1495 c 1,21,-1
 233 834 l 1,22,23
 358 1038 358 1038 577 1038 c 0,24,25
 747 1038 747 1038 868 917 c 0,26,27
 1013 772 1013 772 1013 522 c 0,28,29
 1013 270 1013 270 866 122 c 0,30,31
 741 -2 741 -2 573 -2 c 0,32,33
 360 -2 360 -2 237 170 c 1,34,-1
 170 4 l 1,35,-1
 100 4 l 1,36,-1
 100 1356 l 2,17,18
EndSplineSet
EndChar

StartChar: c
Encoding: 99 99 70
Width: 847
GlyphClass: 2
Flags: W
LayerCount: 2
Fore
SplineSet
222 513 m 0,0,1
 222 346 222 346 294 217 c 0,2,3
 383 57 383 57 562 57 c 0,4,5
 721 57 721 57 795 169 c 1,6,-1
 822 64 l 1,7,8
 713 -12 713 -12 555 -12 c 0,9,10
 351 -12 351 -12 220 123 c 0,11,12
 70 278 70 278 70 513 c 0,13,14
 70 753 70 753 220 908 c 0,15,16
 351 1043 351 1043 555 1043 c 0,17,18
 713 1043 713 1043 822 967 c 1,19,-1
 795 862 l 1,20,21
 721 974 721 974 562 974 c 0,22,23
 383 974 383 974 294 814 c 0,24,25
 222 685 222 685 222 513 c 0,0,1
EndSplineSet
EndChar

StartChar: d
Encoding: 100 100 71
Width: 1120
GlyphClass: 2
Flags: W
LayerCount: 2
Fore
SplineSet
215 520 m 0,0,1
 215 433 215 433 235.5 355 c 128,-1,2
 256 277 256 277 294.5 215.5 c 128,-1,3
 333 154 333 154 395 118 c 128,-1,4
 457 82 457 82 535 82 c 0,5,6
 680 82 680 82 776 215 c 0,7,8
 848 315 848 315 848 416 c 2,9,-1
 848 686 l 2,10,11
 848 798 848 798 723 887 c 0,12,13
 634 954 634 954 526 954 c 0,14,15
 425 954 425 954 353 891.5 c 128,-1,16
 281 829 281 829 248 732.5 c 128,-1,17
 215 636 215 636 215 520 c 0,0,1
848 1354 m 2,18,19
 848 1451 848 1451 798 1469 c 1,20,21
 893 1477 893 1477 981 1495 c 1,22,-1
 981 129 l 2,23,24
 981 47 981 47 1021 20 c 1,25,-1
 854 20 l 1,26,-1
 844 196 l 1,27,28
 725 -2 725 -2 506 -2 c 0,29,30
 304 -2 304 -2 187 145.5 c 128,-1,31
 70 293 70 293 70 514 c 0,32,33
 70 768 70 768 217 915 c 0,34,35
 340 1038 340 1038 508 1038 c 0,36,37
 722 1038 722 1038 848 860 c 1,38,-1
 848 1354 l 2,18,19
EndSplineSet
EndChar

StartChar: e
Encoding: 101 101 72
Width: 1055
GlyphClass: 2
Flags: W
LayerCount: 2
Fore
SplineSet
846 621 m 1,0,1
 840 797 840 797 744 894 c 0,2,3
 661 974 661 974 541 974 c 0,4,5
 398 974 398 974 303 849 c 0,6,7
 235 760 235 760 220 621 c 1,8,-1
 846 621 l 1,0,1
951 195 m 1,9,10
 819 -12 819 -12 562 -12 c 0,11,12
 348 -12 348 -12 209 127 c 0,13,14
 70 270 70 270 70 510 c 0,15,16
 70 765 70 765 217 912 c 0,17,18
 345 1043 345 1043 543 1043 c 0,19,20
 735 1043 735 1043 854 920 c 0,21,22
 985 789 985 789 985 580 c 2,23,-1
 985 543 l 1,24,-1
 213 543 l 1,25,-1
 213 508 l 2,26,27
 213 306 213 306 336 180 c 0,28,29
 439 78 439 78 586 78 c 0,30,31
 806 78 806 78 926 291 c 1,32,-1
 951 195 l 1,9,10
EndSplineSet
EndChar

StartChar: f
Encoding: 102 102 73
Width: 557
GlyphClass: 2
Flags: W
LayerCount: 2
Fore
SplineSet
146 1008 m 1,0,-1
 146 1147 l 2,1,2
 146 1319 146 1319 242 1415 c 0,3,4
 326 1499 326 1499 457 1499 c 0,5,6
 541 1499 541 1499 603 1473 c 1,7,-1
 559 1405 l 1,8,9
 527 1437 527 1437 463 1437 c 0,10,11
 281 1437 281 1437 281 1147 c 2,12,-1
 281 1008 l 1,13,-1
 504 1008 l 1,14,-1
 504 932 l 1,15,-1
 281 932 l 1,16,-1
 281 126 l 2,17,18
 281 45 281 45 320 20 c 1,19,-1
 100 20 l 1,20,21
 146 48 146 48 146 126 c 2,22,-1
 146 932 l 1,23,-1
 -44 932 l 1,24,-1
 -44 1008 l 1,25,-1
 146 1008 l 1,0,-1
EndSplineSet
EndChar

StartChar: g
Encoding: 103 103 74
Width: 955
GlyphClass: 2
Flags: W
LayerCount: 2
Fore
SplineSet
486 80 m 0,0,1
 166 80 166 80 166 -114 c 0,2,3
 166 -221 166 -221 268 -280 c 0,4,5
 356 -331 356 -331 496 -331 c 0,6,7
 696 -331 696 -331 791 -233 c 0,8,9
 842 -182 842 -182 842 -112 c 0,10,11
 842 80 842 80 486 80 c 0,0,1
475 967 m 0,12,13
 357 967 357 967 281 891 c 0,14,15
 205 816 205 816 205 693 c 0,16,17
 205 435 205 435 477 435 c 0,18,19
 615 435 615 435 690 517 c 0,20,21
 754 586 754 586 754 701 c 0,22,23
 754 813 754 813 680 887 c 0,24,25
 603 967 603 967 475 967 c 0,12,13
693 998 m 1,26,27
 803 1126 803 1126 918 1126 c 0,28,29
 956 1126 956 1126 980 1114 c 1,30,-1
 943 1043 l 1,31,32
 876 1052 876 1052 825.5 1029 c 128,-1,33
 775 1006 775 1006 748 969 c 1,34,35
 885 878 885 878 885 699 c 0,36,37
 885 512 885 512 727 422 c 0,38,39
 628 365 628 365 500 365 c 0,40,41
 417 365 417 365 322 389 c 1,42,43
 248 359 248 359 248 303 c 0,44,45
 248 202 248 202 475 187 c 2,46,-1
 590 178 l 2,47,48
 977 151 977 151 977 -98 c 0,49,50
 977 -228 977 -228 860 -311 c 0,51,52
 730 -405 730 -405 498 -405 c 0,53,54
 296 -405 296 -405 164 -331 c 0,55,56
 31 -257 31 -257 31 -127 c 0,57,58
 31 71 31 71 328 117 c 1,59,-1
 328 123 l 1,60,61
 133 166 133 166 133 281 c 0,62,63
 133 381 133 381 256 418 c 1,64,65
 70 500 70 500 70 688 c 0,66,67
 70 854 70 854 209 956 c 0,68,69
 322 1038 322 1038 477 1038 c 0,70,71
 601 1038 601 1038 693 998 c 1,26,27
EndSplineSet
EndChar

StartChar: h
Encoding: 104 104 75
Width: 1095
GlyphClass: 2
Flags: W
LayerCount: 2
Fore
SplineSet
143 1356 m 2,0,1
 143 1453 143 1453 91 1470 c 1,2,3
 189 1478 189 1478 278 1495 c 1,4,-1
 278 836 l 1,5,6
 410 1034 410 1034 620 1034 c 0,7,8
 956 1034 956 1034 956 666 c 2,9,-1
 956 127 l 2,10,11
 956 43 956 43 995 20 c 1,12,-1
 779 20 l 1,13,14
 819 48 819 48 819 127 c 2,15,-1
 819 637 l 2,16,17
 819 946 819 946 592 946 c 0,18,19
 370 946 370 946 278 701 c 1,20,-1
 278 127 l 2,21,22
 278 43 278 43 317 20 c 1,23,-1
 100 20 l 1,24,25
 143 47 143 47 143 127 c 2,26,-1
 143 1356 l 2,0,1
EndSplineSet
EndChar

StartChar: i
Encoding: 105 105 76
Width: 419
GlyphClass: 2
Flags: W
LayerCount: 2
Fore
SplineSet
212 1470 m 0,0,1
 256 1470 256 1470 286 1439 c 0,2,3
 317 1408 317 1408 317 1365 c 0,4,5
 317 1263 317 1263 212 1263 c 0,6,7
 110 1263 110 1263 110 1365 c 0,8,9
 110 1470 110 1470 212 1470 c 0,0,1
145 899 m 2,10,11
 145 996 145 996 95 1014 c 1,12,13
 191 1023 191 1023 280 1041 c 1,14,-1
 280 127 l 2,15,16
 280 43 280 43 319 20 c 1,17,-1
 101 20 l 1,18,19
 145 47 145 47 145 127 c 2,20,-1
 145 899 l 2,10,11
EndSplineSet
EndChar

StartChar: j
Encoding: 106 106 77
Width: 382
GlyphClass: 2
Flags: W
LayerCount: 2
Fore
SplineSet
216 1470 m 0,0,1
 259 1470 259 1470 290 1439 c 128,-1,2
 321 1408 321 1408 321 1365 c 0,3,4
 321 1263 321 1263 216 1263 c 0,5,6
 114 1263 114 1263 114 1365 c 0,7,8
 114 1470 114 1470 216 1470 c 0,0,1
149 900 m 2,9,10
 149 996 149 996 99 1015 c 1,11,12
 195 1023 195 1023 282 1041 c 1,13,-1
 282 -59 l 2,14,15
 282 -407 282 -407 -5 -407 c 0,16,17
 -76 -407 -76 -407 -130 -378 c 1,18,-1
 -89 -317 l 1,19,20
 -60 -352 -60 -352 -5 -352 c 0,21,22
 149 -352 149 -352 149 -78 c 2,23,-1
 149 900 l 2,9,10
EndSplineSet
Validated: 1
EndChar

StartChar: k
Encoding: 107 107 78
Width: 1048
GlyphClass: 2
Flags: W
LayerCount: 2
Fore
SplineSet
143 1356 m 2,0,1
 143 1453 143 1453 91 1470 c 1,2,3
 189 1478 189 1478 278 1495 c 1,4,-1
 278 526 l 1,5,-1
 731 903 l 2,6,7
 795 956 795 956 795 984 c 0,8,9
 795 998 795 998 778 1008 c 1,10,-1
 1020 1008 l 1,11,12
 944 980 944 980 862 913 c 2,13,-1
 495 614 l 1,14,-1
 889 143 l 2,15,16
 963 55 963 55 1030 20 c 1,17,-1
 791 20 l 1,18,19
 799 28 799 28 799 40 c 0,20,21
 799 63 799 63 752 120 c 2,22,-1
 401 543 l 1,23,-1
 278 440 l 1,24,-1
 278 127 l 2,25,26
 278 43 278 43 317 20 c 1,27,-1
 100 20 l 1,28,29
 143 47 143 47 143 127 c 2,30,-1
 143 1356 l 2,0,1
EndSplineSet
EndChar

StartChar: l
Encoding: 108 108 79
Width: 418
GlyphClass: 2
Flags: W
LayerCount: 2
Fore
SplineSet
144 1356 m 2,0,1
 144 1453 144 1453 91 1470 c 1,2,3
 188 1478 188 1478 279 1495 c 1,4,-1
 279 126 l 2,5,6
 279 47 279 47 318 20 c 1,7,-1
 100 20 l 1,8,9
 144 46 144 46 144 126 c 2,10,-1
 144 1356 l 2,0,1
EndSplineSet
EndChar

StartChar: m
Encoding: 109 109 80
Width: 1644
GlyphClass: 2
Flags: W
LayerCount: 2
Fore
SplineSet
100 20 m 1,0,1
 144 47 144 47 144 127 c 2,2,-1
 144 899 l 2,3,4
 144 996 144 996 95 1014 c 1,5,6
 193 1022 193 1022 275 1041 c 1,7,-1
 275 834 l 1,8,9
 390 1034 390 1034 589 1034 c 0,10,11
 831 1034 831 1034 873 811 c 1,12,13
 984 1034 984 1034 1207 1034 c 0,14,15
 1514 1034 1514 1034 1514 666 c 2,16,-1
 1514 127 l 2,17,18
 1514 46 1514 46 1554 20 c 1,19,-1
 1338 20 l 1,20,21
 1377 43 1377 43 1377 127 c 2,22,-1
 1377 633 l 2,23,24
 1377 795 1377 795 1342 858 c 0,25,26
 1289 948 1289 948 1178 948 c 0,27,28
 979 948 979 948 896 701 c 1,29,-1
 896 127 l 2,30,31
 896 43 896 43 933 20 c 1,32,-1
 716 20 l 1,33,34
 759 47 759 47 759 127 c 2,35,-1
 759 635 l 2,36,37
 759 804 759 804 726 860 c 0,38,39
 675 948 675 948 566 948 c 0,40,41
 364 948 364 948 281 703 c 1,42,-1
 281 127 l 2,43,44
 281 43 281 43 318 20 c 1,45,-1
 100 20 l 1,0,1
EndSplineSet
EndChar

StartChar: n
Encoding: 110 110 81
Width: 1100
GlyphClass: 2
Flags: W
LayerCount: 2
Fore
SplineSet
100 20 m 1,0,1
 144 47 144 47 144 127 c 2,2,-1
 144 899 l 2,3,4
 144 996 144 996 95 1014 c 1,5,6
 189 1022 189 1022 273 1041 c 1,7,-1
 273 826 l 1,8,9
 399 1034 399 1034 621 1034 c 0,10,11
 957 1034 957 1034 957 666 c 2,12,-1
 957 127 l 2,13,14
 957 48 957 48 1000 20 c 1,15,-1
 779 20 l 1,16,17
 820 48 820 48 820 127 c 2,18,-1
 820 637 l 2,19,20
 820 946 820 946 592 946 c 0,21,22
 370 946 370 946 281 701 c 1,23,-1
 281 127 l 2,24,25
 281 47 281 47 321 20 c 1,26,-1
 100 20 l 1,0,1
EndSplineSet
EndChar

StartChar: o
Encoding: 111 111 82
Width: 1113
GlyphClass: 2
Flags: W
LayerCount: 2
Fore
SplineSet
556 1047 m 0,0,1
 758 1047 758 1047 895 910 c 0,2,3
 1043 762 1043 762 1043 523 c 0,4,5
 1043 270 1043 270 895 123 c 0,6,7
 757 -12 757 -12 556 -12 c 0,8,9
 353 -12 353 -12 217 123 c 0,10,11
 70 270 70 270 70 518 c 0,12,13
 70 762 70 762 220 912 c 0,14,15
 355 1047 355 1047 556 1047 c 0,0,1
556 976 m 0,16,17
 404 976 404 976 312 847 c 0,18,19
 222 722 222 722 222 518 c 0,20,21
 222 303 222 303 320 180 c 0,22,23
 410 65 410 65 556 65 c 0,24,25
 737 65 737 65 824 225 c 0,26,27
 891 351 891 351 891 516 c 0,28,29
 891 733 891 733 793 859 c 0,30,31
 701 976 701 976 556 976 c 0,16,17
EndSplineSet
EndChar

StartChar: p
Encoding: 112 112 83
Width: 1119
GlyphClass: 2
Flags: W
LayerCount: 2
Fore
SplineSet
595 84 m 0,0,1
 671 84 671 84 731 119.5 c 128,-1,2
 791 155 791 155 828 215.5 c 128,-1,3
 865 276 865 276 884.5 353.5 c 128,-1,4
 904 431 904 431 904 518 c 0,5,6
 904 752 904 752 785 868 c 0,7,8
 701 952 701 952 586 952 c 0,9,10
 438 952 438 952 341 815 c 0,11,12
 277 727 277 727 277 655 c 2,13,-1
 277 336 l 2,14,15
 277 239 277 239 398 150 c 0,16,17
 488 84 488 84 595 84 c 0,0,1
273 842 m 1,18,19
 399 1038 399 1038 613 1038 c 0,20,21
 787 1038 787 1038 906 919 c 0,22,23
 1049 776 1049 776 1049 522 c 0,24,25
 1049 272 1049 272 902 125 c 0,26,27
 780 0 780 0 611 0 c 0,28,29
 394 0 394 0 277 176 c 1,30,-1
 277 -246 l 2,31,32
 277 -327 277 -327 319 -352 c 1,33,-1
 100 -352 l 1,34,35
 140 -329 140 -329 140 -246 c 2,36,-1
 140 897 l 2,37,38
 140 998 140 998 93 1014 c 1,39,40
 191 1022 191 1022 273 1041 c 1,41,-1
 273 842 l 1,18,19
EndSplineSet
EndChar

StartChar: q
Encoding: 113 113 84
Width: 1122
GlyphClass: 2
Flags: W
LayerCount: 2
Fore
SplineSet
806 -352 m 1,0,1
 846 -329 846 -329 846 -246 c 2,2,-1
 846 207 l 1,3,4
 726 -2 726 -2 506 -2 c 0,5,6
 334 -2 334 -2 215 116 c 0,7,8
 70 262 70 262 70 512 c 0,9,10
 70 760 70 760 220 909 c 0,11,12
 346 1038 346 1038 522 1038 c 0,13,14
 738 1038 738 1038 858 869 c 1,15,-1
 914 1024 l 1,16,-1
 983 1024 l 1,17,-1
 983 -246 l 2,18,19
 983 -327 983 -327 1023 -352 c 1,20,-1
 806 -352 l 1,0,1
844 389 m 2,21,-1
 844 701 l 2,22,23
 844 803 844 803 725 889 c 0,24,25
 640 952 640 952 533 952 c 0,26,27
 387 952 387 952 301 829 c 0,28,29
 215 709 215 709 215 520 c 0,30,31
 215 316 215 316 311 195 c 0,32,33
 399 82 399 82 537 82 c 0,34,35
 681 82 681 82 776 215 c 0,36,37
 844 307 844 307 844 389 c 2,21,-1
EndSplineSet
EndChar

StartChar: r
Encoding: 114 114 85
Width: 653
GlyphClass: 2
Flags: W
LayerCount: 2
Fore
SplineSet
271 780 m 1,0,1
 290 826 290 826 320.5 870 c 128,-1,2
 351 914 351 914 391.5 953.5 c 128,-1,3
 432 993 432 993 486 1017 c 128,-1,4
 540 1041 540 1041 596 1041 c 2,5,-1
 651 1041 l 1,6,-1
 600 955 l 1,7,-1
 545 955 l 2,8,9
 471 955 471 955 381 852 c 0,10,11
 315 774 315 774 281 662 c 1,12,-1
 281 127 l 2,13,14
 281 43 281 43 318 20 c 1,15,-1
 100 20 l 1,16,17
 144 47 144 47 144 127 c 2,18,-1
 144 899 l 2,19,20
 144 996 144 996 95 1014 c 1,21,22
 189 1022 189 1022 271 1041 c 1,23,-1
 271 780 l 1,0,1
EndSplineSet
EndChar

StartChar: s
Encoding: 115 115 86
Width: 867
GlyphClass: 2
Flags: W
LayerCount: 2
Fore
SplineSet
752 965 m 1,0,-1
 752 796 l 1,1,2
 731 850 731 850 693 888 c 0,3,4
 654 927 654 927 565.5 950.5 c 128,-1,5
 477 974 477 974 406 974 c 0,6,7
 306 974 306 974 240 908 c 0,8,9
 193 858 193 858 193 789 c 0,10,11
 193 669 193 669 400 604 c 2,12,-1
 453 588 l 2,13,14
 624 533 624 533 695 479 c 0,15,16
 797 402 797 402 797 274 c 0,17,18
 797 122 797 122 682 45 c 0,19,20
 593 -16 593 -16 463 -16 c 0,21,22
 396 -16 396 -16 296.5 3.5 c 128,-1,23
 197 23 197 23 138 55 c 0,24,25
 94 81 94 81 70 81 c 0,26,27
 63 81 63 81 58 78 c 1,28,-1
 58 286 l 1,29,30
 80 211 80 211 129 162 c 0,31,32
 175 114 175 114 274.5 86.5 c 128,-1,33
 374 59 374 59 459 59 c 0,34,35
 672 59 672 59 672 248 c 0,36,37
 672 331 672 331 609 383 c 0,38,39
 566 417 566 417 410 471 c 2,40,-1
 349 492 l 2,41,42
 208 538 208 538 160 578 c 0,43,44
 70 649 70 649 70 764 c 0,45,46
 70 876 70 876 154 957 c 0,47,48
 246 1043 246 1043 394 1043 c 0,49,50
 468 1043 468 1043 562.5 1026.5 c 128,-1,51
 657 1010 657 1010 703 982 c 0,52,53
 732 965 732 965 752 965 c 1,0,-1
EndSplineSet
EndChar

StartChar: t
Encoding: 116 116 87
Width: 680
GlyphClass: 2
Flags: W
LayerCount: 2
Fore
SplineSet
682 113 m 1,0,1
 578 -25 578 -25 438 -25 c 0,2,3
 211 -25 211 -25 211 233 c 2,4,-1
 211 932 l 1,5,-1
 37 932 l 1,6,-1
 37 1008 l 1,7,-1
 211 1008 l 1,8,-1
 211 1248 l 1,9,-1
 346 1287 l 1,10,-1
 346 1008 l 1,11,-1
 649 1008 l 1,12,-1
 649 932 l 1,13,-1
 346 932 l 1,14,-1
 346 272 l 2,15,16
 346 63 346 63 473 63 c 0,17,18
 564 63 564 63 637 158 c 1,19,-1
 682 113 l 1,0,1
EndSplineSet
EndChar

StartChar: u
Encoding: 117 117 88
Width: 1099
GlyphClass: 2
Flags: W
LayerCount: 2
Fore
SplineSet
823 902 m 2,0,1
 823 996 823 996 772 1015 c 1,2,3
 864 1023 864 1023 956 1041 c 1,4,-1
 956 127 l 2,5,6
 956 48 956 48 999 20 c 1,7,-1
 835 20 l 1,8,-1
 825 186 l 1,9,10
 702 -20 702 -20 479 -20 c 0,11,12
 141 -20 141 -20 141 346 c 2,13,-1
 141 899 l 2,14,15
 141 1003 141 1003 94 1014 c 1,16,17
 192 1023 192 1023 276 1041 c 1,18,-1
 276 377 l 2,19,20
 276 66 276 66 503 66 c 0,21,22
 623 66 623 66 707.5 144 c 128,-1,23
 792 222 792 222 823 338 c 1,24,-1
 823 902 l 2,0,1
EndSplineSet
EndChar

StartChar: v
Encoding: 118 118 89
Width: 960
GlyphClass: 2
Flags: W
LayerCount: 2
Fore
SplineSet
510 -17 m 1,0,-1
 438 -17 l 1,1,-1
 66 901 l 2,2,3
 30 990 30 990 -12 1018 c 1,4,-1
 220 1018 l 1,5,6
 191 999 191 999 191 965 c 0,7,8
 191 946 191 946 205 909 c 2,9,-1
 495 149 l 1,10,-1
 794 907 l 2,11,12
 810 948 810 948 810 969 c 0,13,14
 810 1000 810 1000 780 1018 c 1,15,-1
 969 1018 l 1,16,17
 916 989 916 989 890 924 c 2,18,-1
 510 -17 l 1,0,-1
EndSplineSet
EndChar

StartChar: w
Encoding: 119 119 90
Width: 1458
GlyphClass: 2
Flags: W
LayerCount: 2
Fore
SplineSet
802 903 m 2,0,-1
 1056 168 l 1,1,-1
 1304 907 l 2,2,3
 1318 949 1318 949 1318 975 c 0,4,5
 1318 1002 1318 1002 1291 1018 c 1,6,-1
 1470 1018 l 1,7,8
 1421 991 1421 991 1400 930 c 2,9,-1
 1067 -17 l 1,10,-1
 1001 -17 l 1,11,-1
 747 700 l 1,12,-1
 465 -17 l 1,13,-1
 395 -17 l 1,14,-1
 75 901 l 2,15,16
 46 984 46 984 -12 1018 c 1,17,-1
 222 1018 l 1,18,19
 194 1000 194 1000 194 969 c 0,20,21
 194 947 194 947 208 907 c 2,22,-1
 465 168 l 1,23,-1
 708 799 l 1,24,-1
 671 901 l 2,25,26
 651 957 651 957 638 981.5 c 128,-1,27
 625 1006 625 1006 605 1018 c 1,28,-1
 813 1018 l 1,29,30
 786 1000 786 1000 786 969 c 0,31,32
 786 951 786 951 802 903 c 2,0,-1
EndSplineSet
EndChar

StartChar: x
Encoding: 120 120 91
Width: 992
GlyphClass: 2
Flags: W
LayerCount: 2
Fore
SplineSet
429 518 m 1,0,-1
 144 891 l 2,1,2
 87 966 87 966 50 996 c 0,3,4
 40 1003 40 1003 29 1008 c 1,5,-1
 254 1008 l 1,6,7
 240 999 240 999 240 985 c 0,8,9
 240 964 240 964 289 899 c 2,10,-1
 517 596 l 1,11,-1
 786 926 l 2,12,13
 821 969 821 969 821 990 c 0,14,15
 821 1000 821 1000 808 1008 c 1,16,-1
 972 1008 l 1,17,18
 927 984 927 984 853 895 c 2,19,-1
 562 545 l 1,20,-1
 870 137 l 2,21,22
 933 53 933 53 1002 20 c 1,23,-1
 768 20 l 1,24,25
 776 28 776 28 776 38 c 0,26,27
 776 59 776 59 727 125 c 2,28,-1
 476 463 l 1,29,-1
 182 104 l 2,30,31
 147 61 147 61 147 38 c 0,32,33
 147 28 147 28 156 20 c 1,34,-1
 -14 20 l 1,35,36
 50 52 50 52 114 131 c 2,37,-1
 429 518 l 1,0,-1
EndSplineSet
EndChar

StartChar: y
Encoding: 121 121 92
Width: 962
GlyphClass: 2
Flags: W
LayerCount: 2
Fore
SplineSet
518 191 m 1,0,-1
 800 908 l 2,1,2
 814 944 814 944 814 965 c 0,3,4
 814 999 814 999 783 1018 c 1,5,-1
 973 1018 l 1,6,7
 921 989 921 989 894 924 c 2,8,-1
 438 -211 l 2,9,10
 366 -389 366 -389 225 -389 c 0,11,12
 191 -389 191 -389 165 -383 c 1,13,-1
 154 -282 l 2,14,15
 154 -286 154 -286 167.5 -291 c 128,-1,16
 181 -296 181 -296 194 -298 c 2,17,-1
 208 -301 l 1,18,-1
 258 -301 l 2,19,20
 326 -301 326 -301 374 -176 c 2,21,-1
 454 39 l 1,22,-1
 72 901 l 2,23,24
 32 992 32 992 -8 1018 c 1,25,-1
 220 1018 l 1,26,27
 195 1001 195 1001 195 973 c 0,28,29
 195 949 195 949 211 912 c 2,30,-1
 518 191 l 1,0,-1
EndSplineSet
EndChar

StartChar: z
Encoding: 122 122 93
Width: 944
GlyphClass: 2
Flags: W
LayerCount: 2
Fore
SplineSet
363 945 m 2,0,1
 253 945 253 945 195 924 c 128,-1,2
 137 903 137 903 112 849 c 1,3,-1
 121 1008 l 1,4,-1
 854 1008 l 1,5,-1
 854 949 l 1,6,-1
 226 86 l 1,7,-1
 629 86 l 2,8,9
 739 86 739 86 796 107 c 128,-1,10
 853 128 853 128 877 185 c 1,11,-1
 869 20 l 1,12,-1
 68 20 l 1,13,-1
 68 80 l 1,14,-1
 697 945 l 1,15,-1
 363 945 l 2,0,1
EndSplineSet
EndChar

StartChar: braceleft
Encoding: 123 123 94
Width: 694
GlyphClass: 2
Flags: W
LayerCount: 2
Fore
SplineSet
587 -410 m 1,0,-1
 511 -410 l 2,1,2
 235 -410 235 -410 235 -135 c 2,3,-1
 235 324 l 2,4,5
 235 543 235 543 88 561 c 1,6,-1
 88 612 l 1,7,8
 235 628 235 628 235 856 c 2,9,-1
 235 1288 l 2,10,11
 235 1563 235 1563 511 1563 c 2,12,-1
 587 1563 l 1,13,-1
 587 1505 l 1,14,-1
 530 1505 l 2,15,16
 366 1505 366 1505 366 1298 c 2,17,-1
 366 860 l 2,18,19
 366 634 366 634 188 588 c 1,20,21
 366 536 366 536 366 313 c 2,22,-1
 366 -145 l 2,23,24
 366 -352 366 -352 530 -352 c 2,25,-1
 587 -352 l 1,26,-1
 587 -410 l 1,0,-1
EndSplineSet
Validated: 1
EndChar

StartChar: bar
Encoding: 124 124 95
Width: 401
GlyphClass: 2
Flags: W
LayerCount: 2
Fore
SplineSet
252 -338 m 1,0,-1
 150 -338 l 1,1,-1
 150 1505 l 1,2,-1
 252 1505 l 1,3,-1
 252 -338 l 1,0,-1
EndSplineSet
Validated: 1
EndChar

StartChar: braceright
Encoding: 125 125 96
Width: 694
GlyphClass: 2
Flags: W
LayerCount: 2
Fore
SplineSet
605 561 m 1,0,1
 458 543 458 543 458 324 c 2,2,-1
 458 -135 l 2,3,4
 458 -410 458 -410 182 -410 c 2,5,-1
 104 -410 l 1,6,-1
 104 -352 l 1,7,-1
 161 -352 l 2,8,9
 327 -352 327 -352 327 -145 c 2,10,-1
 327 313 l 2,11,12
 327 536 327 536 505 588 c 1,13,14
 327 634 327 634 327 860 c 2,15,-1
 327 1298 l 2,16,17
 327 1505 327 1505 161 1505 c 2,18,-1
 104 1505 l 1,19,-1
 104 1563 l 1,20,-1
 182 1563 l 2,21,22
 458 1563 458 1563 458 1288 c 2,23,-1
 458 856 l 2,24,25
 458 628 458 628 605 612 c 1,26,-1
 605 561 l 1,0,1
EndSplineSet
Validated: 1
EndChar

StartChar: asciitilde
Encoding: 126 126 97
Width: 656
GlyphClass: 2
Flags: W
LayerCount: 2
Fore
SplineSet
607 770 m 1,0,1
 561 649 561 649 454 649 c 0,2,3
 386 649 386 649 304 700 c 0,4,5
 226 747 226 747 188 747 c 0,6,7
 120 747 120 747 89 674 c 1,8,-1
 38 708 l 1,9,10
 78 833 78 833 196 833 c 0,11,12
 263 833 263 833 362 772 c 0,13,14
 420 735 420 735 460 735 c 0,15,16
 522 735 522 735 556 809 c 1,17,-1
 607 770 l 1,0,1
EndSplineSet
EndChar

StartChar: exclamdown
Encoding: 161 161 99
Width: 578
GlyphClass: 2
Flags: W
LayerCount: 2
Fore
SplineSet
294 1251 m 0,0,1
 247 1251 247 1251 215 1284 c 0,2,3
 180 1319 180 1319 180 1366 c 0,4,5
 180 1478 180 1478 294 1478 c 0,6,7
 407 1478 407 1478 407 1366 c 0,8,9
 407 1319 407 1319 372 1284 c 0,10,11
 340 1251 340 1251 294 1251 c 0,0,1
321 1054 m 1,12,-1
 346 690 l 2,13,14
 370 323 370 323 370 170 c 2,15,-1
 370 0 l 1,16,-1
 212 0 l 1,17,-1
 212 176 l 2,18,19
 212 324 212 324 237 690 c 2,20,-1
 262 1054 l 1,21,-1
 321 1054 l 1,12,-1
EndSplineSet
Validated: 1
EndChar

StartChar: cent
Encoding: 162 162 100
Width: 847
GlyphClass: 2
Flags: W
LayerCount: 2
Fore
SplineSet
222 827 m 0,0,1
 222 660 222 660 294 531 c 0,2,3
 337 453 337 453 402 413 c 1,4,-1
 527 1286 l 1,5,6
 374 1272 374 1272 294 1128 c 0,7,8
 222 999 222 999 222 827 c 0,0,1
605 1286 m 1,9,-1
 476 382 l 1,10,11
 516 371 516 371 562 371 c 0,12,13
 721 371 721 371 795 483 c 1,14,-1
 822 378 l 1,15,16
 713 302 713 302 555 302 c 0,17,18
 508 302 508 302 465 309 c 1,19,-1
 432 74 l 1,20,-1
 354 74 l 1,21,-1
 390 328 l 1,22,23
 293 361 293 361 220 437 c 0,24,25
 70 592 70 592 70 827 c 0,26,27
 70 1067 70 1067 220 1222 c 0,28,29
 345 1351 345 1351 537 1357 c 1,30,-1
 563 1544 l 1,31,-1
 641 1544 l 1,32,-1
 614 1354 l 1,33,34
 734 1342 734 1342 822 1281 c 1,35,-1
 795 1176 l 1,36,37
 731 1272 731 1272 605 1286 c 1,9,-1
EndSplineSet
Validated: 1
EndChar

StartChar: sterling
Encoding: 163 163 101
Width: 938
GlyphClass: 2
Flags: W
LayerCount: 2
Fore
SplineSet
342 305 m 0,0,1
 350 351 350 351 350.5 391 c 128,-1,2
 351 431 351 431 347.5 464.5 c 128,-1,3
 344 498 344 498 327.5 553 c 128,-1,4
 311 608 311 608 296 650.5 c 128,-1,5
 281 693 281 693 248 784 c 1,6,-1
 71 784 l 1,7,-1
 71 839 l 1,8,-1
 225 839 l 1,9,10
 225 839 225 839 223 844 c 0,11,12
 219 851 219 851 217 855 c 0,13,14
 154 1007 154 1007 154 1128 c 0,15,16
 154 1290 154 1290 258 1394 c 0,17,18
 377 1519 377 1519 564 1519 c 0,19,20
 703 1519 703 1519 815 1441 c 1,21,-1
 764 1328 l 1,22,23
 724 1453 724 1453 567 1453 c 0,24,25
 434 1453 434 1453 360 1349 c 0,26,27
 299 1263 299 1263 299 1130 c 0,28,29
 299 1012 299 1012 369 839 c 1,30,-1
 774 839 l 1,31,-1
 774 784 l 1,32,-1
 389 784 l 1,33,34
 467 560 467 560 467 415 c 0,35,36
 467 350 467 350 442 274 c 0,37,38
 397 138 397 138 287 86 c 1,39,-1
 648 86 l 2,40,41
 836 86 836 86 908 174 c 1,42,-1
 900 20 l 1,43,-1
 291 20 l 2,44,45
 102 20 102 20 30 -68 c 1,46,-1
 39 86 l 1,47,-1
 131 86 l 2,48,49
 211 86 211 86 268 150 c 128,-1,50
 325 214 325 214 342 305 c 0,0,1
EndSplineSet
Validated: 33
EndChar

StartChar: currency
Encoding: 164 164 102
Width: 1266
GlyphClass: 2
Flags: W
LayerCount: 2
Fore
SplineSet
233 1100 m 1,0,-1
 360 979 l 1,1,2
 485 1073 485 1073 635 1073 c 0,3,4
 789 1073 789 1073 913 979 c 1,5,-1
 1034 1100 l 1,6,-1
 1100 1032 l 1,7,-1
 979 914 l 1,8,9
 1073 786 1073 786 1073 635 c 0,10,11
 1073 486 1073 486 979 361 c 1,12,-1
 1100 236 l 1,13,-1
 1034 172 l 1,14,-1
 913 293 l 1,15,16
 789 197 789 197 637 197 c 0,17,18
 475 197 475 197 360 293 c 1,19,-1
 233 172 l 1,20,-1
 170 236 l 1,21,-1
 293 359 l 1,22,23
 197 480 197 480 197 635 c 256,24,25
 197 790 197 790 293 914 c 1,26,-1
 170 1032 l 1,27,-1
 233 1100 l 1,0,-1
637 983 m 0,28,29
 546 983 546 983 469 940 c 0,30,31
 291 842 291 842 291 635 c 0,32,33
 291 544 291 544 334 467 c 0,34,35
 436 291 436 291 635 291 c 0,36,37
 711 291 711 291 778 322 c 0,38,39
 981 414 981 414 981 635 c 0,40,41
 981 786 981 786 872 889 c 0,42,43
 775 983 775 983 637 983 c 0,28,29
EndSplineSet
Validated: 1
EndChar

StartChar: yen
Encoding: 165 165 103
Width: 1161
GlyphClass: 2
Flags: W
LayerCount: 2
Fore
SplineSet
426 20 m 1,0,1
 495 45 495 45 495 157 c 2,2,-1
 495 481 l 1,3,-1
 71 481 l 1,4,-1
 71 551 l 1,5,-1
 495 551 l 1,6,-1
 495 729 l 1,7,-1
 71 729 l 1,8,-1
 71 799 l 1,9,-1
 446 799 l 1,10,-1
 102 1325 l 2,11,12
 67 1378 67 1378 37 1413 c 128,-1,13
 7 1448 7 1448 -19 1464 c 1,14,-1
 257 1464 l 1,15,16
 221 1444 221 1444 221 1407 c 0,17,18
 221 1375 221 1375 258 1317 c 2,19,-1
 589 797 l 1,20,-1
 954 1346 l 2,21,22
 979 1384 979 1384 979 1413 c 0,23,24
 979 1446 979 1446 942 1464 c 1,25,-1
 1173 1464 l 1,26,27
 1116 1431 1116 1431 1030 1307 c 2,28,-1
 677 799 l 1,29,-1
 1056 799 l 1,30,-1
 1056 729 l 1,31,-1
 628 729 l 1,32,-1
 628 551 l 1,33,-1
 1056 551 l 1,34,-1
 1056 481 l 1,35,-1
 628 481 l 1,36,-1
 628 157 l 2,37,38
 628 99 628 99 646 66.5 c 128,-1,39
 664 34 664 34 702 20 c 1,40,-1
 426 20 l 1,0,1
EndSplineSet
Validated: 1
EndChar

StartChar: brokenbar
Encoding: 166 166 104
Width: 401
GlyphClass: 2
Flags: W
LayerCount: 2
Fore
SplineSet
150 1505 m 1,0,-1
 252 1505 l 1,1,-1
 252 733 l 1,2,-1
 150 733 l 1,3,-1
 150 1505 l 1,0,-1
150 426 m 1,4,-1
 252 426 l 1,5,-1
 252 -338 l 1,6,-1
 150 -338 l 1,7,-1
 150 426 l 1,4,-1
EndSplineSet
Validated: 1
EndChar

StartChar: section
Encoding: 167 167 105
Width: 1393
GlyphClass: 2
Flags: W
LayerCount: 2
Fore
SplineSet
496 1083 m 1,0,1
 376 1152 376 1152 336 1209 c 0,2,3
 299 1262 299 1262 299 1336 c 0,4,5
 299 1477 299 1477 416 1566 c 0,6,7
 473 1610 473 1610 570.5 1634 c 128,-1,8
 668 1658 668 1658 763 1658 c 0,9,10
 853 1658 853 1658 947 1634.5 c 128,-1,11
 1041 1611 1041 1611 1095 1569 c 1,12,-1
 1038 1460 l 1,13,14
 1009 1520 1009 1520 928 1560.5 c 128,-1,15
 847 1601 847 1601 763 1601 c 0,16,17
 698 1601 698 1601 625 1586 c 128,-1,18
 552 1571 552 1571 514 1544 c 0,19,20
 418 1475 418 1475 418 1371 c 0,21,22
 418 1298 418 1298 475.5 1251 c 128,-1,23
 533 1204 533 1204 674 1141 c 2,24,-1
 836 1069 l 2,25,26
 1130 937 1130 937 1130 713 c 0,27,28
 1130 549 1130 549 946 457 c 1,29,-1
 948 456 l 1,30,-1
 949 455 l 1,31,-1
 951 454 l 1,32,-1
 952 453 l 1,33,-1
 954 452 l 1,34,-1
 955 451 l 1,35,-1
 957 450 l 1,36,-1
 959 449 l 1,37,-1
 960 448 l 1,38,-1
 962 447 l 1,39,-1
 963 446 l 1,40,-1
 965 445 l 1,41,-1
 966 444 l 1,42,-1
 968 443 l 1,43,-1
 969 442 l 1,44,-1
 971 441 l 1,45,-1
 972 440 l 1,46,-1
 974 439 l 1,47,-1
 975 438 l 1,48,-1
 977 437 l 1,49,-1
 978 436 l 1,50,-1
 980 435 l 1,51,-1
 981 434 l 1,52,-1
 982 433 l 1,53,-1
 984 432 l 1,54,-1
 985 431 l 1,55,-1
 987 430 l 1,56,-1
 988 429 l 1,57,-1
 989 429 l 1,58,-1
 991 428 l 1,59,-1
 992 427 l 1,60,-1
 994 426 l 1,61,-1
 995 425 l 1,62,-1
 996 424 l 1,63,64
 1084 364 1084 364 1108 311 c 0,65,66
 1124 278 1124 278 1124 235 c 0,67,68
 1124 72 1124 72 983 -23 c 0,69,70
 929 -60 929 -60 835.5 -80.5 c 128,-1,71
 742 -101 742 -101 654 -101 c 0,72,73
 556 -101 556 -101 452 -77.5 c 128,-1,74
 348 -54 348 -54 283 -11 c 1,75,-1
 324 128 l 1,76,77
 356 53 356 53 452 4.5 c 128,-1,78
 548 -44 548 -44 660 -44 c 0,79,80
 716 -44 716 -44 782.5 -32 c 128,-1,81
 849 -20 849 -20 884 1 c 0,82,83
 1003 68 1003 68 1003 190 c 0,84,85
 1003 253 1003 253 949 296.5 c 128,-1,86
 895 340 895 340 754 410 c 2,87,-1
 516 526 l 2,88,89
 276 643 276 643 276 803 c 0,90,91
 276 975 276 975 496 1083 c 1,0,1
883 494 m 1,92,93
 1009 559 1009 559 1009 670 c 0,94,95
 1009 852 1009 852 717 981 c 2,96,-1
 577 1042 l 1,97,-1
 557 1051 l 1,98,99
 387 973 387 973 387 852 c 0,100,101
 387 737 387 737 606 629 c 2,102,-1
 836 518 l 2,103,104
 850 510 850 510 883 494 c 1,92,93
EndSplineSet
Validated: 1
EndChar

StartChar: dieresis
Encoding: 168 168 106
Width: 1024
GlyphClass: 2
Flags: W
LayerCount: 2
Fore
SplineSet
332 1437 m 256,0,1
 424 1437 424 1437 424 1345 c 256,2,3
 424 1253 424 1253 334 1253 c 0,4,5
 240 1253 240 1253 240 1345 c 256,6,7
 240 1437 240 1437 332 1437 c 256,0,1
692 1437 m 0,8,9
 786 1437 786 1437 786 1345 c 256,10,11
 786 1253 786 1253 694 1253 c 256,12,13
 602 1253 602 1253 602 1345 c 256,14,15
 602 1437 602 1437 692 1437 c 0,8,9
EndSplineSet
Validated: 1
EndChar

StartChar: copyright
Encoding: 169 169 107
Width: 2048
GlyphClass: 2
Flags: W
LayerCount: 2
Fore
SplineSet
1028 1497 m 0,0,1
 801 1497 801 1497 614 1374 c 0,2,3
 276 1156 276 1156 276 747 c 0,4,5
 276 527 276 527 399 340 c 0,6,7
 620 2 620 2 1026 2 c 0,8,9
 1248 2 1248 2 1437 127 c 0,10,11
 1771 350 1771 350 1771 749 c 0,12,13
 1771 906 1771 906 1703 1056 c 0,14,15
 1559 1373 1559 1373 1228 1468 c 0,16,17
 1123 1497 1123 1497 1028 1497 c 0,0,1
1019 1585 m 0,18,19
 1287 1585 1287 1585 1513 1427 c 0,20,21
 1863 1178 1863 1178 1863 747 c 0,22,23
 1863 478 1863 478 1697 254 c 0,24,25
 1448 -88 1448 -88 1021 -88 c 0,26,27
 740 -88 740 -88 509 90 c 0,28,29
 184 339 184 339 184 749 c 0,30,31
 184 947 184 947 280 1130 c 0,32,33
 454 1463 454 1463 815 1558 c 0,34,35
 915 1585 915 1585 1019 1585 c 0,18,19
688 758 m 0,36,37
 688 547 688 547 780 424 c 0,38,39
 881 289 881 289 1052 289 c 0,40,41
 1118 289 1118 289 1203.5 323 c 128,-1,42
 1289 357 1289 357 1335 403 c 0,43,44
 1367 434 1367 434 1389 476 c 1,45,-1
 1389 326 l 1,46,47
 1379 321 1379 321 1364 311 c 0,48,49
 1305 270 1305 270 1210.5 239.5 c 128,-1,50
 1116 209 1116 209 1046 209 c 0,51,52
 731 209 731 209 593 494 c 0,53,54
 534 616 534 616 534 754 c 0,55,56
 534 885 534 885 595 1011 c 0,57,58
 733 1296 733 1296 1048 1296 c 0,59,60
 1118 1296 1118 1296 1212.5 1265.5 c 128,-1,61
 1307 1235 1307 1235 1366 1194 c 0,62,63
 1381 1184 1381 1184 1391 1179 c 1,64,-1
 1391 1029 l 1,65,66
 1369 1071 1369 1071 1337 1102 c 0,67,68
 1291 1148 1291 1148 1205.5 1182 c 128,-1,69
 1120 1216 1120 1216 1054 1216 c 0,70,71
 881 1216 881 1216 782 1081 c 0,72,73
 688 952 688 952 688 758 c 0,36,37
EndSplineSet
Validated: 1
EndChar

StartChar: ordfeminine
Encoding: 170 170 108
Width: 856
GlyphClass: 2
Flags: W
LayerCount: 2
Fore
SplineSet
516 1175 m 1,0,-1
 492 1173 l 1,1,2
 259 1158 259 1158 259 1016 c 0,3,4
 259 893 259 893 376 893 c 0,5,6
 384 893 384 893 393 894 c 0,7,8
 481 900 481 900 533 973 c 0,9,10
 553 1001 553 1001 553 1018 c 2,11,-1
 553 1177 l 1,12,-1
 516 1175 l 1,0,-1
546 1322 m 1,13,14
 517 1439 517 1439 396 1439 c 0,15,16
 349 1439 349 1439 303 1418.5 c 128,-1,17
 257 1398 257 1398 243 1371 c 1,18,-1
 192 1439 l 1,19,20
 228 1464 228 1464 290.5 1481.5 c 128,-1,21
 353 1499 353 1499 409 1499 c 0,22,23
 530 1499 530 1499 597 1440.5 c 128,-1,24
 664 1382 664 1382 664 1269 c 2,25,-1
 664 882 l 2,26,27
 664 860 664 860 673 845 c 1,28,-1
 566 845 l 1,29,-1
 566 921 l 1,30,31
 482 825 482 825 362 823 c 0,32,33
 359 823 359 823 357 823 c 0,34,35
 144 823 144 823 144 1005 c 0,36,37
 144 1148 144 1148 295 1198 c 0,38,39
 364 1221 364 1221 496 1235 c 2,40,-1
 545 1240 l 1,41,-1
 553 1241 l 1,42,-1
 553 1259 l 1,43,-1
 553 1275 l 1,44,-1
 552 1277 l 1,45,-1
 551 1289 l 1,46,-1
 550 1298 l 1,47,-1
 549 1304 l 1,48,-1
 548 1311 l 1,49,-1
 547 1317 l 1,50,-1
 546 1322 l 1,13,14
117 715 m 1,51,-1
 742 715 l 1,52,-1
 742 639 l 1,53,-1
 117 639 l 1,54,-1
 117 715 l 1,51,-1
EndSplineSet
Validated: 1
EndChar

StartChar: guillemotleft
Encoding: 171 171 109
Width: 1036
GlyphClass: 2
Flags: W
LayerCount: 2
Fore
SplineSet
451 1026 m 1,0,-1
 506 1004 l 1,1,-1
 307 607 l 1,2,-1
 506 207 l 1,3,-1
 455 183 l 1,4,-1
 166 584 l 1,5,-1
 166 625 l 1,6,-1
 451 1026 l 1,0,-1
830 1026 m 1,7,-1
 885 1004 l 1,8,-1
 684 607 l 1,9,-1
 885 207 l 1,10,-1
 832 183 l 1,11,-1
 543 584 l 1,12,-1
 543 625 l 1,13,-1
 830 1026 l 1,7,-1
EndSplineSet
Validated: 1
EndChar

StartChar: logicalnot
Encoding: 172 172 110
Width: 1389
GlyphClass: 2
Flags: W
LayerCount: 2
Fore
SplineSet
1153 801 m 1,0,-1
 1153 328 l 1,1,-1
 1051 328 l 1,2,-1
 1051 705 l 1,3,-1
 144 705 l 1,4,-1
 144 801 l 1,5,-1
 1153 801 l 1,0,-1
EndSplineSet
Validated: 1
EndChar

StartChar: uni00AD
Encoding: 173 173 111
Width: 1389
GlyphClass: 2
Flags: W
LayerCount: 2
Fore
SplineSet
143 700 m 1,0,-1
 1245 700 l 1,1,-1
 1245 604 l 1,2,-1
 143 604 l 1,3,-1
 143 700 l 1,0,-1
EndSplineSet
Validated: 1
EndChar

StartChar: registered
Encoding: 174 174 112
Width: 2048
GlyphClass: 2
Flags: W
LayerCount: 2
Fore
SplineSet
1028 1497 m 0,0,1
 801 1497 801 1497 614 1374 c 0,2,3
 276 1156 276 1156 276 747 c 0,4,5
 276 527 276 527 399 340 c 0,6,7
 620 2 620 2 1026 2 c 0,8,9
 1248 2 1248 2 1437 127 c 0,10,11
 1771 350 1771 350 1771 749 c 0,12,13
 1771 906 1771 906 1703 1056 c 0,14,15
 1559 1373 1559 1373 1228 1468 c 0,16,17
 1123 1497 1123 1497 1028 1497 c 0,0,1
1019 1585 m 0,18,19
 1287 1585 1287 1585 1513 1427 c 0,20,21
 1863 1178 1863 1178 1863 747 c 0,22,23
 1863 478 1863 478 1697 254 c 0,24,25
 1448 -88 1448 -88 1021 -88 c 0,26,27
 740 -88 740 -88 509 90 c 0,28,29
 184 339 184 339 184 749 c 0,30,31
 184 947 184 947 280 1130 c 0,32,33
 454 1463 454 1463 815 1558 c 0,34,35
 915 1585 915 1585 1019 1585 c 0,18,19
856 797 m 1,36,-1
 979 797 l 2,37,38
 1292 797 1292 797 1292 998 c 0,39,40
 1292 1200 1292 1200 1028 1200 c 2,41,-1
 981 1200 l 2,42,43
 913 1200 913 1200 889 1188 c 0,44,45
 856 1173 856 1173 856 1100 c 2,46,-1
 856 797 l 1,36,-1
677 246 m 1,47,48
 694 251 694 251 704 258 c 0,49,50
 729 277 729 277 729 338 c 2,51,-1
 729 1180 l 2,52,53
 729 1248 729 1248 700 1264 c 0,54,55
 687 1271 687 1271 664 1276 c 1,56,-1
 1042 1276 l 2,57,58
 1425 1276 1425 1276 1425 1010 c 0,59,60
 1425 889 1425 889 1329 811 c 0,61,62
 1260 757 1260 757 1149 748 c 1,63,64
 1216 715 1216 715 1276 631 c 0,65,66
 1305 587 1305 587 1397 416 c 0,67,68
 1433 347 1433 347 1456 330 c 0,69,70
 1484 312 1484 312 1550 312 c 1,71,-1
 1550 246 l 1,72,-1
 1325 246 l 1,73,74
 1218 526 1218 526 1100 658 c 0,75,76
 1040 723 1040 723 940 723 c 2,77,-1
 856 723 l 1,78,-1
 856 338 l 2,79,80
 856 277 856 277 883 256 c 0,81,82
 892 250 892 250 906 246 c 1,83,-1
 677 246 l 1,47,48
EndSplineSet
Validated: 1
EndChar

StartChar: macron
Encoding: 175 175 113
Width: 1024
GlyphClass: 2
Flags: W
LayerCount: 2
Fore
SplineSet
254 1366 m 1,0,-1
 772 1366 l 1,1,-1
 772 1276 l 1,2,-1
 254 1276 l 1,3,-1
 254 1366 l 1,0,-1
EndSplineSet
Validated: 1
EndChar

StartChar: degree
Encoding: 176 176 114
Width: 614
GlyphClass: 2
Flags: W
LayerCount: 2
Fore
SplineSet
305 1710 m 0,0,1
 357 1710 357 1710 403 1685 c 0,2,3
 522 1628 522 1628 522 1495 c 0,4,5
 522 1418 522 1418 469 1356 c 0,6,7
 405 1280 405 1280 307 1280 c 0,8,9
 268 1280 268 1280 225 1296 c 0,10,11
 92 1352 92 1352 92 1495 c 0,12,13
 92 1608 92 1608 188 1673 c 0,14,15
 244 1710 244 1710 305 1710 c 0,0,1
307 1653 m 0,16,17
 269 1653 269 1653 227 1630 c 0,18,19
 149 1584 149 1584 149 1495 c 0,20,21
 149 1454 149 1454 172 1415 c 0,22,23
 218 1337 218 1337 307 1337 c 0,24,25
 367 1337 367 1337 414 1380 c 0,26,27
 465 1425 465 1425 465 1495 c 0,28,29
 465 1571 465 1571 405 1618 c 0,30,31
 361 1653 361 1653 307 1653 c 0,16,17
EndSplineSet
Validated: 1
EndChar

StartChar: plusminus
Encoding: 177 177 115
Width: 1389
GlyphClass: 2
Flags: W
LayerCount: 2
Fore
SplineSet
143 252 m 1,0,-1
 1245 252 l 1,1,-1
 1245 156 l 1,2,-1
 143 156 l 1,3,-1
 143 252 l 1,0,-1
747 780 m 1,4,-1
 747 350 l 1,5,-1
 645 350 l 1,6,-1
 645 780 l 1,7,-1
 143 780 l 1,8,-1
 143 874 l 1,9,-1
 645 874 l 1,10,-1
 645 1279 l 1,11,-1
 747 1279 l 1,12,-1
 747 874 l 1,13,-1
 1245 874 l 1,14,-1
 1245 780 l 1,15,-1
 747 780 l 1,4,-1
EndSplineSet
Validated: 1
EndChar

StartChar: uni00B2
Encoding: 178 178 116
Width: 487
GlyphClass: 2
Flags: W
LayerCount: 2
Fore
SplineSet
458 806 m 1,0,-1
 448 725 l 1,1,-1
 24 725 l 1,2,-1
 24 766 l 1,3,4
 43 848 43 848 84.5 918 c 128,-1,5
 126 988 126 988 207 1054 c 2,6,-1
 224 1068 l 1,7,8
 307 1131 307 1131 334 1170 c 0,9,10
 374 1223 374 1223 374 1282 c 0,11,12
 374 1364 374 1364 320 1405 c 0,13,14
 282 1434 282 1434 227 1434 c 0,15,16
 184 1434 184 1434 147 1418 c 128,-1,17
 110 1402 110 1402 90 1374 c 0,18,19
 70 1344 70 1344 68 1311 c 2,20,-1
 65 1408 l 1,21,22
 95 1438 95 1438 139 1455 c 128,-1,23
 183 1472 183 1472 230 1472 c 0,24,25
 321 1472 321 1472 382 1426 c 0,26,27
 453 1371 453 1371 454 1277 c 0,28,29
 454 1212 454 1212 416 1160 c 0,30,31
 380 1109 380 1109 278 1042 c 2,32,-1
 249 1024 l 2,33,34
 171 974 171 974 133 917 c 128,-1,35
 95 860 95 860 78 788 c 1,36,-1
 384 788 l 2,37,38
 435 788 435 788 458 806 c 1,0,-1
EndSplineSet
Validated: 1
EndChar

StartChar: uni00B3
Encoding: 179 179 117
Width: 481
GlyphClass: 2
Flags: W
LayerCount: 2
Fore
SplineSet
38 1427 m 1,0,1
 42 1431 42 1431 47 1434 c 0,2,3
 111 1479 111 1479 204 1479 c 0,4,5
 320 1479 320 1479 380 1420 c 0,6,7
 428 1371 428 1371 428 1298 c 0,8,9
 428 1152 428 1152 262 1118 c 1,10,-1
 262 1110 l 1,11,12
 448 1074 448 1074 448 920 c 0,13,14
 448 836 448 836 390 778 c 0,15,16
 320 706 320 706 189 706 c 0,17,18
 146 706 146 706 101.5 716 c 128,-1,19
 57 726 57 726 28 745 c 1,20,-1
 28 801 l 1,21,22
 32 796 32 796 37 790 c 0,23,24
 59 770 59 770 99.5 759 c 128,-1,25
 140 748 140 748 181 748 c 0,26,27
 270 748 270 748 321 799 c 0,28,29
 370 848 370 848 370 922 c 0,30,31
 370 992 370 992 324 1038 c 0,32,33
 274 1088 274 1088 187 1088 c 2,34,-1
 136 1088 l 1,35,-1
 136 1129 l 1,36,-1
 187 1129 l 2,37,38
 258 1129 258 1129 304 1175 c 0,39,40
 353 1224 353 1224 354 1299 c 0,41,42
 354 1360 354 1360 314 1398 c 0,43,44
 272 1440 272 1440 196 1440 c 0,45,46
 119 1440 119 1440 72 1402 c 0,47,48
 47 1383 47 1383 38 1356 c 1,49,-1
 38 1427 l 1,0,1
EndSplineSet
Validated: 1
EndChar

StartChar: acute
Encoding: 180 180 118
Width: 1024
GlyphClass: 2
Flags: W
LayerCount: 2
Fore
SplineSet
672 1505 m 1,0,-1
 770 1407 l 1,1,-1
 465 1206 l 1,2,-1
 422 1251 l 1,3,-1
 672 1505 l 1,0,-1
EndSplineSet
Validated: 1
EndChar

StartChar: mu
Encoding: 181 181 119
Width: 1119
GlyphClass: 2
Flags: W
LayerCount: 2
Fore
SplineSet
915 920 m 2,0,1
 915 1014 915 1014 864 1033 c 1,2,3
 956 1041 956 1041 1048 1059 c 1,4,-1
 1048 145 l 2,5,6
 1048 66 1048 66 1091 38 c 1,7,-1
 927 38 l 1,8,-1
 917 204 l 1,9,10
 854 99 854 99 778 49.5 c 128,-1,11
 702 0 702 0 593 0 c 0,12,13
 487 0 487 0 412 43 c 128,-1,14
 337 86 337 86 277 176 c 1,15,-1
 277 -246 l 2,16,17
 277 -327 277 -327 319 -352 c 1,18,-1
 100 -352 l 1,19,20
 140 -329 140 -329 140 -246 c 2,21,-1
 140 897 l 2,22,23
 140 998 140 998 93 1014 c 1,24,25
 191 1022 191 1022 273 1041 c 1,26,-1
 277 336 l 2,27,28
 278 239 278 239 398 150 c 0,29,30
 488 84 488 84 595 84 c 0,31,32
 657 84 657 84 711 106 c 128,-1,33
 765 128 765 128 804.5 166 c 128,-1,34
 844 204 844 204 872.5 252.5 c 128,-1,35
 901 301 901 301 915 356 c 1,36,-1
 915 920 l 2,0,1
EndSplineSet
Validated: 1
EndChar

StartChar: paragraph
Encoding: 182 182 120
Width: 1069
GlyphClass: 2
Flags: W
LayerCount: 2
Fore
SplineSet
460 -139 m 1,0,-1
 460 987 l 1,1,2
 323 990 323 990 231 1061 c 0,3,4
 98 1163 98 1163 98 1335 c 0,5,6
 98 1545 98 1545 282 1647 c 0,7,8
 374 1696 374 1696 505 1696 c 2,9,-1
 917 1696 l 1,10,-1
 917 -139 l 1,11,-1
 823 -139 l 1,12,-1
 823 1614 l 1,13,-1
 554 1614 l 1,14,-1
 554 -139 l 1,15,-1
 460 -139 l 1,0,-1
EndSplineSet
Validated: 1
EndChar

StartChar: periodcentered
Encoding: 183 183 121
Width: 487
GlyphClass: 2
Flags: W
LayerCount: 2
Fore
SplineSet
248 712 m 0,0,1
 272 712 272 712 297 700 c 0,2,3
 358 669 358 669 358 600 c 0,4,5
 358 566 358 566 340 538 c 0,6,7
 306 489 306 489 248 489 c 0,8,9
 200 489 200 489 166 524 c 0,10,11
 135 558 135 558 135 600 c 0,12,13
 135 654 135 654 178 687 c 0,14,15
 209 712 209 712 248 712 c 0,0,1
EndSplineSet
Validated: 1
EndChar

StartChar: cedilla
Encoding: 184 184 122
Width: 1024
GlyphClass: 2
Flags: W
LayerCount: 2
Fore
SplineSet
448 20 m 1,0,-1
 551 20 l 1,1,-1
 491 -115 l 1,2,3
 721 -118 721 -118 721 -279 c 0,4,5
 721 -474 721 -474 326 -477 c 1,6,-1
 303 -403 l 1,7,8
 590 -400 590 -400 590 -276 c 0,9,10
 590 -179 590 -179 379 -176 c 1,11,-1
 379 -141 l 1,12,-1
 448 20 l 1,0,-1
EndSplineSet
Validated: 1
EndChar

StartChar: uni00B9
Encoding: 185 185 123
Width: 277
GlyphClass: 2
Flags: W
LayerCount: 2
Fore
SplineSet
206 792 m 2,0,1
 206 737 206 737 247 725 c 1,2,-1
 94 725 l 1,3,4
 134 738 134 738 134 792 c 2,5,-1
 134 1357 l 2,6,7
 134 1375 134 1375 129 1387 c 1,8,9
 92 1374 92 1374 30 1367 c 1,10,-1
 30 1410 l 1,11,12
 81 1416 81 1416 115.5 1426.5 c 128,-1,13
 150 1437 150 1437 164 1446 c 128,-1,14
 178 1455 178 1455 206 1477 c 1,15,-1
 206 792 l 2,0,1
EndSplineSet
Validated: 1
EndChar

StartChar: ordmasculine
Encoding: 186 186 124
Width: 856
GlyphClass: 2
Flags: W
LayerCount: 2
Fore
SplineSet
430 1503 m 0,0,1
 595 1503 595 1503 686 1384 c 0,2,3
 754 1295 754 1295 754 1169 c 256,4,5
 754 1043 754 1043 689 952 c 0,6,7
 599 829 599 829 430 829 c 0,8,9
 313 829 313 829 230 897 c 0,10,11
 111 994 111 994 111 1169 c 0,12,13
 111 1323 111 1323 215 1421 c 0,14,15
 300 1503 300 1503 430 1503 c 0,0,1
430 1439 m 0,16,17
 230 1439 230 1439 230 1169 c 0,18,19
 230 892 230 892 430 892 c 0,20,21
 633 892 633 892 633 1169 c 0,22,23
 633 1439 633 1439 430 1439 c 0,16,17
117 715 m 1,24,-1
 742 715 l 1,25,-1
 742 639 l 1,26,-1
 117 639 l 1,27,-1
 117 715 l 1,24,-1
EndSplineSet
Validated: 1
EndChar

StartChar: guillemotright
Encoding: 187 187 125
Width: 1036
GlyphClass: 2
Flags: W
LayerCount: 2
Fore
SplineSet
586 1026 m 1,0,-1
 873 625 l 1,1,-1
 873 584 l 1,2,-1
 584 183 l 1,3,-1
 533 207 l 1,4,-1
 732 607 l 1,5,-1
 533 1004 l 1,6,-1
 586 1026 l 1,0,-1
209 1026 m 1,7,-1
 496 625 l 1,8,-1
 496 584 l 1,9,-1
 205 183 l 1,10,-1
 154 207 l 1,11,-1
 353 607 l 1,12,-1
 154 1004 l 1,13,-1
 209 1026 l 1,7,-1
EndSplineSet
Validated: 1
EndChar

StartChar: onequarter
Encoding: 188 188 126
Width: 487
GlyphClass: 2
Flags: W
LayerCount: 2
Fore
SplineSet
0 779 m 1,0,-1
 487 779 l 1,1,-1
 487 743 l 1,2,-1
 0 743 l 1,3,-1
 0 779 l 1,0,-1
286 932 m 2,4,5
 286 877 286 877 327 865 c 1,6,-1
 174 865 l 1,7,8
 214 878 214 878 214 932 c 2,9,-1
 214 1457 l 2,10,11
 214 1476 214 1476 209 1487 c 1,12,13
 172 1474 172 1474 110 1467 c 1,14,-1
 110 1510 l 1,15,16
 161 1516 161 1516 195.5 1526.5 c 128,-1,17
 230 1537 230 1537 244 1546 c 128,-1,18
 258 1555 258 1555 286 1577 c 1,19,-1
 286 932 l 2,4,5
332 164 m 1,20,-1
 332 549 l 1,21,-1
 62 164 l 1,22,-1
 332 164 l 1,20,-1
298 -80 m 1,23,24
 332 -67 332 -67 332 -12 c 2,25,-1
 332 120 l 1,26,-1
 10 120 l 1,27,-1
 10 169 l 1,28,-1
 359 654 l 1,29,-1
 397 654 l 1,30,-1
 397 164 l 1,31,-1
 465 164 l 1,32,-1
 465 120 l 1,33,-1
 397 120 l 1,34,-1
 397 -12 l 2,35,36
 397 -43 397 -43 404 -58.5 c 128,-1,37
 411 -74 411 -74 430 -80 c 1,38,-1
 298 -80 l 1,23,24
EndSplineSet
Validated: 1
EndChar

StartChar: onehalf
Encoding: 189 189 127
Width: 487
GlyphClass: 2
Flags: W
LayerCount: 2
Fore
SplineSet
0 779 m 1,0,-1
 487 779 l 1,1,-1
 487 743 l 1,2,-1
 0 743 l 1,3,-1
 0 779 l 1,0,-1
458 1 m 1,4,-1
 448 -80 l 1,5,-1
 24 -80 l 1,6,-1
 24 -39 l 1,7,8
 43 43 43 43 84.5 113 c 128,-1,9
 126 183 126 183 207 249 c 2,10,-1
 224 262 l 2,11,12
 307 326 307 326 334 364 c 0,13,14
 374 418 374 418 374 477 c 0,15,16
 374 559 374 559 320 600 c 0,17,18
 282 629 282 629 227 630 c 0,19,20
 184 630 184 630 147 613.5 c 128,-1,21
 110 597 110 597 90 568 c 0,22,23
 70 538 70 538 68 506 c 2,24,-1
 65 603 l 1,25,26
 95 633 95 633 139 650.5 c 128,-1,27
 183 668 183 668 230 668 c 0,28,29
 321 668 321 668 382 620 c 0,30,31
 453 566 453 566 454 472 c 0,32,33
 454 408 454 408 416 354 c 0,34,35
 380 304 380 304 278 238 c 2,36,-1
 249 219 l 2,37,38
 171 169 171 169 133 112 c 128,-1,39
 95 55 95 55 78 -18 c 1,40,-1
 384 -18 l 2,41,42
 435 -18 435 -18 458 1 c 1,4,-1
286 932 m 2,43,44
 286 877 286 877 327 865 c 1,45,-1
 174 865 l 1,46,47
 214 878 214 878 214 932 c 2,48,-1
 214 1457 l 2,49,50
 214 1476 214 1476 209 1487 c 1,51,52
 172 1474 172 1474 110 1467 c 1,53,-1
 110 1510 l 1,54,55
 161 1516 161 1516 195.5 1526.5 c 128,-1,56
 230 1537 230 1537 244 1546 c 128,-1,57
 258 1555 258 1555 286 1577 c 1,58,-1
 286 932 l 2,43,44
EndSplineSet
Validated: 1
EndChar

StartChar: threequarters
Encoding: 190 190 128
Width: 487
GlyphClass: 2
Flags: W
LayerCount: 2
Fore
SplineSet
54 1512 m 1,0,1
 59 1515 59 1515 63 1518 c 0,2,3
 127 1559 127 1559 220 1559 c 0,4,5
 336 1559 336 1559 396 1505 c 0,6,7
 445 1461 445 1461 445 1395 c 0,8,9
 445 1263 445 1263 278 1232 c 1,10,-1
 278 1226 l 1,11,12
 464 1193 464 1193 464 1054 c 0,13,14
 464 978 464 978 406 926 c 0,15,16
 335 861 335 861 205 861 c 0,17,18
 162 861 162 861 117.5 870 c 128,-1,19
 73 879 73 879 44 896 c 1,20,-1
 44 947 l 1,21,22
 48 942 48 942 53 937 c 0,23,24
 75 919 75 919 115.5 908.5 c 128,-1,25
 156 898 156 898 197 898 c 0,26,27
 286 898 286 898 337 945 c 0,28,29
 386 989 386 989 386 1056 c 0,30,31
 386 1119 386 1119 340 1160 c 0,32,33
 290 1206 290 1206 203 1206 c 2,34,-1
 152 1206 l 1,35,-1
 152 1243 l 1,36,-1
 203 1243 l 2,37,38
 275 1243 275 1243 321 1284 c 0,39,40
 370 1329 370 1329 370 1396 c 0,41,42
 370 1451 370 1451 330 1486 c 0,43,44
 288 1523 288 1523 212 1523 c 256,45,46
 136 1523 136 1523 89 1489 c 0,47,48
 64 1472 64 1472 54 1448 c 1,49,-1
 54 1512 l 1,0,1
0 779 m 1,50,-1
 487 779 l 1,51,-1
 487 743 l 1,52,-1
 0 743 l 1,53,-1
 0 779 l 1,50,-1
332 164 m 1,54,-1
 332 549 l 1,55,-1
 62 164 l 1,56,-1
 332 164 l 1,54,-1
298 -80 m 1,57,58
 332 -67 332 -67 332 -12 c 2,59,-1
 332 120 l 1,60,-1
 10 120 l 1,61,-1
 10 169 l 1,62,-1
 359 654 l 1,63,-1
 397 654 l 1,64,-1
 397 164 l 1,65,-1
 465 164 l 1,66,-1
 465 120 l 1,67,-1
 397 120 l 1,68,-1
 397 -12 l 2,69,70
 397 -43 397 -43 404 -58.5 c 128,-1,71
 411 -74 411 -74 430 -80 c 1,72,-1
 298 -80 l 1,57,58
EndSplineSet
Validated: 1
EndChar

StartChar: questiondown
Encoding: 191 191 129
Width: 888
GlyphClass: 2
Flags: W
LayerCount: 2
Fore
SplineSet
513 1249 m 0,0,1
 468 1249 468 1249 436 1282 c 0,2,3
 401 1317 401 1317 401 1364 c 0,4,5
 401 1476 401 1476 513 1476 c 0,6,7
 628 1476 628 1476 628 1364 c 0,8,9
 628 1319 628 1319 593 1284 c 0,10,11
 559 1249 559 1249 513 1249 c 0,0,1
818 123 m 1,12,13
 759 63 759 63 673.5 31.5 c 128,-1,14
 588 0 588 0 493 0 c 0,15,16
 390 0 390 0 300.5 30.5 c 128,-1,17
 211 61 211 61 153 119 c 0,18,19
 55 214 55 214 55 372 c 0,20,21
 55 572 55 572 270 716 c 2,22,-1
 333 759 l 2,23,24
 483 859 483 859 483 1039 c 2,25,-1
 483 1086 l 1,26,-1
 565 1086 l 1,27,-1
 565 1035 l 2,28,29
 565 846 565 846 427 718 c 2,30,-1
 390 683 l 2,31,32
 285 583 285 583 254 534 c 0,33,34
 213 468 213 468 213 376 c 0,35,36
 213 241 213 241 293 158 c 0,37,38
 330 118 330 118 389 97 c 128,-1,39
 448 76 448 76 511 76 c 0,40,41
 579 76 579 76 644 101.5 c 128,-1,42
 709 127 709 127 752 174 c 0,43,44
 804 235 804 235 813 313 c 1,45,-1
 818 123 l 1,12,13
EndSplineSet
Validated: 1
EndChar

StartChar: Agrave
Encoding: 192 192 130
Width: 1323
GlyphClass: 2
Flags: W
LayerCount: 2
Fore
SplineSet
425 1876 m 1,0,-1
 704 1616 l 1,1,-1
 659 1563 l 1,2,-1
 325 1776 l 1,3,-1
 425 1876 l 1,0,-1
205 20 m 1,4,-1
 -18 20 l 1,5,6
 55 58 55 58 95 159 c 2,7,-1
 624 1487 l 1,8,-1
 679 1487 l 1,9,-1
 1221 147 l 2,10,11
 1258 56 1258 56 1336 20 c 1,12,-1
 1050 20 l 1,13,14
 1084 38 1084 38 1084 69 c 0,15,16
 1084 116 1084 116 1063 167 c 2,17,-1
 915 526 l 1,18,-1
 337 526 l 1,19,-1
 196 157 l 2,20,21
 173 97 173 97 173 67 c 128,-1,22
 173 37 173 37 205 20 c 1,4,-1
888 604 m 1,23,-1
 626 1261 l 1,24,-1
 366 604 l 1,25,-1
 888 604 l 1,23,-1
EndSplineSet
EndChar

StartChar: Aacute
Encoding: 193 193 131
Width: 1323
GlyphClass: 2
Flags: W
LayerCount: 2
Fore
SplineSet
845 1876 m 1,0,-1
 943 1776 l 1,1,-1
 612 1563 l 1,2,-1
 565 1616 l 1,3,-1
 845 1876 l 1,0,-1
205 20 m 1,4,-1
 -18 20 l 1,5,6
 55 58 55 58 95 159 c 2,7,-1
 624 1487 l 1,8,-1
 679 1487 l 1,9,-1
 1221 147 l 2,10,11
 1258 56 1258 56 1336 20 c 1,12,-1
 1050 20 l 1,13,14
 1084 38 1084 38 1084 69 c 0,15,16
 1084 116 1084 116 1063 167 c 2,17,-1
 915 526 l 1,18,-1
 337 526 l 1,19,-1
 196 157 l 2,20,21
 173 97 173 97 173 67 c 128,-1,22
 173 37 173 37 205 20 c 1,4,-1
888 604 m 1,23,-1
 626 1261 l 1,24,-1
 366 604 l 1,25,-1
 888 604 l 1,23,-1
EndSplineSet
EndChar

StartChar: Acircumflex
Encoding: 194 194 132
Width: 1323
GlyphClass: 2
Flags: W
LayerCount: 2
Fore
SplineSet
597 1851 m 1,0,-1
 694 1851 l 1,1,-1
 925 1638 l 1,2,-1
 876 1595 l 1,3,-1
 647 1747 l 1,4,-1
 415 1595 l 1,5,-1
 366 1638 l 1,6,-1
 597 1851 l 1,0,-1
205 20 m 1,7,-1
 -18 20 l 1,8,9
 55 58 55 58 95 159 c 2,10,-1
 624 1487 l 1,11,-1
 679 1487 l 1,12,-1
 1221 147 l 2,13,14
 1258 56 1258 56 1336 20 c 1,15,-1
 1050 20 l 1,16,17
 1084 38 1084 38 1084 69 c 0,18,19
 1084 116 1084 116 1063 167 c 2,20,-1
 915 526 l 1,21,-1
 337 526 l 1,22,-1
 196 157 l 2,23,24
 173 97 173 97 173 67 c 128,-1,25
 173 37 173 37 205 20 c 1,7,-1
888 604 m 1,26,-1
 626 1261 l 1,27,-1
 366 604 l 1,28,-1
 888 604 l 1,26,-1
EndSplineSet
EndChar

StartChar: Atilde
Encoding: 195 195 133
Width: 1323
GlyphClass: 2
Flags: W
LayerCount: 2
Fore
SplineSet
354 1661 m 1,0,1
 415 1802 415 1802 538 1802 c 0,2,3
 613 1802 613 1802 716 1736 c 0,4,5
 785 1691 785 1691 843 1691 c 0,6,7
 914 1691 914 1691 960 1774 c 1,8,-1
 1015 1737 l 1,9,10
 956 1597 956 1597 831 1597 c 0,11,12
 752 1597 752 1597 649 1663 c 0,13,14
 580 1708 580 1708 526 1708 c 0,15,16
 449 1708 449 1708 407 1626 c 1,17,-1
 354 1661 l 1,0,1
205 20 m 1,18,-1
 -18 20 l 1,19,20
 55 58 55 58 95 159 c 2,21,-1
 624 1487 l 1,22,-1
 679 1487 l 1,23,-1
 1221 147 l 2,24,25
 1258 56 1258 56 1336 20 c 1,26,-1
 1050 20 l 1,27,28
 1084 38 1084 38 1084 69 c 0,29,30
 1084 116 1084 116 1063 167 c 2,31,-1
 915 526 l 1,32,-1
 337 526 l 1,33,-1
 196 157 l 2,34,35
 173 97 173 97 173 67 c 128,-1,36
 173 37 173 37 205 20 c 1,18,-1
888 604 m 1,37,-1
 626 1261 l 1,38,-1
 366 604 l 1,39,-1
 888 604 l 1,37,-1
EndSplineSet
EndChar

StartChar: Adieresis
Encoding: 196 196 134
Width: 1323
GlyphClass: 2
Flags: W
LayerCount: 2
Fore
SplineSet
429 1803 m 0,0,1
 526 1803 526 1803 526 1706 c 0,2,3
 526 1610 526 1610 429 1610 c 0,4,5
 333 1610 333 1610 333 1706 c 0,6,7
 333 1803 333 1803 429 1803 c 0,0,1
862 1803 m 0,8,9
 958 1803 958 1803 958 1706 c 0,10,11
 958 1610 958 1610 862 1610 c 0,12,13
 765 1610 765 1610 765 1706 c 0,14,15
 765 1803 765 1803 862 1803 c 0,8,9
205 20 m 1,16,-1
 -18 20 l 1,17,18
 55 58 55 58 95 159 c 2,19,-1
 624 1487 l 1,20,-1
 679 1487 l 1,21,-1
 1221 147 l 2,22,23
 1258 56 1258 56 1336 20 c 1,24,-1
 1050 20 l 1,25,26
 1084 38 1084 38 1084 69 c 0,27,28
 1084 116 1084 116 1063 167 c 2,29,-1
 915 526 l 1,30,-1
 337 526 l 1,31,-1
 196 157 l 2,32,33
 173 97 173 97 173 67 c 128,-1,34
 173 37 173 37 205 20 c 1,16,-1
888 604 m 1,35,-1
 626 1261 l 1,36,-1
 366 604 l 1,37,-1
 888 604 l 1,35,-1
EndSplineSet
EndChar

StartChar: Aring
Encoding: 197 197 135
Width: 1323
GlyphClass: 2
Flags: W
LayerCount: 2
Fore
SplineSet
649 1876 m 0,0,1
 685 1876 685 1876 716 1862 c 0,2,3
 812 1818 812 1818 812 1716 c 0,4,5
 812 1660 812 1660 775 1614 c 0,6,7
 725 1554 725 1554 649 1554 c 0,8,9
 609 1554 609 1554 575 1572 c 0,10,11
 485 1619 485 1619 485 1716 c 0,12,13
 485 1792 485 1792 546 1841 c 0,14,15
 594 1876 594 1876 649 1876 c 0,0,1
649 1819 m 0,16,17
 546 1819 546 1819 546 1716 c 0,18,19
 546 1611 546 1611 649 1611 c 0,20,21
 751 1611 751 1611 751 1716 c 0,22,23
 751 1819 751 1819 649 1819 c 0,16,17
205 20 m 1,24,-1
 -18 20 l 1,25,26
 55 58 55 58 95 159 c 2,27,-1
 624 1487 l 1,28,-1
 679 1487 l 1,29,-1
 1221 147 l 2,30,31
 1258 56 1258 56 1336 20 c 1,32,-1
 1050 20 l 1,33,34
 1084 38 1084 38 1084 69 c 0,35,36
 1084 116 1084 116 1063 167 c 2,37,-1
 915 526 l 1,38,-1
 337 526 l 1,39,-1
 196 157 l 2,40,41
 173 97 173 97 173 67 c 128,-1,42
 173 37 173 37 205 20 c 1,24,-1
888 604 m 1,43,-1
 626 1261 l 1,44,-1
 366 604 l 1,45,-1
 888 604 l 1,43,-1
EndSplineSet
EndChar

StartChar: AE
Encoding: 198 198 136
Width: 1842
GlyphClass: 2
Flags: W
LayerCount: 2
Fore
SplineSet
854 1388 m 1,0,-1
 560 793 l 1,1,-1
 881 793 l 1,2,-1
 881 1388 l 1,3,-1
 854 1388 l 1,0,-1
813 20 m 1,4,5
 850 34 850 34 865.5 67.5 c 128,-1,6
 881 101 881 101 881 159 c 2,7,-1
 881 715 l 1,8,-1
 525 715 l 1,9,-1
 232 125 l 2,10,11
 219 99 219 99 219 76 c 0,12,13
 219 39 219 39 281 20 c 1,14,-1
 -16 20 l 1,15,16
 94 59 94 59 154 179 c 2,17,-1
 738 1341 l 2,18,19
 756 1377 756 1377 756 1415 c 0,20,21
 756 1445 756 1445 711 1462 c 1,22,-1
 1776 1462 l 1,23,-1
 1785 1310 l 1,24,25
 1744 1358 1744 1358 1661.5 1378.5 c 128,-1,26
 1579 1399 1579 1399 1451 1399 c 2,27,-1
 1196 1399 l 2,28,29
 1087 1399 1087 1399 1049 1364 c 0,30,31
 1018 1336 1018 1336 1018 1245 c 2,32,-1
 1018 803 l 1,33,-1
 1317 803 l 2,34,35
 1383 803 1383 803 1424.5 818.5 c 128,-1,36
 1466 834 1466 834 1489 869 c 1,37,-1
 1489 668 l 1,38,39
 1447 731 1447 731 1317 731 c 2,40,-1
 1018 731 l 1,41,-1
 1018 239 l 2,42,43
 1018 145 1018 145 1056 115.5 c 128,-1,44
 1094 86 1094 86 1196 86 c 2,45,-1
 1451 86 l 2,46,47
 1599 86 1599 86 1683.5 111.5 c 128,-1,48
 1768 137 1768 137 1812 197 c 1,49,-1
 1800 20 l 1,50,-1
 813 20 l 1,4,5
EndSplineSet
EndChar

StartChar: Ccedilla
Encoding: 199 199 137
Width: 1452
GlyphClass: 2
Flags: W
LayerCount: 2
Fore
SplineSet
251 751 m 0,0,1
 251 509 251 509 351 331 c 0,2,3
 496 73 496 73 794 73 c 0,4,5
 915 73 915 73 1042 113.5 c 128,-1,6
 1169 154 1169 154 1234 226 c 0,7,8
 1301 302 1301 302 1334 403 c 1,9,-1
 1334 138 l 1,10,11
 1327 148 1327 148 1316 148 c 0,12,13
 1300 148 1300 148 1258 119 c 0,14,15
 1181 65 1181 65 1053 33.5 c 128,-1,16
 925 2 925 2 804 -1 c 1,17,-1
 762 -97 l 1,18,19
 947 -99 947 -99 947 -230 c 0,20,21
 947 -388 947 -388 627 -391 c 1,22,-1
 610 -331 l 1,23,24
 841 -328 841 -328 841 -228 c 0,25,26
 841 -149 841 -149 670 -147 c 1,27,-1
 670 -119 l 1,28,-1
 725 1 l 1,29,30
 478 19 478 19 304 194 c 0,31,32
 190 309 190 309 137.5 434 c 128,-1,33
 85 559 85 559 85 735 c 0,34,35
 85 1098 85 1098 306 1320 c 0,36,37
 500 1515 500 1515 785 1515 c 0,38,39
 908 1515 908 1515 1044 1483.5 c 128,-1,40
 1180 1452 1180 1452 1260 1395 c 0,41,42
 1302 1366 1302 1366 1318 1366 c 0,43,44
 1329 1366 1329 1366 1336 1376 c 1,45,-1
 1336 1111 l 1,46,47
 1303 1212 1303 1212 1236 1288 c 0,48,49
 1171 1360 1171 1360 1044 1400.5 c 128,-1,50
 917 1441 917 1441 796 1441 c 0,51,52
 498 1441 498 1441 353 1183 c 0,53,54
 251 1002 251 1002 251 751 c 0,0,1
EndSplineSet
Validated: 1
EndChar

StartChar: Egrave
Encoding: 200 200 138
Width: 1178
GlyphClass: 2
Flags: W
LayerCount: 2
Fore
SplineSet
472 1874 m 1,0,-1
 752 1614 l 1,1,-1
 705 1561 l 1,2,-1
 371 1774 l 1,3,-1
 472 1874 l 1,0,-1
172 1325 m 2,4,5
 172 1389 172 1389 156.5 1419.5 c 128,-1,6
 141 1450 141 1450 101 1464 c 1,7,-1
 1112 1464 l 1,8,-1
 1122 1306 l 1,9,10
 1049 1399 1049 1399 792 1399 c 2,11,-1
 491 1399 l 2,12,13
 389 1399 389 1399 350 1370 c 128,-1,14
 311 1341 311 1341 311 1245 c 2,15,-1
 311 803 l 1,16,-1
 628 803 l 2,17,18
 761 803 761 803 803 871 c 1,19,-1
 803 661 l 1,20,21
 758 731 758 731 628 731 c 2,22,-1
 311 731 l 1,23,-1
 311 241 l 2,24,25
 311 148 311 148 350.5 118 c 128,-1,26
 390 88 390 88 491 88 c 2,27,-1
 792 88 l 2,28,29
 941 88 941 88 1023 112 c 128,-1,30
 1105 136 1105 136 1149 196 c 1,31,-1
 1137 20 l 1,32,-1
 103 20 l 1,33,34
 139 32 139 32 155.5 65 c 128,-1,35
 172 98 172 98 172 157 c 2,36,-1
 172 1325 l 2,4,5
EndSplineSet
Validated: 1
EndChar

StartChar: Eacute
Encoding: 201 201 139
Width: 1178
GlyphClass: 2
Flags: W
LayerCount: 2
Fore
SplineSet
796 1874 m 1,0,-1
 895 1774 l 1,1,-1
 563 1561 l 1,2,-1
 516 1614 l 1,3,-1
 796 1874 l 1,0,-1
172 1325 m 2,4,5
 172 1389 172 1389 156.5 1419.5 c 128,-1,6
 141 1450 141 1450 101 1464 c 1,7,-1
 1112 1464 l 1,8,-1
 1122 1306 l 1,9,10
 1049 1399 1049 1399 792 1399 c 2,11,-1
 491 1399 l 2,12,13
 389 1399 389 1399 350 1370 c 128,-1,14
 311 1341 311 1341 311 1245 c 2,15,-1
 311 803 l 1,16,-1
 628 803 l 2,17,18
 761 803 761 803 803 871 c 1,19,-1
 803 661 l 1,20,21
 758 731 758 731 628 731 c 2,22,-1
 311 731 l 1,23,-1
 311 241 l 2,24,25
 311 148 311 148 350.5 118 c 128,-1,26
 390 88 390 88 491 88 c 2,27,-1
 792 88 l 2,28,29
 941 88 941 88 1023 112 c 128,-1,30
 1105 136 1105 136 1149 196 c 1,31,-1
 1137 20 l 1,32,-1
 103 20 l 1,33,34
 139 32 139 32 155.5 65 c 128,-1,35
 172 98 172 98 172 157 c 2,36,-1
 172 1325 l 2,4,5
EndSplineSet
Validated: 1
EndChar

StartChar: Ecircumflex
Encoding: 202 202 140
Width: 1178
GlyphClass: 2
Flags: W
LayerCount: 2
Fore
SplineSet
563 1849 m 1,0,-1
 659 1849 l 1,1,-1
 889 1636 l 1,2,-1
 841 1593 l 1,3,-1
 612 1745 l 1,4,-1
 381 1593 l 1,5,-1
 334 1636 l 1,6,-1
 563 1849 l 1,0,-1
172 1325 m 2,7,8
 172 1389 172 1389 156.5 1419.5 c 128,-1,9
 141 1450 141 1450 101 1464 c 1,10,-1
 1112 1464 l 1,11,-1
 1122 1306 l 1,12,13
 1049 1399 1049 1399 792 1399 c 2,14,-1
 491 1399 l 2,15,16
 389 1399 389 1399 350 1370 c 128,-1,17
 311 1341 311 1341 311 1245 c 2,18,-1
 311 803 l 1,19,-1
 628 803 l 2,20,21
 761 803 761 803 803 871 c 1,22,-1
 803 661 l 1,23,24
 758 731 758 731 628 731 c 2,25,-1
 311 731 l 1,26,-1
 311 241 l 2,27,28
 311 148 311 148 350.5 118 c 128,-1,29
 390 88 390 88 491 88 c 2,30,-1
 792 88 l 2,31,32
 941 88 941 88 1023 112 c 128,-1,33
 1105 136 1105 136 1149 196 c 1,34,-1
 1137 20 l 1,35,-1
 103 20 l 1,36,37
 139 32 139 32 155.5 65 c 128,-1,38
 172 98 172 98 172 157 c 2,39,-1
 172 1325 l 2,7,8
EndSplineSet
Validated: 1
EndChar

StartChar: Edieresis
Encoding: 203 203 141
Width: 1178
GlyphClass: 2
Flags: W
LayerCount: 2
Fore
SplineSet
395 1803 m 0,0,1
 494 1803 494 1803 494 1707 c 0,2,3
 494 1608 494 1608 395 1608 c 0,4,5
 299 1608 299 1608 299 1704 c 0,6,7
 299 1803 299 1803 395 1803 c 0,0,1
829 1801 m 0,8,9
 926 1801 926 1801 926 1704 c 0,10,11
 926 1608 926 1608 829 1608 c 0,12,13
 733 1608 733 1608 733 1704 c 0,14,15
 733 1801 733 1801 829 1801 c 0,8,9
172 1325 m 2,16,17
 172 1389 172 1389 156.5 1419.5 c 128,-1,18
 141 1450 141 1450 101 1464 c 1,19,-1
 1112 1464 l 1,20,-1
 1122 1306 l 1,21,22
 1049 1399 1049 1399 792 1399 c 2,23,-1
 491 1399 l 2,24,25
 389 1399 389 1399 350 1370 c 128,-1,26
 311 1341 311 1341 311 1245 c 2,27,-1
 311 803 l 1,28,-1
 628 803 l 2,29,30
 761 803 761 803 803 871 c 1,31,-1
 803 661 l 1,32,33
 758 731 758 731 628 731 c 2,34,-1
 311 731 l 1,35,-1
 311 241 l 2,36,37
 311 148 311 148 350.5 118 c 128,-1,38
 390 88 390 88 491 88 c 2,39,-1
 792 88 l 2,40,41
 941 88 941 88 1023 112 c 128,-1,42
 1105 136 1105 136 1149 196 c 1,43,-1
 1137 20 l 1,44,-1
 103 20 l 1,45,46
 139 32 139 32 155.5 65 c 128,-1,47
 172 98 172 98 172 157 c 2,48,-1
 172 1325 l 2,16,17
EndSplineSet
Validated: 1
EndChar

StartChar: Igrave
Encoding: 204 204 142
Width: 496
GlyphClass: 2
Flags: W
LayerCount: 2
Fore
SplineSet
124 1874 m 1,0,-1
 405 1614 l 1,1,-1
 358 1561 l 1,2,-1
 24 1774 l 1,3,-1
 124 1874 l 1,0,-1
321 157 m 2,4,5
 321 99 321 99 337.5 66 c 128,-1,6
 354 33 354 33 390 20 c 1,7,-1
 114 20 l 1,8,9
 176 43 176 43 176 157 c 2,10,-1
 176 1323 l 2,11,12
 176 1386 176 1386 159.5 1418.5 c 128,-1,13
 143 1451 143 1451 104 1464 c 1,14,-1
 396 1464 l 1,15,16
 321 1436 321 1436 321 1323 c 2,17,-1
 321 157 l 2,4,5
EndSplineSet
Validated: 1
EndChar

StartChar: Iacute
Encoding: 205 205 143
Width: 496
GlyphClass: 2
Flags: W
LayerCount: 2
Fore
SplineSet
374 1874 m 1,0,-1
 474 1774 l 1,1,-1
 141 1561 l 1,2,-1
 94 1614 l 1,3,-1
 374 1874 l 1,0,-1
321 157 m 2,4,5
 321 99 321 99 337.5 66 c 128,-1,6
 354 33 354 33 390 20 c 1,7,-1
 114 20 l 1,8,9
 176 43 176 43 176 157 c 2,10,-1
 176 1323 l 2,11,12
 176 1386 176 1386 159.5 1418.5 c 128,-1,13
 143 1451 143 1451 104 1464 c 1,14,-1
 396 1464 l 1,15,16
 321 1436 321 1436 321 1323 c 2,17,-1
 321 157 l 2,4,5
EndSplineSet
Validated: 1
EndChar

StartChar: Icircumflex
Encoding: 206 206 144
Width: 496
GlyphClass: 2
Flags: W
LayerCount: 2
Fore
SplineSet
200 1849 m 1,0,-1
 297 1849 l 1,1,-1
 530 1636 l 1,2,-1
 481 1593 l 1,3,-1
 249 1745 l 1,4,-1
 18 1593 l 1,5,-1
 -29 1636 l 1,6,-1
 200 1849 l 1,0,-1
321 157 m 2,7,8
 321 99 321 99 337.5 66 c 128,-1,9
 354 33 354 33 390 20 c 1,10,-1
 114 20 l 1,11,12
 176 43 176 43 176 157 c 2,13,-1
 176 1323 l 2,14,15
 176 1386 176 1386 159.5 1418.5 c 128,-1,16
 143 1451 143 1451 104 1464 c 1,17,-1
 396 1464 l 1,18,19
 321 1436 321 1436 321 1323 c 2,20,-1
 321 157 l 2,7,8
EndSplineSet
Validated: 1
EndChar

StartChar: Idieresis
Encoding: 207 207 145
Width: 496
GlyphClass: 2
Flags: W
LayerCount: 2
Fore
SplineSet
33 1803 m 0,0,1
 131 1803 131 1803 131 1707 c 0,2,3
 131 1608 131 1608 35 1608 c 0,4,5
 -64 1608 -64 1608 -64 1704 c 0,6,7
 -64 1803 -64 1803 33 1803 c 0,0,1
466 1801 m 0,8,9
 563 1801 563 1801 563 1704 c 0,10,11
 563 1608 563 1608 466 1608 c 0,12,13
 370 1608 370 1608 370 1704 c 0,14,15
 370 1801 370 1801 466 1801 c 0,8,9
321 157 m 2,16,17
 321 99 321 99 337.5 66 c 128,-1,18
 354 33 354 33 390 20 c 1,19,-1
 114 20 l 1,20,21
 176 43 176 43 176 157 c 2,22,-1
 176 1323 l 2,23,24
 176 1386 176 1386 159.5 1418.5 c 128,-1,25
 143 1451 143 1451 104 1464 c 1,26,-1
 396 1464 l 1,27,28
 321 1436 321 1436 321 1323 c 2,29,-1
 321 157 l 2,16,17
EndSplineSet
Validated: 1
EndChar

StartChar: Eth
Encoding: 208 208 146
Width: 1440
GlyphClass: 2
Flags: W
LayerCount: 2
Fore
SplineSet
172 1323 m 2,0,1
 172 1389 172 1389 156.5 1419.5 c 128,-1,2
 141 1450 141 1450 101 1464 c 1,3,-1
 587 1464 l 2,4,5
 905 1464 905 1464 1091 1327 c 0,6,7
 1355 1133 1355 1133 1355 745 c 0,8,9
 1355 258 1355 258 968 86 c 0,10,11
 818 20 818 20 577 20 c 2,12,-1
 105 20 l 1,13,14
 172 44 172 44 172 157 c 2,15,-1
 172 708 l 1,16,-1
 -25 708 l 1,17,-1
 -25 782 l 1,18,-1
 172 782 l 1,19,-1
 172 1323 l 2,0,1
315 239 m 2,20,21
 315 153 315 153 357.5 122.5 c 128,-1,22
 400 92 400 92 497 92 c 2,23,-1
 571 92 l 2,24,25
 829 92 829 92 954 180 c 0,26,27
 1189 342 1189 342 1189 755 c 0,28,29
 1189 1399 1189 1399 571 1399 c 2,30,-1
 497 1399 l 2,31,32
 401 1399 401 1399 358 1366.5 c 128,-1,33
 315 1334 315 1334 315 1243 c 2,34,-1
 315 782 l 1,35,-1
 775 782 l 1,36,-1
 775 708 l 1,37,-1
 315 708 l 1,38,-1
 315 239 l 2,20,21
EndSplineSet
Validated: 1
EndChar

StartChar: Ntilde
Encoding: 209 209 147
Width: 1391
GlyphClass: 2
Flags: W
LayerCount: 2
Fore
SplineSet
368 1659 m 1,0,1
 426 1800 426 1800 552 1800 c 0,2,3
 627 1800 627 1800 730 1734 c 0,4,5
 799 1689 799 1689 857 1689 c 0,6,7
 933 1689 933 1689 972 1772 c 1,8,-1
 1029 1735 l 1,9,10
 971 1595 971 1595 847 1595 c 0,11,12
 766 1595 766 1595 675 1653 c 0,13,14
 588 1706 588 1706 538 1706 c 0,15,16
 464 1706 464 1706 421 1624 c 1,17,-1
 368 1659 l 1,0,1
1171 1327 m 2,18,19
 1171 1385 1171 1385 1155 1418 c 128,-1,20
 1139 1451 1139 1451 1104 1464 c 1,21,-1
 1335 1464 l 1,22,23
 1271 1438 1271 1438 1271 1327 c 2,24,-1
 1271 0 l 1,25,-1
 1183 0 l 1,26,-1
 259 1298 l 1,27,-1
 253 1298 l 1,28,-1
 253 159 l 2,29,30
 253 100 253 100 269 66.5 c 128,-1,31
 285 33 285 33 320 20 c 1,32,-1
 89 20 l 1,33,34
 153 43 153 43 153 159 c 2,35,-1
 153 1319 l 2,36,37
 153 1382 153 1382 137 1417 c 128,-1,38
 121 1452 121 1452 86 1464 c 1,39,-1
 310 1464 l 1,40,-1
 1165 260 l 1,41,-1
 1171 260 l 1,42,-1
 1171 1327 l 2,18,19
EndSplineSet
Validated: 1
EndChar

StartChar: Ograve
Encoding: 210 210 148
Width: 1573
GlyphClass: 2
Flags: W
LayerCount: 2
Fore
SplineSet
695 1874 m 1,0,-1
 974 1614 l 1,1,-1
 929 1561 l 1,2,-1
 595 1774 l 1,3,-1
 695 1874 l 1,0,-1
787 1515 m 0,4,5
 1072 1515 1072 1515 1267 1320 c 0,6,7
 1488 1096 1488 1096 1488 749 c 0,8,9
 1488 382 1488 382 1265 159 c 0,10,11
 1072 -33 1072 -33 787 -33 c 0,12,13
 503 -33 503 -33 308 161 c 0,14,15
 85 384 85 384 85 745 c 0,16,17
 85 1096 85 1096 306 1320 c 0,18,19
 501 1515 501 1515 787 1515 c 0,4,5
787 1443 m 0,20,21
 537 1443 537 1443 390 1238 c 0,22,23
 255 1051 255 1051 255 749 c 0,24,25
 255 481 255 481 359 300 c 0,26,27
 503 46 503 46 787 46 c 0,28,29
 1033 46 1033 46 1181 249 c 0,30,31
 1318 435 1318 435 1318 742 c 0,32,33
 1318 1070 1318 1070 1164 1261 c 0,34,35
 1019 1443 1019 1443 787 1443 c 0,20,21
EndSplineSet
Validated: 1
EndChar

StartChar: Oacute
Encoding: 211 211 149
Width: 1573
GlyphClass: 2
Flags: W
LayerCount: 2
Fore
SplineSet
880 1874 m 1,0,-1
 978 1774 l 1,1,-1
 647 1561 l 1,2,-1
 600 1614 l 1,3,-1
 880 1874 l 1,0,-1
787 1515 m 0,4,5
 1072 1515 1072 1515 1267 1320 c 0,6,7
 1488 1096 1488 1096 1488 749 c 0,8,9
 1488 382 1488 382 1265 159 c 0,10,11
 1072 -33 1072 -33 787 -33 c 0,12,13
 503 -33 503 -33 308 161 c 0,14,15
 85 384 85 384 85 745 c 0,16,17
 85 1096 85 1096 306 1320 c 0,18,19
 501 1515 501 1515 787 1515 c 0,4,5
787 1443 m 0,20,21
 537 1443 537 1443 390 1238 c 0,22,23
 255 1051 255 1051 255 749 c 0,24,25
 255 481 255 481 359 300 c 0,26,27
 503 46 503 46 787 46 c 0,28,29
 1033 46 1033 46 1181 249 c 0,30,31
 1318 435 1318 435 1318 742 c 0,32,33
 1318 1070 1318 1070 1164 1261 c 0,34,35
 1019 1443 1019 1443 787 1443 c 0,20,21
EndSplineSet
Validated: 1
EndChar

StartChar: Ocircumflex
Encoding: 212 212 150
Width: 1573
GlyphClass: 2
Flags: W
LayerCount: 2
Fore
SplineSet
741 1849 m 1,0,-1
 838 1849 l 1,1,-1
 1067 1636 l 1,2,-1
 1018 1593 l 1,3,-1
 790 1745 l 1,4,-1
 559 1593 l 1,5,-1
 512 1636 l 1,6,-1
 741 1849 l 1,0,-1
787 1515 m 0,7,8
 1072 1515 1072 1515 1267 1320 c 0,9,10
 1488 1096 1488 1096 1488 749 c 0,11,12
 1488 382 1488 382 1265 159 c 0,13,14
 1072 -33 1072 -33 787 -33 c 0,15,16
 503 -33 503 -33 308 161 c 0,17,18
 85 384 85 384 85 745 c 0,19,20
 85 1096 85 1096 306 1320 c 0,21,22
 501 1515 501 1515 787 1515 c 0,7,8
787 1443 m 0,23,24
 537 1443 537 1443 390 1238 c 0,25,26
 255 1051 255 1051 255 749 c 0,27,28
 255 481 255 481 359 300 c 0,29,30
 503 46 503 46 787 46 c 0,31,32
 1033 46 1033 46 1181 249 c 0,33,34
 1318 435 1318 435 1318 742 c 0,35,36
 1318 1070 1318 1070 1164 1261 c 0,37,38
 1019 1443 1019 1443 787 1443 c 0,23,24
EndSplineSet
Validated: 1
EndChar

StartChar: Otilde
Encoding: 213 213 151
Width: 1573
GlyphClass: 2
Flags: W
LayerCount: 2
Fore
SplineSet
483 1659 m 1,0,1
 539 1800 539 1800 668 1800 c 0,2,3
 743 1800 743 1800 846 1734 c 0,4,5
 915 1689 915 1689 973 1689 c 0,6,7
 1048 1689 1048 1689 1087 1772 c 1,8,-1
 1145 1735 l 1,9,10
 1086 1595 1086 1595 960 1595 c 0,11,12
 881 1595 881 1595 778 1661 c 0,13,14
 709 1706 709 1706 655 1706 c 0,15,16
 579 1706 579 1706 537 1624 c 1,17,-1
 483 1659 l 1,0,1
787 1515 m 0,18,19
 1072 1515 1072 1515 1267 1320 c 0,20,21
 1488 1096 1488 1096 1488 749 c 0,22,23
 1488 382 1488 382 1265 159 c 0,24,25
 1072 -33 1072 -33 787 -33 c 0,26,27
 503 -33 503 -33 308 161 c 0,28,29
 85 384 85 384 85 745 c 0,30,31
 85 1096 85 1096 306 1320 c 0,32,33
 501 1515 501 1515 787 1515 c 0,18,19
787 1443 m 0,34,35
 537 1443 537 1443 390 1238 c 0,36,37
 255 1051 255 1051 255 749 c 0,38,39
 255 481 255 481 359 300 c 0,40,41
 503 46 503 46 787 46 c 0,42,43
 1033 46 1033 46 1181 249 c 0,44,45
 1318 435 1318 435 1318 742 c 0,46,47
 1318 1070 1318 1070 1164 1261 c 0,48,49
 1019 1443 1019 1443 787 1443 c 0,34,35
EndSplineSet
Validated: 1
EndChar

StartChar: Odieresis
Encoding: 214 214 152
Width: 1573
GlyphClass: 2
Flags: W
LayerCount: 2
Fore
SplineSet
574 1803 m 0,0,1
 672 1803 672 1803 672 1707 c 0,2,3
 672 1608 672 1608 574 1608 c 0,4,5
 477 1608 477 1608 477 1704 c 0,6,7
 477 1803 477 1803 574 1803 c 0,0,1
1006 1801 m 0,8,9
 1104 1801 1104 1801 1104 1704 c 0,10,11
 1104 1608 1104 1608 1008 1608 c 0,12,13
 911 1608 911 1608 911 1704 c 0,14,15
 911 1801 911 1801 1006 1801 c 0,8,9
787 1515 m 0,16,17
 1072 1515 1072 1515 1267 1320 c 0,18,19
 1488 1096 1488 1096 1488 749 c 0,20,21
 1488 382 1488 382 1265 159 c 0,22,23
 1072 -33 1072 -33 787 -33 c 0,24,25
 503 -33 503 -33 308 161 c 0,26,27
 85 384 85 384 85 745 c 0,28,29
 85 1096 85 1096 306 1320 c 0,30,31
 501 1515 501 1515 787 1515 c 0,16,17
787 1443 m 0,32,33
 537 1443 537 1443 390 1238 c 0,34,35
 255 1051 255 1051 255 749 c 0,36,37
 255 481 255 481 359 300 c 0,38,39
 503 46 503 46 787 46 c 0,40,41
 1033 46 1033 46 1181 249 c 0,42,43
 1318 435 1318 435 1318 742 c 0,44,45
 1318 1070 1318 1070 1164 1261 c 0,46,47
 1019 1443 1019 1443 787 1443 c 0,32,33
EndSplineSet
Validated: 1
EndChar

StartChar: multiply
Encoding: 215 215 153
Width: 1389
GlyphClass: 2
Flags: W
LayerCount: 2
Fore
SplineSet
694 581 m 1,0,-1
 340 227 l 1,1,-1
 270 297 l 1,2,-1
 624 653 l 1,3,-1
 268 1010 l 1,4,-1
 338 1079 l 1,5,-1
 694 723 l 1,6,-1
 1050 1077 l 1,7,-1
 1120 1007 l 1,8,-1
 766 653 l 1,9,-1
 1118 301 l 1,10,-1
 1046 229 l 1,11,-1
 694 581 l 1,0,-1
EndSplineSet
Validated: 1
EndChar

StartChar: Oslash
Encoding: 216 216 154
Width: 1573
GlyphClass: 2
Flags: W
LayerCount: 2
Fore
SplineSet
130 20 m 1,0,-1
 273 196 l 1,1,2
 85 422 85 422 85 743 c 0,3,4
 85 1039 85 1039 249 1253 c 0,5,6
 451 1513 451 1513 785 1513 c 0,7,8
 1044 1513 1044 1513 1230 1351 c 1,9,-1
 1351 1499 l 1,10,-1
 1416 1444 l 1,11,-1
 1291 1290 l 1,12,13
 1486 1064 1486 1064 1486 745 c 0,14,15
 1486 490 1486 490 1367 292 c 0,16,17
 1174 -33 1174 -33 787 -33 c 0,18,19
 527 -33 527 -33 335 135 c 1,20,-1
 196 -35 l 1,21,-1
 130 20 l 1,0,-1
1162 1267 m 1,22,23
 1015 1439 1015 1439 787 1439 c 0,24,25
 532 1439 532 1439 384 1226 c 0,26,27
 255 1039 255 1039 255 745 c 0,28,29
 255 477 255 477 357 295 c 1,30,-1
 1162 1267 l 1,22,23
1213 1196 m 1,31,-1
 407 223 l 1,32,33
 551 44 551 44 787 44 c 0,34,35
 1035 44 1035 44 1179 249 c 0,36,37
 1316 441 1316 441 1316 749 c 0,38,39
 1316 1013 1316 1013 1213 1196 c 1,31,-1
EndSplineSet
Validated: 1
EndChar

StartChar: Ugrave
Encoding: 217 217 155
Width: 1360
GlyphClass: 2
Flags: W
LayerCount: 2
Fore
SplineSet
491 1874 m 1,0,-1
 771 1614 l 1,1,-1
 724 1561 l 1,2,-1
 390 1774 l 1,3,-1
 491 1874 l 1,0,-1
1151 1323 m 2,4,5
 1151 1383 1151 1383 1135 1416.5 c 128,-1,6
 1119 1450 1119 1450 1085 1464 c 1,7,-1
 1320 1464 l 1,8,9
 1251 1438 1251 1438 1251 1323 c 2,10,-1
 1251 600 l 2,11,12
 1251 -27 1251 -27 694 -27 c 0,13,14
 118 -27 118 -27 118 588 c 2,15,-1
 118 1321 l 2,16,17
 118 1382 118 1382 99 1416 c 128,-1,18
 80 1450 80 1450 38 1464 c 1,19,-1
 335 1464 l 1,20,21
 295 1450 295 1450 278 1417.5 c 128,-1,22
 261 1385 261 1385 261 1321 c 2,23,-1
 261 608 l 2,24,25
 261 75 261 75 708 75 c 0,26,27
 1151 75 1151 75 1151 608 c 2,28,-1
 1151 1323 l 2,4,5
EndSplineSet
Validated: 1
EndChar

StartChar: Uacute
Encoding: 218 218 156
Width: 1360
GlyphClass: 2
Flags: W
LayerCount: 2
Fore
SplineSet
905 1874 m 1,0,-1
 1003 1774 l 1,1,-1
 671 1561 l 1,2,-1
 624 1614 l 1,3,-1
 905 1874 l 1,0,-1
1151 1323 m 2,4,5
 1151 1383 1151 1383 1135 1416.5 c 128,-1,6
 1119 1450 1119 1450 1085 1464 c 1,7,-1
 1320 1464 l 1,8,9
 1251 1438 1251 1438 1251 1323 c 2,10,-1
 1251 600 l 2,11,12
 1251 -27 1251 -27 694 -27 c 0,13,14
 118 -27 118 -27 118 588 c 2,15,-1
 118 1321 l 2,16,17
 118 1382 118 1382 99 1416 c 128,-1,18
 80 1450 80 1450 38 1464 c 1,19,-1
 335 1464 l 1,20,21
 295 1450 295 1450 278 1417.5 c 128,-1,22
 261 1385 261 1385 261 1321 c 2,23,-1
 261 608 l 2,24,25
 261 75 261 75 708 75 c 0,26,27
 1151 75 1151 75 1151 608 c 2,28,-1
 1151 1323 l 2,4,5
EndSplineSet
Validated: 1
EndChar

StartChar: Ucircumflex
Encoding: 219 219 157
Width: 1360
GlyphClass: 2
Flags: W
LayerCount: 2
Fore
SplineSet
659 1849 m 1,0,-1
 753 1849 l 1,1,-1
 984 1636 l 1,2,-1
 935 1593 l 1,3,-1
 708 1745 l 1,4,-1
 474 1593 l 1,5,-1
 427 1636 l 1,6,-1
 659 1849 l 1,0,-1
1151 1323 m 2,7,8
 1151 1383 1151 1383 1135 1416.5 c 128,-1,9
 1119 1450 1119 1450 1085 1464 c 1,10,-1
 1320 1464 l 1,11,12
 1251 1438 1251 1438 1251 1323 c 2,13,-1
 1251 600 l 2,14,15
 1251 -27 1251 -27 694 -27 c 0,16,17
 118 -27 118 -27 118 588 c 2,18,-1
 118 1321 l 2,19,20
 118 1382 118 1382 99 1416 c 128,-1,21
 80 1450 80 1450 38 1464 c 1,22,-1
 335 1464 l 1,23,24
 295 1450 295 1450 278 1417.5 c 128,-1,25
 261 1385 261 1385 261 1321 c 2,26,-1
 261 608 l 2,27,28
 261 75 261 75 708 75 c 0,29,30
 1151 75 1151 75 1151 608 c 2,31,-1
 1151 1323 l 2,7,8
EndSplineSet
Validated: 1
EndChar

StartChar: Udieresis
Encoding: 220 220 158
Width: 1360
GlyphClass: 2
Flags: W
LayerCount: 2
Fore
SplineSet
492 1801 m 0,0,1
 588 1801 588 1801 588 1704 c 0,2,3
 588 1608 588 1608 492 1608 c 0,4,5
 395 1608 395 1608 395 1704 c 0,6,7
 395 1801 395 1801 492 1801 c 0,0,1
921 1801 m 0,8,9
 1020 1801 1020 1801 1020 1704 c 0,10,11
 1020 1608 1020 1608 923 1608 c 0,12,13
 827 1608 827 1608 827 1704 c 0,14,15
 827 1801 827 1801 921 1801 c 0,8,9
1151 1323 m 2,16,17
 1151 1383 1151 1383 1135 1416.5 c 128,-1,18
 1119 1450 1119 1450 1085 1464 c 1,19,-1
 1320 1464 l 1,20,21
 1251 1438 1251 1438 1251 1323 c 2,22,-1
 1251 600 l 2,23,24
 1251 -27 1251 -27 694 -27 c 0,25,26
 118 -27 118 -27 118 588 c 2,27,-1
 118 1321 l 2,28,29
 118 1382 118 1382 99 1416 c 128,-1,30
 80 1450 80 1450 38 1464 c 1,31,-1
 335 1464 l 1,32,33
 295 1450 295 1450 278 1417.5 c 128,-1,34
 261 1385 261 1385 261 1321 c 2,35,-1
 261 608 l 2,36,37
 261 75 261 75 708 75 c 0,38,39
 1151 75 1151 75 1151 608 c 2,40,-1
 1151 1323 l 2,16,17
EndSplineSet
Validated: 1
EndChar

StartChar: Yacute
Encoding: 221 221 159
Width: 1279
GlyphClass: 2
Flags: W
LayerCount: 2
Fore
SplineSet
767 1874 m 1,0,-1
 864 1774 l 1,1,-1
 532 1561 l 1,2,-1
 485 1614 l 1,3,-1
 767 1874 l 1,0,-1
503 20 m 1,4,5
 565 44 565 44 565 157 c 2,6,-1
 565 585 l 1,7,-1
 128 1325 l 2,8,9
 69 1426 69 1426 -17 1464 c 1,10,-1
 295 1464 l 1,11,12
 261 1447 261 1447 261 1419 c 0,13,14
 261 1377 261 1377 298 1312 c 2,15,-1
 655 686 l 1,16,-1
 1046 1348 l 2,17,18
 1066 1382 1066 1382 1066 1410 c 0,19,20
 1066 1445 1066 1445 1018 1464 c 1,21,-1
 1293 1464 l 1,22,23
 1201 1423 1201 1423 1130 1305 c 2,24,-1
 706 604 l 1,25,-1
 706 157 l 2,26,27
 706 47 706 47 779 20 c 1,28,-1
 503 20 l 1,4,5
EndSplineSet
Validated: 1
EndChar

StartChar: Thorn
Encoding: 222 222 160
Width: 1257
GlyphClass: 2
Flags: W
LayerCount: 2
Fore
SplineSet
309 159 m 2,0,1
 309 97 309 97 325 66 c 128,-1,2
 341 35 341 35 380 20 c 1,3,-1
 101 20 l 1,4,5
 137 34 137 34 152.5 66.5 c 128,-1,6
 168 99 168 99 168 159 c 2,7,-1
 168 1321 l 2,8,9
 168 1383 168 1383 153 1416.5 c 128,-1,10
 138 1450 138 1450 101 1462 c 1,11,-1
 379 1462 l 1,12,13
 340 1449 340 1449 324.5 1413.5 c 128,-1,14
 309 1378 309 1378 309 1306 c 2,15,-1
 309 1183 l 1,16,-1
 489 1183 l 2,17,18
 1186 1183 1186 1183 1186 747 c 0,19,20
 1186 505 1186 505 948 385 c 0,21,22
 781 303 781 303 493 303 c 2,23,-1
 309 303 l 1,24,-1
 309 159 l 2,0,1
309 1112 m 1,25,-1
 309 374 l 1,26,-1
 430 374 l 2,27,28
 1028 374 1028 374 1028 741 c 0,29,30
 1028 1112 1028 1112 430 1112 c 2,31,-1
 309 1112 l 1,25,-1
EndSplineSet
Validated: 1
EndChar

StartChar: germandbls
Encoding: 223 223 161
Width: 1042
GlyphClass: 2
Flags: W
LayerCount: 2
Fore
SplineSet
659 -4 m 0,0,1
 520 -4 520 -4 441 53 c 1,2,-1
 468 158 l 1,3,4
 542 51 542 51 657 51 c 0,5,6
 725 51 725 51 771 119 c 0,7,8
 831 206 831 206 831 362 c 0,9,10
 831 725 831 725 450 774 c 1,11,-1
 450 827 l 1,12,13
 733 901 733 901 733 1183 c 0,14,15
 733 1264 733 1264 700 1320 c 0,16,17
 631.053571429 1437 631.053571429 1437 503 1437 c 0,18,19
 280 1437 280 1437 280 1099 c 2,20,-1
 280 135 l 2,21,22
 280 41 280 41 317 20 c 1,23,-1
 100 20 l 2,24,25
 102 21 102 21 104 22 c 0,26,27
 145 42.5 145 42.5 145 128 c 2,28,-1
 145 1108 l 2,29,30
 145 1276 145 1276 227 1376 c 0,31,32
 327.86 1499 327.86 1499 519 1499 c 0,33,34
 659 1499 659 1499 755 1427 c 1,35,36
 870 1334 870 1334 870 1163 c 0,37,38
 870 999 870 999 745 899 c 0,39,40
 670 839 670 839 562 815 c 1,41,-1
 562 807 l 1,42,43
 972 748 972 748 972 381 c 0,44,45
 972 193 972 193 876 88 c 0,46,47
 793 -4 793 -4 659 -4 c 0,0,1
EndSplineSet
EndChar

StartChar: agrave
Encoding: 224 224 162
Width: 966
GlyphClass: 2
Flags: W
LayerCount: 2
Fore
SplineSet
400 1505 m 1,0,-1
 650 1251 l 1,1,-1
 604 1206 l 1,2,-1
 299 1407 l 1,3,-1
 400 1505 l 1,0,-1
725 276 m 1,4,-1
 725 557 l 1,5,-1
 639 553 l 2,6,7
 213 532 213 532 213 278 c 0,8,9
 213 184 213 184 272 124 c 0,10,11
 330 67 330 67 418 67 c 0,12,13
 538 67 538 67 633 141 c 0,14,15
 697 193 697 193 725 276 c 1,4,-1
739 165 m 1,16,17
 614 -14 614 -14 391 -14 c 0,18,19
 256 -14 256 -14 166 57 c 0,20,21
 70 135 70 135 70 266 c 0,22,23
 70 589 70 589 621 623 c 2,24,-1
 725 629 l 1,25,-1
 725 666 l 2,26,27
 725 819 725 819 660 896.5 c 128,-1,28
 595 974 595 974 473 974 c 0,29,30
 391 974 391 974 311 937 c 128,-1,31
 231 900 231 900 202 847 c 1,32,-1
 180 950 l 1,33,34
 235 987 235 987 324 1015 c 128,-1,35
 413 1043 413 1043 484 1043 c 0,36,37
 665 1043 665 1043 759.5 952.5 c 128,-1,38
 854 862 854 862 854 684 c 2,39,-1
 855 129 l 2,40,41
 855 41 855 41 896 20 c 1,42,-1
 748 20 l 1,43,-1
 739 165 l 1,16,17
EndSplineSet
Validated: 1
EndChar

StartChar: aacute
Encoding: 225 225 163
Width: 966
GlyphClass: 2
Flags: W
LayerCount: 2
Fore
SplineSet
645 1507 m 1,0,-1
 745 1409 l 1,1,-1
 440 1208 l 1,2,-1
 397 1253 l 1,3,-1
 645 1507 l 1,0,-1
725 276 m 1,4,-1
 725 557 l 1,5,-1
 639 553 l 2,6,7
 213 532 213 532 213 278 c 0,8,9
 213 184 213 184 272 124 c 0,10,11
 330 67 330 67 418 67 c 0,12,13
 538 67 538 67 633 141 c 0,14,15
 697 193 697 193 725 276 c 1,4,-1
739 165 m 1,16,17
 614 -14 614 -14 391 -14 c 0,18,19
 256 -14 256 -14 166 57 c 0,20,21
 70 135 70 135 70 266 c 0,22,23
 70 589 70 589 621 623 c 2,24,-1
 725 629 l 1,25,-1
 725 666 l 2,26,27
 725 819 725 819 660 896.5 c 128,-1,28
 595 974 595 974 473 974 c 0,29,30
 391 974 391 974 311 937 c 128,-1,31
 231 900 231 900 202 847 c 1,32,-1
 180 950 l 1,33,34
 235 987 235 987 324 1015 c 128,-1,35
 413 1043 413 1043 484 1043 c 0,36,37
 665 1043 665 1043 759.5 952.5 c 128,-1,38
 854 862 854 862 854 684 c 2,39,-1
 855 129 l 2,40,41
 855 41 855 41 896 20 c 1,42,-1
 748 20 l 1,43,-1
 739 165 l 1,16,17
EndSplineSet
Validated: 1
EndChar

StartChar: acircumflex
Encoding: 226 226 164
Width: 966
GlyphClass: 2
Flags: W
LayerCount: 2
Fore
SplineSet
450 1441 m 1,0,-1
 538 1441 l 1,1,-1
 743 1243 l 1,2,-1
 704 1200 l 1,3,-1
 493 1337 l 1,4,-1
 284 1200 l 1,5,-1
 247 1243 l 1,6,-1
 450 1441 l 1,0,-1
725 276 m 1,7,-1
 725 557 l 1,8,-1
 639 553 l 2,9,10
 213 532 213 532 213 278 c 0,11,12
 213 184 213 184 272 124 c 0,13,14
 330 67 330 67 418 67 c 0,15,16
 538 67 538 67 633 141 c 0,17,18
 697 193 697 193 725 276 c 1,7,-1
739 165 m 1,19,20
 614 -14 614 -14 391 -14 c 0,21,22
 256 -14 256 -14 166 57 c 0,23,24
 70 135 70 135 70 266 c 0,25,26
 70 589 70 589 621 623 c 2,27,-1
 725 629 l 1,28,-1
 725 666 l 2,29,30
 725 819 725 819 660 896.5 c 128,-1,31
 595 974 595 974 473 974 c 0,32,33
 391 974 391 974 311 937 c 128,-1,34
 231 900 231 900 202 847 c 1,35,-1
 180 950 l 1,36,37
 235 987 235 987 324 1015 c 128,-1,38
 413 1043 413 1043 484 1043 c 0,39,40
 665 1043 665 1043 759.5 952.5 c 128,-1,41
 854 862 854 862 854 684 c 2,42,-1
 855 129 l 2,43,44
 855 41 855 41 896 20 c 1,45,-1
 748 20 l 1,46,-1
 739 165 l 1,19,20
EndSplineSet
Validated: 1
EndChar

StartChar: atilde
Encoding: 227 227 165
Width: 966
GlyphClass: 2
Flags: W
LayerCount: 2
Fore
SplineSet
219 1308 m 1,0,1
 252 1433 252 1433 378 1433 c 0,2,3
 445 1433 445 1433 536 1376 c 0,4,5
 602 1335 602 1335 638 1335 c 0,6,7
 697 1335 697 1335 737 1411 c 1,8,-1
 788 1372 l 1,9,10
 741 1251 741 1251 632 1251 c 0,11,12
 562 1251 562 1251 473 1306 c 0,13,14
 406 1347 406 1347 366 1347 c 0,15,16
 301 1347 301 1347 270 1276 c 1,17,-1
 219 1308 l 1,0,1
725 276 m 1,18,-1
 725 557 l 1,19,-1
 639 553 l 2,20,21
 213 532 213 532 213 278 c 0,22,23
 213 184 213 184 272 124 c 0,24,25
 330 67 330 67 418 67 c 0,26,27
 538 67 538 67 633 141 c 0,28,29
 697 193 697 193 725 276 c 1,18,-1
739 165 m 1,30,31
 614 -14 614 -14 391 -14 c 0,32,33
 256 -14 256 -14 166 57 c 0,34,35
 70 135 70 135 70 266 c 0,36,37
 70 589 70 589 621 623 c 2,38,-1
 725 629 l 1,39,-1
 725 666 l 2,40,41
 725 819 725 819 660 896.5 c 128,-1,42
 595 974 595 974 473 974 c 0,43,44
 391 974 391 974 311 937 c 128,-1,45
 231 900 231 900 202 847 c 1,46,-1
 180 950 l 1,47,48
 235 987 235 987 324 1015 c 128,-1,49
 413 1043 413 1043 484 1043 c 0,50,51
 665 1043 665 1043 759.5 952.5 c 128,-1,52
 854 862 854 862 854 684 c 2,53,-1
 855 129 l 2,54,55
 855 41 855 41 896 20 c 1,56,-1
 748 20 l 1,57,-1
 739 165 l 1,30,31
EndSplineSet
Validated: 1
EndChar

StartChar: adieresis
Encoding: 228 228 166
Width: 966
GlyphClass: 2
Flags: W
LayerCount: 2
Fore
SplineSet
313 1437 m 0,0,1
 405 1437 405 1437 405 1347 c 0,2,3
 405 1255 405 1255 315 1255 c 0,4,5
 223 1255 223 1255 223 1345 c 0,6,7
 223 1437 223 1437 313 1437 c 0,0,1
675 1437 m 0,8,9
 767 1437 767 1437 767 1347 c 0,10,11
 767 1255 767 1255 677 1255 c 0,12,13
 585 1255 585 1255 585 1345 c 0,14,15
 585 1437 585 1437 675 1437 c 0,8,9
725 276 m 1,16,-1
 725 557 l 1,17,-1
 639 553 l 2,18,19
 213 532 213 532 213 278 c 0,20,21
 213 184 213 184 272 124 c 0,22,23
 330 67 330 67 418 67 c 0,24,25
 538 67 538 67 633 141 c 0,26,27
 697 193 697 193 725 276 c 1,16,-1
739 165 m 1,28,29
 614 -14 614 -14 391 -14 c 0,30,31
 256 -14 256 -14 166 57 c 0,32,33
 70 135 70 135 70 266 c 0,34,35
 70 589 70 589 621 623 c 2,36,-1
 725 629 l 1,37,-1
 725 666 l 2,38,39
 725 819 725 819 660 896.5 c 128,-1,40
 595 974 595 974 473 974 c 0,41,42
 391 974 391 974 311 937 c 128,-1,43
 231 900 231 900 202 847 c 1,44,-1
 180 950 l 1,45,46
 235 987 235 987 324 1015 c 128,-1,47
 413 1043 413 1043 484 1043 c 0,48,49
 665 1043 665 1043 759.5 952.5 c 128,-1,50
 854 862 854 862 854 684 c 2,51,-1
 855 129 l 2,52,53
 855 41 855 41 896 20 c 1,54,-1
 748 20 l 1,55,-1
 739 165 l 1,28,29
EndSplineSet
Validated: 1
EndChar

StartChar: aring
Encoding: 229 229 167
Width: 966
GlyphClass: 2
Flags: W
LayerCount: 2
Fore
SplineSet
487 1502 m 0,0,1
 555 1502 555 1502 604 1453 c 0,2,3
 649 1410 649 1410 649 1346 c 0,4,5
 649 1302 649 1302 628 1270 c 0,6,7
 583 1188 583 1188 489 1188 c 0,8,9
 453 1188 453 1188 421 1202 c 0,10,11
 327 1245 327 1245 327 1346 c 0,12,13
 327 1420 327 1420 386 1467 c 0,14,15
 434 1502 434 1502 487 1502 c 0,0,1
489 1449 m 0,16,17
 384 1449 384 1449 384 1346 c 0,18,19
 384 1302 384 1302 417 1272 c 0,20,21
 449 1243 449 1243 489 1243 c 0,22,23
 530 1243 530 1243 561 1274 c 256,24,25
 592 1305 592 1305 592 1346 c 0,26,27
 592 1449 592 1449 489 1449 c 0,16,17
725 276 m 1,28,-1
 725 557 l 1,29,-1
 639 553 l 2,30,31
 213 532 213 532 213 278 c 0,32,33
 213 184 213 184 272 124 c 0,34,35
 330 67 330 67 418 67 c 0,36,37
 538 67 538 67 633 141 c 0,38,39
 697 193 697 193 725 276 c 1,28,-1
739 165 m 1,40,41
 614 -14 614 -14 391 -14 c 0,42,43
 256 -14 256 -14 166 57 c 0,44,45
 70 135 70 135 70 266 c 0,46,47
 70 589 70 589 621 623 c 2,48,-1
 725 629 l 1,49,-1
 725 666 l 2,50,51
 725 819 725 819 660 896.5 c 128,-1,52
 595 974 595 974 473 974 c 0,53,54
 391 974 391 974 311 937 c 128,-1,55
 231 900 231 900 202 847 c 1,56,-1
 180 950 l 1,57,58
 235 987 235 987 324 1015 c 128,-1,59
 413 1043 413 1043 484 1043 c 0,60,61
 665 1043 665 1043 759.5 952.5 c 128,-1,62
 854 862 854 862 854 684 c 2,63,-1
 855 129 l 2,64,65
 855 41 855 41 896 20 c 1,66,-1
 748 20 l 1,67,-1
 739 165 l 1,40,41
EndSplineSet
Validated: 1
EndChar

StartChar: ae
Encoding: 230 230 168
Width: 1663
GlyphClass: 2
Flags: W
LayerCount: 2
Fore
SplineSet
1180 -12 m 0,0,1
 909 -12 909 -12 792 217 c 1,2,-1
 786 217 l 1,3,4
 666 -14 666 -14 393 -14 c 0,5,6
 283 -14 283 -14 205 31 c 0,7,8
 72 108 72 108 72 262 c 0,9,10
 72 591 72 591 620 622 c 2,11,-1
 727 628 l 1,12,-1
 726 666 l 2,13,14
 718 974 718 974 474 974 c 0,15,16
 392 974 392 974 312 937 c 128,-1,17
 232 900 232 900 203 847 c 1,18,-1
 181 950 l 1,19,20
 236 987 236 987 325 1015 c 128,-1,21
 414 1043 414 1043 485 1043 c 0,22,23
 744 1043 744 1043 823 862 c 1,24,25
 949 1038 949 1038 1157 1038 c 0,26,27
 1418 1038 1418 1038 1534 821 c 0,28,29
 1593 708 1593 708 1593 575 c 2,30,-1
 1593 540 l 1,31,-1
 856 540 l 1,32,-1
 856 505 l 2,33,34
 856 345 856 345 924 231 c 0,35,36
 1019 78 1019 78 1204 78 c 0,37,38
 1424 78 1424 78 1544 291 c 1,39,-1
 1569 195 l 1,40,41
 1437 -12 1437 -12 1180 -12 c 0,0,1
1456 618 m 1,42,43
 1453 766 1453 766 1382 858 c 0,44,45
 1294 971 1294 971 1153 971 c 0,46,47
 1019 971 1019 971 934 846 c 0,48,49
 867 752 867 752 858 618 c 1,50,-1
 1456 618 l 1,42,43
727 558 m 1,51,-1
 639 554 l 2,52,53
 215 533 215 533 215 280 c 0,54,55
 215 201 215 201 258 143 c 0,56,57
 316 67 316 67 418 67 c 0,58,59
 552 67 552 67 653 159 c 0,60,61
 705 205 705 205 727 276 c 1,62,-1
 727 558 l 1,51,-1
EndSplineSet
Validated: 1
EndChar

StartChar: ccedilla
Encoding: 231 231 169
Width: 847
GlyphClass: 2
Flags: W
LayerCount: 2
Fore
SplineSet
222 513 m 0,0,1
 222 346 222 346 294 217 c 0,2,3
 383 57 383 57 562 57 c 0,4,5
 721 57 721 57 795 169 c 1,6,-1
 822 64 l 1,7,8
 713 -12 713 -12 555 -12 c 1,9,-1
 518 -97 l 1,10,11
 703 -99 703 -99 703 -230 c 0,12,13
 703 -388 703 -388 383 -391 c 1,14,-1
 366 -331 l 1,15,16
 597 -328 597 -328 597 -228 c 0,17,18
 597 -149 597 -149 426 -147 c 1,19,-1
 426 -119 l 1,20,-1
 478 -7 l 1,21,22
 325 15 325 15 220 123 c 0,23,24
 70 278 70 278 70 513 c 0,25,26
 70 753 70 753 220 908 c 0,27,28
 351 1043 351 1043 555 1043 c 0,29,30
 713 1043 713 1043 822 967 c 1,31,-1
 795 862 l 1,32,33
 721 974 721 974 562 974 c 0,34,35
 383 974 383 974 294 814 c 0,36,37
 222 685 222 685 222 513 c 0,0,1
EndSplineSet
Validated: 1
EndChar

StartChar: egrave
Encoding: 232 232 170
Width: 1055
GlyphClass: 2
Flags: W
LayerCount: 2
Fore
SplineSet
398 1507 m 1,0,-1
 648 1253 l 1,1,-1
 603 1208 l 1,2,-1
 297 1409 l 1,3,-1
 398 1507 l 1,0,-1
846 621 m 1,4,5
 840 797 840 797 744 894 c 0,6,7
 661 974 661 974 541 974 c 0,8,9
 398 974 398 974 303 849 c 0,10,11
 235 760 235 760 220 621 c 1,12,-1
 846 621 l 1,4,5
951 195 m 1,13,14
 819 -12 819 -12 562 -12 c 0,15,16
 348 -12 348 -12 209 127 c 0,17,18
 70 270 70 270 70 510 c 0,19,20
 70 765 70 765 217 912 c 0,21,22
 345 1043 345 1043 543 1043 c 0,23,24
 735 1043 735 1043 854 920 c 0,25,26
 985 789 985 789 985 580 c 2,27,-1
 985 543 l 1,28,-1
 213 543 l 1,29,-1
 213 508 l 2,30,31
 213 306 213 306 336 180 c 0,32,33
 439 78 439 78 586 78 c 0,34,35
 806 78 806 78 926 291 c 1,36,-1
 951 195 l 1,13,14
EndSplineSet
Validated: 1
EndChar

StartChar: eacute
Encoding: 233 233 171
Width: 1055
GlyphClass: 2
Flags: W
LayerCount: 2
Fore
SplineSet
693 1507 m 1,0,-1
 793 1409 l 1,1,-1
 488 1208 l 1,2,-1
 443 1253 l 1,3,-1
 693 1507 l 1,0,-1
846 621 m 1,4,5
 840 797 840 797 744 894 c 0,6,7
 661 974 661 974 541 974 c 0,8,9
 398 974 398 974 303 849 c 0,10,11
 235 760 235 760 220 621 c 1,12,-1
 846 621 l 1,4,5
951 195 m 1,13,14
 819 -12 819 -12 562 -12 c 0,15,16
 348 -12 348 -12 209 127 c 0,17,18
 70 270 70 270 70 510 c 0,19,20
 70 765 70 765 217 912 c 0,21,22
 345 1043 345 1043 543 1043 c 0,23,24
 735 1043 735 1043 854 920 c 0,25,26
 985 789 985 789 985 580 c 2,27,-1
 985 543 l 1,28,-1
 213 543 l 1,29,-1
 213 508 l 2,30,31
 213 306 213 306 336 180 c 0,32,33
 439 78 439 78 586 78 c 0,34,35
 806 78 806 78 926 291 c 1,36,-1
 951 195 l 1,13,14
EndSplineSet
Validated: 1
EndChar

StartChar: ecircumflex
Encoding: 234 234 172
Width: 1055
GlyphClass: 2
Flags: W
LayerCount: 2
Fore
SplineSet
498 1441 m 1,0,-1
 586 1441 l 1,1,-1
 791 1243 l 1,2,-1
 752 1200 l 1,3,-1
 541 1337 l 1,4,-1
 332 1200 l 1,5,-1
 295 1243 l 1,6,-1
 498 1441 l 1,0,-1
846 621 m 1,7,8
 840 797 840 797 744 894 c 0,9,10
 661 974 661 974 541 974 c 0,11,12
 398 974 398 974 303 849 c 0,13,14
 235 760 235 760 220 621 c 1,15,-1
 846 621 l 1,7,8
951 195 m 1,16,17
 819 -12 819 -12 562 -12 c 0,18,19
 348 -12 348 -12 209 127 c 0,20,21
 70 270 70 270 70 510 c 0,22,23
 70 765 70 765 217 912 c 0,24,25
 345 1043 345 1043 543 1043 c 0,26,27
 735 1043 735 1043 854 920 c 0,28,29
 985 789 985 789 985 580 c 2,30,-1
 985 543 l 1,31,-1
 213 543 l 1,32,-1
 213 508 l 2,33,34
 213 306 213 306 336 180 c 0,35,36
 439 78 439 78 586 78 c 0,37,38
 806 78 806 78 926 291 c 1,39,-1
 951 195 l 1,16,17
EndSplineSet
Validated: 1
EndChar

StartChar: edieresis
Encoding: 235 235 173
Width: 1055
GlyphClass: 2
Flags: W
LayerCount: 2
Fore
SplineSet
361 1437 m 0,0,1
 453 1437 453 1437 453 1347 c 0,2,3
 453 1255 453 1255 363 1255 c 0,4,5
 271 1255 271 1255 271 1345 c 0,6,7
 271 1437 271 1437 361 1437 c 0,0,1
721 1437 m 0,8,9
 815 1437 815 1437 815 1347 c 0,10,11
 815 1255 815 1255 723 1255 c 0,12,13
 633 1255 633 1255 633 1345 c 0,14,15
 633 1437 633 1437 721 1437 c 0,8,9
846 621 m 1,16,17
 840 797 840 797 744 894 c 0,18,19
 661 974 661 974 541 974 c 0,20,21
 398 974 398 974 303 849 c 0,22,23
 235 760 235 760 220 621 c 1,24,-1
 846 621 l 1,16,17
951 195 m 1,25,26
 819 -12 819 -12 562 -12 c 0,27,28
 348 -12 348 -12 209 127 c 0,29,30
 70 270 70 270 70 510 c 0,31,32
 70 765 70 765 217 912 c 0,33,34
 345 1043 345 1043 543 1043 c 0,35,36
 735 1043 735 1043 854 920 c 0,37,38
 985 789 985 789 985 580 c 2,39,-1
 985 543 l 1,40,-1
 213 543 l 1,41,-1
 213 508 l 2,42,43
 213 306 213 306 336 180 c 0,44,45
 439 78 439 78 586 78 c 0,46,47
 806 78 806 78 926 291 c 1,48,-1
 951 195 l 1,25,26
EndSplineSet
Validated: 1
EndChar

StartChar: igrave
Encoding: 236 236 174
Width: 419
GlyphClass: 2
Flags: W
LayerCount: 2
Fore
SplineSet
61 1505 m 1,0,-1
 311 1251 l 1,1,-1
 266 1206 l 1,2,-1
 -39 1407 l 1,3,-1
 61 1505 l 1,0,-1
145 899 m 2,4,5
 145 996 145 996 95 1014 c 1,6,7
 191 1023 191 1023 280 1041 c 1,8,-1
 280 127 l 2,9,10
 280 43 280 43 319 20 c 1,11,-1
 101 20 l 1,12,13
 145 47 145 47 145 127 c 2,14,-1
 145 899 l 2,4,5
EndSplineSet
Validated: 1
EndChar

StartChar: iacute
Encoding: 237 237 175
Width: 419
GlyphClass: 2
Flags: W
LayerCount: 2
Fore
SplineSet
359 1503 m 1,0,-1
 457 1407 l 1,1,-1
 152 1206 l 1,2,-1
 109 1251 l 1,3,-1
 359 1503 l 1,0,-1
145 899 m 2,4,5
 145 996 145 996 95 1014 c 1,6,7
 191 1023 191 1023 280 1041 c 1,8,-1
 280 127 l 2,9,10
 280 43 280 43 319 20 c 1,11,-1
 101 20 l 1,12,13
 145 47 145 47 145 127 c 2,14,-1
 145 899 l 2,4,5
EndSplineSet
Validated: 1
EndChar

StartChar: icircumflex
Encoding: 238 238 176
Width: 419
GlyphClass: 2
Flags: W
LayerCount: 2
Fore
SplineSet
162 1439 m 1,0,-1
 250 1439 l 1,1,-1
 455 1241 l 1,2,-1
 416 1198 l 1,3,-1
 205 1335 l 1,4,-1
 -4 1198 l 1,5,-1
 -41 1241 l 1,6,-1
 162 1439 l 1,0,-1
145 899 m 2,7,8
 145 996 145 996 95 1014 c 1,9,10
 191 1023 191 1023 280 1041 c 1,11,-1
 280 127 l 2,12,13
 280 43 280 43 319 20 c 1,14,-1
 101 20 l 1,15,16
 145 47 145 47 145 127 c 2,17,-1
 145 899 l 2,7,8
EndSplineSet
Validated: 1
EndChar

StartChar: idieresis
Encoding: 239 239 177
Width: 419
GlyphClass: 2
Flags: W
LayerCount: 2
Fore
SplineSet
25 1435 m 0,0,1
 117 1435 117 1435 117 1345 c 0,2,3
 117 1253 117 1253 27 1253 c 0,4,5
 -65 1253 -65 1253 -65 1343 c 0,6,7
 -65 1435 -65 1435 25 1435 c 0,0,1
385 1435 m 0,8,9
 479 1435 479 1435 479 1345 c 0,10,11
 479 1253 479 1253 389 1253 c 0,12,13
 297 1253 297 1253 297 1343 c 0,14,15
 297 1435 297 1435 385 1435 c 0,8,9
145 899 m 2,16,17
 145 996 145 996 95 1014 c 1,18,19
 191 1023 191 1023 280 1041 c 1,20,-1
 280 127 l 2,21,22
 280 43 280 43 319 20 c 1,23,-1
 101 20 l 1,24,25
 145 47 145 47 145 127 c 2,26,-1
 145 899 l 2,16,17
EndSplineSet
Validated: 1
EndChar

StartChar: eth
Encoding: 240 240 178
Width: 1180
GlyphClass: 2
Flags: W
LayerCount: 2
Fore
SplineSet
772 1495 m 1,0,-1
 813 1435 l 1,1,-1
 666 1345 l 1,2,3
 1071 1044 1071 1044 1071 547 c 0,4,5
 1071 292 1071 292 950 143 c 0,6,7
 818 -16 818 -16 594 -16 c 0,8,9
 335 -16 335 -16 199 196 c 0,10,11
 115 330 115 330 115 514 c 0,12,13
 115 695 115 695 199 825 c 0,14,15
 337 1036 337 1036 598 1036 c 0,16,17
 722 1036 722 1036 830 969 c 1,18,-1
 838 973 l 1,19,20
 747 1158 747 1158 572 1290 c 1,21,-1
 303 1122 l 1,22,-1
 267 1182 l 1,23,-1
 518 1333 l 1,24,25
 386 1410 386 1410 254 1437 c 1,26,-1
 279 1501 l 1,27,28
 463 1464 463 1464 598 1390 c 1,29,-1
 772 1495 l 1,0,-1
598 971 m 0,30,31
 445 971 445 971 350 848 c 0,32,33
 256 723 256 723 256 516 c 0,34,35
 256 323 256 323 332 205 c 0,36,37
 426 55 426 55 594 55 c 0,38,39
 747 55 747 55 840 182 c 0,40,41
 932 305 932 305 932 516 c 0,42,43
 932 726 932 726 836 850 c 0,44,45
 743 971 743 971 598 971 c 0,30,31
EndSplineSet
Validated: 1
EndChar

StartChar: ntilde
Encoding: 241 241 179
Width: 1100
GlyphClass: 2
Flags: W
LayerCount: 2
Fore
SplineSet
260 1306 m 1,0,1
 300 1431 300 1431 420 1431 c 0,2,3
 487 1431 487 1431 578 1374 c 0,4,5
 644 1333 644 1333 680 1333 c 0,6,7
 745 1333 745 1333 778 1409 c 1,8,-1
 829 1370 l 1,9,10
 783 1249 783 1249 674 1249 c 0,11,12
 603 1249 603 1249 514 1304 c 0,13,14
 448 1345 448 1345 408 1345 c 0,15,16
 342 1345 342 1345 311 1274 c 1,17,-1
 260 1306 l 1,0,1
100 20 m 1,18,19
 144 47 144 47 144 127 c 2,20,-1
 144 899 l 2,21,22
 144 996 144 996 95 1014 c 1,23,24
 189 1022 189 1022 273 1041 c 1,25,-1
 273 826 l 1,26,27
 399 1034 399 1034 621 1034 c 0,28,29
 957 1034 957 1034 957 666 c 2,30,-1
 957 127 l 2,31,32
 957 48 957 48 1000 20 c 1,33,-1
 779 20 l 1,34,35
 820 48 820 48 820 127 c 2,36,-1
 820 637 l 2,37,38
 820 946 820 946 592 946 c 0,39,40
 370 946 370 946 281 701 c 1,41,-1
 281 127 l 2,42,43
 281 47 281 47 321 20 c 1,44,-1
 100 20 l 1,18,19
EndSplineSet
Validated: 1
EndChar

StartChar: ograve
Encoding: 242 242 180
Width: 1113
GlyphClass: 2
Flags: W
LayerCount: 2
Fore
SplineSet
415 1511 m 1,0,-1
 665 1257 l 1,1,-1
 620 1212 l 1,2,-1
 315 1413 l 1,3,-1
 415 1511 l 1,0,-1
556 1047 m 0,4,5
 758 1047 758 1047 895 910 c 0,6,7
 1043 762 1043 762 1043 523 c 0,8,9
 1043 270 1043 270 895 123 c 0,10,11
 757 -12 757 -12 556 -12 c 0,12,13
 353 -12 353 -12 217 123 c 0,14,15
 70 270 70 270 70 518 c 0,16,17
 70 762 70 762 220 912 c 0,18,19
 355 1047 355 1047 556 1047 c 0,4,5
556 976 m 0,20,21
 404 976 404 976 312 847 c 0,22,23
 222 722 222 722 222 518 c 0,24,25
 222 303 222 303 320 180 c 0,26,27
 410 65 410 65 556 65 c 0,28,29
 737 65 737 65 824 225 c 0,30,31
 891 351 891 351 891 516 c 0,32,33
 891 733 891 733 793 859 c 0,34,35
 701 976 701 976 556 976 c 0,20,21
EndSplineSet
Validated: 1
EndChar

StartChar: oacute
Encoding: 243 243 181
Width: 1113
GlyphClass: 2
Flags: W
LayerCount: 2
Fore
SplineSet
712 1511 m 1,0,-1
 810 1413 l 1,1,-1
 505 1212 l 1,2,-1
 462 1257 l 1,3,-1
 712 1511 l 1,0,-1
556 1047 m 0,4,5
 758 1047 758 1047 895 910 c 0,6,7
 1043 762 1043 762 1043 523 c 0,8,9
 1043 270 1043 270 895 123 c 0,10,11
 757 -12 757 -12 556 -12 c 0,12,13
 353 -12 353 -12 217 123 c 0,14,15
 70 270 70 270 70 518 c 0,16,17
 70 762 70 762 220 912 c 0,18,19
 355 1047 355 1047 556 1047 c 0,4,5
556 976 m 0,20,21
 404 976 404 976 312 847 c 0,22,23
 222 722 222 722 222 518 c 0,24,25
 222 303 222 303 320 180 c 0,26,27
 410 65 410 65 556 65 c 0,28,29
 737 65 737 65 824 225 c 0,30,31
 891 351 891 351 891 516 c 0,32,33
 891 733 891 733 793 859 c 0,34,35
 701 976 701 976 556 976 c 0,20,21
EndSplineSet
Validated: 1
EndChar

StartChar: ocircumflex
Encoding: 244 244 182
Width: 1113
GlyphClass: 2
Flags: W
LayerCount: 2
Fore
SplineSet
517 1445 m 1,0,-1
 603 1445 l 1,1,-1
 808 1247 l 1,2,-1
 769 1204 l 1,3,-1
 558 1341 l 1,4,-1
 349 1204 l 1,5,-1
 313 1247 l 1,6,-1
 517 1445 l 1,0,-1
556 1047 m 0,7,8
 758 1047 758 1047 895 910 c 0,9,10
 1043 762 1043 762 1043 523 c 0,11,12
 1043 270 1043 270 895 123 c 0,13,14
 757 -12 757 -12 556 -12 c 0,15,16
 353 -12 353 -12 217 123 c 0,17,18
 70 270 70 270 70 518 c 0,19,20
 70 762 70 762 220 912 c 0,21,22
 355 1047 355 1047 556 1047 c 0,7,8
556 976 m 0,23,24
 404 976 404 976 312 847 c 0,25,26
 222 722 222 722 222 518 c 0,27,28
 222 303 222 303 320 180 c 0,29,30
 410 65 410 65 556 65 c 0,31,32
 737 65 737 65 824 225 c 0,33,34
 891 351 891 351 891 516 c 0,35,36
 891 733 891 733 793 859 c 0,37,38
 701 976 701 976 556 976 c 0,23,24
EndSplineSet
Validated: 1
EndChar

StartChar: otilde
Encoding: 245 245 183
Width: 1113
GlyphClass: 2
Flags: W
LayerCount: 2
Fore
SplineSet
286 1312 m 1,0,1
 322 1437 322 1437 448 1437 c 0,2,3
 513 1437 513 1437 603 1380 c 0,4,5
 670 1339 670 1339 708 1339 c 0,6,7
 771 1339 771 1339 804 1415 c 1,8,-1
 857 1376 l 1,9,10
 808 1255 808 1255 704 1255 c 0,11,12
 632 1255 632 1255 540 1310 c 0,13,14
 474 1351 474 1351 435 1351 c 0,15,16
 370 1351 370 1351 339 1280 c 1,17,-1
 286 1312 l 1,0,1
556 1047 m 0,18,19
 758 1047 758 1047 895 910 c 0,20,21
 1043 762 1043 762 1043 523 c 0,22,23
 1043 270 1043 270 895 123 c 0,24,25
 757 -12 757 -12 556 -12 c 0,26,27
 353 -12 353 -12 217 123 c 0,28,29
 70 270 70 270 70 518 c 0,30,31
 70 762 70 762 220 912 c 0,32,33
 355 1047 355 1047 556 1047 c 0,18,19
556 976 m 0,34,35
 404 976 404 976 312 847 c 0,36,37
 222 722 222 722 222 518 c 0,38,39
 222 303 222 303 320 180 c 0,40,41
 410 65 410 65 556 65 c 0,42,43
 737 65 737 65 824 225 c 0,44,45
 891 351 891 351 891 516 c 0,46,47
 891 733 891 733 793 859 c 0,48,49
 701 976 701 976 556 976 c 0,34,35
EndSplineSet
Validated: 1
EndChar

StartChar: odieresis
Encoding: 246 246 184
Width: 1113
GlyphClass: 2
Flags: W
LayerCount: 2
Fore
SplineSet
378 1443 m 0,0,1
 472 1443 472 1443 472 1351 c 256,2,3
 472 1259 472 1259 380 1259 c 256,4,5
 288 1259 288 1259 288 1351 c 256,6,7
 288 1443 288 1443 378 1443 c 0,0,1
740 1441 m 0,8,9
 832 1441 832 1441 832 1351 c 0,10,11
 832 1259 832 1259 742 1259 c 0,12,13
 650 1259 650 1259 650 1349 c 0,14,15
 650 1441 650 1441 740 1441 c 0,8,9
556 1047 m 0,16,17
 758 1047 758 1047 895 910 c 0,18,19
 1043 762 1043 762 1043 523 c 0,20,21
 1043 270 1043 270 895 123 c 0,22,23
 757 -12 757 -12 556 -12 c 0,24,25
 353 -12 353 -12 217 123 c 0,26,27
 70 270 70 270 70 518 c 0,28,29
 70 762 70 762 220 912 c 0,30,31
 355 1047 355 1047 556 1047 c 0,16,17
556 976 m 0,32,33
 404 976 404 976 312 847 c 0,34,35
 222 722 222 722 222 518 c 0,36,37
 222 303 222 303 320 180 c 0,38,39
 410 65 410 65 556 65 c 0,40,41
 737 65 737 65 824 225 c 0,42,43
 891 351 891 351 891 516 c 0,44,45
 891 733 891 733 793 859 c 0,46,47
 701 976 701 976 556 976 c 0,32,33
EndSplineSet
Validated: 1
EndChar

StartChar: divide
Encoding: 247 247 185
Width: 1389
GlyphClass: 2
Flags: W
LayerCount: 2
Fore
SplineSet
143 700 m 1,0,-1
 1245 700 l 1,1,-1
 1245 604 l 1,2,-1
 143 604 l 1,3,-1
 143 700 l 1,0,-1
694 1118 m 0,4,5
 755 1118 755 1118 794 1076 c 0,6,7
 827 1039 827 1039 827 985 c 0,8,9
 827 924 827 924 784 885 c 0,10,11
 747 852 747 852 694 852 c 0,12,13
 634 852 634 852 595 896 c 0,14,15
 561 933 561 933 561 985 c 0,16,17
 561 1046 561 1046 604 1084 c 0,18,19
 641 1118 641 1118 694 1118 c 0,4,5
694 448 m 0,20,21
 755 448 755 448 794 405 c 0,22,23
 827 368 827 368 827 315 c 0,24,25
 827 254 827 254 784 215 c 0,26,27
 747 182 747 182 694 182 c 0,28,29
 633 182 633 182 595 225 c 0,30,31
 561 262 561 262 561 315 c 0,32,33
 561 376 561 376 604 415 c 0,34,35
 641 448 641 448 694 448 c 0,20,21
EndSplineSet
Validated: 1
EndChar

StartChar: oslash
Encoding: 248 248 186
Width: 1113
GlyphClass: 2
Flags: W
LayerCount: 2
Fore
SplineSet
916 1053 m 1,0,-1
 973 1006 l 1,1,-1
 891 901 l 1,2,3
 1035 746 1035 746 1035 516 c 0,4,5
 1035 300 1035 300 918 156 c 0,6,7
 781 -12 781 -12 553 -12 c 0,8,9
 377 -12 377 -12 240 100 c 1,10,-1
 136 -29 l 1,11,-1
 76 22 l 1,12,-1
 189 157 l 1,13,14
 70 307 70 307 70 518 c 0,15,16
 70 715 70 715 168 851 c 0,17,18
 307 1041 307 1041 551 1041 c 0,19,20
 705 1041 705 1041 834 955 c 1,21,-1
 916 1053 l 1,0,-1
775 879 m 1,22,23
 685 972 685 972 551 972 c 0,24,25
 405 972 405 972 312 851 c 0,26,27
 220 728 220 728 220 516 c 0,28,29
 220 353 220 353 265 254 c 1,30,-1
 775 879 l 1,22,23
822 815 m 1,31,-1
 308 182 l 1,32,33
 400 65 400 65 552 65 c 0,34,35
 706 65 706 65 796 186 c 0,36,37
 888 306 888 306 888 518 c 0,38,39
 888 700 888 700 822 815 c 1,31,-1
EndSplineSet
Validated: 1
EndChar

StartChar: ugrave
Encoding: 249 249 187
Width: 1099
GlyphClass: 2
Flags: W
LayerCount: 2
Fore
SplineSet
399 1505 m 1,0,-1
 649 1251 l 1,1,-1
 606 1206 l 1,2,-1
 300 1407 l 1,3,-1
 399 1505 l 1,0,-1
823 902 m 2,4,5
 823 996 823 996 772 1015 c 1,6,7
 864 1023 864 1023 956 1041 c 1,8,-1
 956 127 l 2,9,10
 956 48 956 48 999 20 c 1,11,-1
 835 20 l 1,12,-1
 825 186 l 1,13,14
 702 -20 702 -20 479 -20 c 0,15,16
 141 -20 141 -20 141 346 c 2,17,-1
 141 899 l 2,18,19
 141 1003 141 1003 94 1014 c 1,20,21
 192 1023 192 1023 276 1041 c 1,22,-1
 276 377 l 2,23,24
 276 66 276 66 503 66 c 0,25,26
 623 66 623 66 707.5 144 c 128,-1,27
 792 222 792 222 823 338 c 1,28,-1
 823 902 l 2,4,5
EndSplineSet
Validated: 1
EndChar

StartChar: uacute
Encoding: 250 250 188
Width: 1099
GlyphClass: 2
Flags: W
LayerCount: 2
Fore
SplineSet
696 1505 m 1,0,-1
 796 1407 l 1,1,-1
 491 1206 l 1,2,-1
 446 1251 l 1,3,-1
 696 1505 l 1,0,-1
823 902 m 2,4,5
 823 996 823 996 772 1015 c 1,6,7
 864 1023 864 1023 956 1041 c 1,8,-1
 956 127 l 2,9,10
 956 48 956 48 999 20 c 1,11,-1
 835 20 l 1,12,-1
 825 186 l 1,13,14
 702 -20 702 -20 479 -20 c 0,15,16
 141 -20 141 -20 141 346 c 2,17,-1
 141 899 l 2,18,19
 141 1003 141 1003 94 1014 c 1,20,21
 192 1023 192 1023 276 1041 c 1,22,-1
 276 377 l 2,23,24
 276 66 276 66 503 66 c 0,25,26
 623 66 623 66 707.5 144 c 128,-1,27
 792 222 792 222 823 338 c 1,28,-1
 823 902 l 2,4,5
EndSplineSet
Validated: 1
EndChar

StartChar: ucircumflex
Encoding: 251 251 189
Width: 1099
GlyphClass: 2
Flags: W
LayerCount: 2
Fore
SplineSet
501 1439 m 1,0,-1
 589 1439 l 1,1,-1
 792 1241 l 1,2,-1
 755 1198 l 1,3,-1
 544 1335 l 1,4,-1
 333 1198 l 1,5,-1
 296 1241 l 1,6,-1
 501 1439 l 1,0,-1
823 902 m 2,7,8
 823 996 823 996 772 1015 c 1,9,10
 864 1023 864 1023 956 1041 c 1,11,-1
 956 127 l 2,12,13
 956 48 956 48 999 20 c 1,14,-1
 835 20 l 1,15,-1
 825 186 l 1,16,17
 702 -20 702 -20 479 -20 c 0,18,19
 141 -20 141 -20 141 346 c 2,20,-1
 141 899 l 2,21,22
 141 1003 141 1003 94 1014 c 1,23,24
 192 1023 192 1023 276 1041 c 1,25,-1
 276 377 l 2,26,27
 276 66 276 66 503 66 c 0,28,29
 623 66 623 66 707.5 144 c 128,-1,30
 792 222 792 222 823 338 c 1,31,-1
 823 902 l 2,7,8
EndSplineSet
Validated: 1
EndChar

StartChar: udieresis
Encoding: 252 252 190
Width: 1099
GlyphClass: 2
Flags: W
LayerCount: 2
Fore
SplineSet
364 1435 m 0,0,1
 456 1435 456 1435 456 1345 c 0,2,3
 456 1253 456 1253 366 1253 c 0,4,5
 274 1253 274 1253 274 1343 c 0,6,7
 274 1435 274 1435 364 1435 c 0,0,1
724 1437 m 0,8,9
 818 1437 818 1437 818 1345 c 256,10,11
 818 1253 818 1253 726 1253 c 256,12,13
 634 1253 634 1253 634 1345 c 256,14,15
 634 1437 634 1437 724 1437 c 0,8,9
823 902 m 2,16,17
 823 996 823 996 772 1015 c 1,18,19
 864 1023 864 1023 956 1041 c 1,20,-1
 956 127 l 2,21,22
 956 48 956 48 999 20 c 1,23,-1
 835 20 l 1,24,-1
 825 186 l 1,25,26
 702 -20 702 -20 479 -20 c 0,27,28
 141 -20 141 -20 141 346 c 2,29,-1
 141 899 l 2,30,31
 141 1003 141 1003 94 1014 c 1,32,33
 192 1023 192 1023 276 1041 c 1,34,-1
 276 377 l 2,35,36
 276 66 276 66 503 66 c 0,37,38
 623 66 623 66 707.5 144 c 128,-1,39
 792 222 792 222 823 338 c 1,40,-1
 823 902 l 2,16,17
EndSplineSet
Validated: 1
EndChar

StartChar: yacute
Encoding: 253 253 191
Width: 962
GlyphClass: 2
Flags: W
LayerCount: 2
Fore
SplineSet
660 1505 m 1,0,-1
 761 1407 l 1,1,-1
 455 1206 l 1,2,-1
 410 1251 l 1,3,-1
 660 1505 l 1,0,-1
518 191 m 1,4,-1
 800 908 l 2,5,6
 814 944 814 944 814 965 c 0,7,8
 814 999 814 999 783 1018 c 1,9,-1
 973 1018 l 1,10,11
 921 989 921 989 894 924 c 2,12,-1
 438 -211 l 2,13,14
 366 -389 366 -389 225 -389 c 0,15,16
 191 -389 191 -389 165 -383 c 1,17,-1
 154 -282 l 2,18,19
 154 -286 154 -286 167.5 -291 c 128,-1,20
 181 -296 181 -296 194 -298 c 2,21,-1
 208 -301 l 1,22,-1
 258 -301 l 2,23,24
 326 -301 326 -301 374 -176 c 2,25,-1
 454 39 l 1,26,-1
 72 901 l 2,27,28
 32 992 32 992 -8 1018 c 1,29,-1
 220 1018 l 1,30,31
 195 1001 195 1001 195 973 c 0,32,33
 195 949 195 949 211 912 c 2,34,-1
 518 191 l 1,4,-1
EndSplineSet
Validated: 5
EndChar

StartChar: thorn
Encoding: 254 254 192
Width: 1116
GlyphClass: 2
Flags: W
LayerCount: 2
Fore
SplineSet
318 -352 m 1,0,-1
 100 -352 l 1,1,2
 139 -329 139 -329 139 -244 c 2,3,-1
 139 1354 l 2,4,5
 139 1445 139 1445 98 1467 c 1,6,7
 195 1475 195 1475 276 1495 c 1,8,-1
 276 844 l 1,9,10
 396 1038 396 1038 610 1038 c 0,11,12
 825 1038 825 1038 948 866 c 0,13,14
 1046 728 1046 728 1046 522 c 0,15,16
 1046 350 1046 350 972 221 c 0,17,18
 846 2 846 2 610 2 c 0,19,20
 390 2 390 2 276 178 c 1,21,-1
 276 -244 l 2,22,23
 276 -323 276 -323 318 -352 c 1,0,-1
276 323 m 1,24,25
 297 253 297 253 338 207 c 0,26,27
 439 84 439 84 600 84 c 0,28,29
 751 84 751 84 837 231 c 0,30,31
 903 347 903 347 903 518 c 0,32,33
 903 676 903 676 844 788 c 0,34,35
 754 954 754 954 585 954 c 0,36,37
 378 954 378 954 276 699 c 1,38,-1
 276 323 l 1,24,25
EndSplineSet
Validated: 1
EndChar

StartChar: ydieresis
Encoding: 255 255 193
Width: 962
GlyphClass: 2
Flags: W
LayerCount: 2
Fore
SplineSet
318 1435 m 0,0,1
 412 1435 412 1435 412 1345 c 0,2,3
 412 1253 412 1253 320 1253 c 0,4,5
 230 1253 230 1253 230 1343 c 0,6,7
 230 1435 230 1435 318 1435 c 0,0,1
681 1435 m 0,8,9
 773 1435 773 1435 773 1345 c 0,10,11
 773 1253 773 1253 683 1253 c 0,12,13
 591 1253 591 1253 591 1343 c 0,14,15
 591 1435 591 1435 681 1435 c 0,8,9
518 191 m 1,16,-1
 800 908 l 2,17,18
 814 944 814 944 814 965 c 0,19,20
 814 999 814 999 783 1018 c 1,21,-1
 973 1018 l 1,22,23
 921 989 921 989 894 924 c 2,24,-1
 438 -211 l 2,25,26
 366 -389 366 -389 225 -389 c 0,27,28
 191 -389 191 -389 165 -383 c 1,29,-1
 154 -282 l 2,30,31
 154 -286 154 -286 167.5 -291 c 128,-1,32
 181 -296 181 -296 194 -298 c 2,33,-1
 208 -301 l 1,34,-1
 258 -301 l 2,35,36
 326 -301 326 -301 374 -176 c 2,37,-1
 454 39 l 1,38,-1
 72 901 l 2,39,40
 32 992 32 992 -8 1018 c 1,41,-1
 220 1018 l 1,42,43
 195 1001 195 1001 195 973 c 0,44,45
 195 949 195 949 211 912 c 2,46,-1
 518 191 l 1,16,-1
EndSplineSet
Validated: 5
EndChar

StartChar: Amacron
Encoding: 256 256 194
Width: 1323
GlyphClass: 2
Flags: W
LayerCount: 2
Fore
SplineSet
399 1771 m 1,0,-1
 915 1771 l 1,1,-1
 915 1679 l 1,2,-1
 399 1679 l 1,3,-1
 399 1771 l 1,0,-1
205 20 m 1,4,-1
 -18 20 l 1,5,6
 55 58 55 58 95 159 c 2,7,-1
 624 1487 l 1,8,-1
 679 1487 l 1,9,-1
 1221 147 l 2,10,11
 1258 56 1258 56 1336 20 c 1,12,-1
 1050 20 l 1,13,14
 1084 38 1084 38 1084 69 c 0,15,16
 1084 116 1084 116 1063 167 c 2,17,-1
 915 526 l 1,18,-1
 337 526 l 1,19,-1
 196 157 l 2,20,21
 173 97 173 97 173 67 c 128,-1,22
 173 37 173 37 205 20 c 1,4,-1
888 604 m 1,23,-1
 626 1261 l 1,24,-1
 366 604 l 1,25,-1
 888 604 l 1,23,-1
EndSplineSet
Validated: 1
EndChar

StartChar: amacron
Encoding: 257 257 195
Width: 966
GlyphClass: 2
Flags: W
LayerCount: 2
Fore
SplineSet
241 1368 m 1,0,-1
 759 1368 l 1,1,-1
 759 1278 l 1,2,-1
 241 1278 l 1,3,-1
 241 1368 l 1,0,-1
725 276 m 1,4,-1
 725 557 l 1,5,-1
 639 553 l 2,6,7
 213 532 213 532 213 278 c 0,8,9
 213 184 213 184 272 124 c 0,10,11
 330 67 330 67 418 67 c 0,12,13
 538 67 538 67 633 141 c 0,14,15
 697 193 697 193 725 276 c 1,4,-1
739 165 m 1,16,17
 614 -14 614 -14 391 -14 c 0,18,19
 256 -14 256 -14 166 57 c 0,20,21
 70 135 70 135 70 266 c 0,22,23
 70 589 70 589 621 623 c 2,24,-1
 725 629 l 1,25,-1
 725 666 l 2,26,27
 725 819 725 819 660 896.5 c 128,-1,28
 595 974 595 974 473 974 c 0,29,30
 391 974 391 974 311 937 c 128,-1,31
 231 900 231 900 202 847 c 1,32,-1
 180 950 l 1,33,34
 235 987 235 987 324 1015 c 128,-1,35
 413 1043 413 1043 484 1043 c 0,36,37
 665 1043 665 1043 759.5 952.5 c 128,-1,38
 854 862 854 862 854 684 c 2,39,-1
 855 129 l 2,40,41
 855 41 855 41 896 20 c 1,42,-1
 748 20 l 1,43,-1
 739 165 l 1,16,17
EndSplineSet
Validated: 1
EndChar

StartChar: Abreve
Encoding: 258 258 196
Width: 1323
GlyphClass: 2
Flags: W
LayerCount: 2
Fore
SplineSet
925 1831 m 1,0,1
 922 1719 922 1719 835 1659 c 0,2,3
 764 1610 764 1610 653 1610 c 0,4,5
 537 1610 537 1610 462 1663 c 0,6,7
 381 1723 381 1723 378 1831 c 1,8,-1
 440 1831 l 1,9,10
 461 1708 461 1708 653 1708 c 0,11,12
 840 1708 840 1708 862 1831 c 1,13,-1
 925 1831 l 1,0,1
205 20 m 1,14,-1
 -18 20 l 1,15,16
 55 58 55 58 95 159 c 2,17,-1
 624 1487 l 1,18,-1
 679 1487 l 1,19,-1
 1221 147 l 2,20,21
 1258 56 1258 56 1336 20 c 1,22,-1
 1050 20 l 1,23,24
 1084 38 1084 38 1084 69 c 0,25,26
 1084 116 1084 116 1063 167 c 2,27,-1
 915 526 l 1,28,-1
 337 526 l 1,29,-1
 196 157 l 2,30,31
 173 97 173 97 173 67 c 128,-1,32
 173 37 173 37 205 20 c 1,14,-1
888 604 m 1,33,-1
 626 1261 l 1,34,-1
 366 604 l 1,35,-1
 888 604 l 1,33,-1
EndSplineSet
Validated: 1
EndChar

StartChar: abreve
Encoding: 259 259 197
Width: 966
GlyphClass: 2
Flags: W
LayerCount: 2
Fore
SplineSet
763 1450 m 1,0,1
 760 1239 760 1239 507 1239 c 0,2,3
 256 1239 256 1239 253 1450 c 1,4,-1
 311 1450 l 1,5,6
 332 1327 332 1327 507 1327 c 256,7,8
 682 1327 682 1327 704 1450 c 1,9,-1
 763 1450 l 1,0,1
725 276 m 1,10,-1
 725 557 l 1,11,-1
 639 553 l 2,12,13
 213 532 213 532 213 278 c 0,14,15
 213 184 213 184 272 124 c 0,16,17
 330 67 330 67 418 67 c 0,18,19
 538 67 538 67 633 141 c 0,20,21
 697 193 697 193 725 276 c 1,10,-1
739 165 m 1,22,23
 614 -14 614 -14 391 -14 c 0,24,25
 256 -14 256 -14 166 57 c 0,26,27
 70 135 70 135 70 266 c 0,28,29
 70 589 70 589 621 623 c 2,30,-1
 725 629 l 1,31,-1
 725 666 l 2,32,33
 725 819 725 819 660 896.5 c 128,-1,34
 595 974 595 974 473 974 c 0,35,36
 391 974 391 974 311 937 c 128,-1,37
 231 900 231 900 202 847 c 1,38,-1
 180 950 l 1,39,40
 235 987 235 987 324 1015 c 128,-1,41
 413 1043 413 1043 484 1043 c 0,42,43
 665 1043 665 1043 759.5 952.5 c 128,-1,44
 854 862 854 862 854 684 c 2,45,-1
 855 129 l 2,46,47
 855 41 855 41 896 20 c 1,48,-1
 748 20 l 1,49,-1
 739 165 l 1,22,23
EndSplineSet
Validated: 1
EndChar

StartChar: Aogonek
Encoding: 260 260 198
Width: 1323
GlyphClass: 2
Flags: W
LayerCount: 2
Fore
SplineSet
888 604 m 1,0,-1
 626 1261 l 1,1,-1
 366 604 l 1,2,-1
 888 604 l 1,0,-1
205 20 m 1,3,-1
 -18 20 l 1,4,5
 55 58 55 58 95 159 c 2,6,-1
 624 1487 l 1,7,-1
 679 1487 l 1,8,-1
 1221 147 l 2,9,10
 1240 101 1240 101 1268.5 69.5 c 128,-1,11
 1297 38 1297 38 1336 20 c 1,12,-1
 1287 20 l 1,13,-1
 1243 -21 l 2,14,15
 1116 -141 1116 -141 1116 -208 c 0,16,17
 1116 -282 1116 -282 1195 -282 c 0,18,19
 1269 -282 1269 -282 1338 -221 c 1,20,-1
 1363 -272 l 1,21,22
 1271 -357 1271 -357 1165 -357 c 0,23,24
 1007 -357 1007 -357 1007 -224 c 0,25,26
 1007 -137 1007 -137 1146 -18 c 2,27,-1
 1191 20 l 1,28,-1
 1050 20 l 1,29,30
 1084 38 1084 38 1084 69 c 0,31,32
 1084 116 1084 116 1063 167 c 2,33,-1
 915 526 l 1,34,-1
 337 526 l 1,35,-1
 196 157 l 2,36,37
 173 97 173 97 173 67 c 128,-1,38
 173 37 173 37 205 20 c 1,3,-1
EndSplineSet
Validated: 1
EndChar

StartChar: aogonek
Encoding: 261 261 199
Width: 966
GlyphClass: 2
Flags: W
LayerCount: 2
Fore
SplineSet
725 276 m 1,0,-1
 725 557 l 1,1,-1
 639 553 l 2,2,3
 213 532 213 532 213 278 c 0,4,5
 213 184 213 184 272 124 c 0,6,7
 330 67 330 67 418 67 c 0,8,9
 538 67 538 67 633 141 c 0,10,11
 697 193 697 193 725 276 c 1,0,-1
739 165 m 1,12,13
 614 -14 614 -14 391 -14 c 0,14,15
 256 -14 256 -14 166 57 c 0,16,17
 70 135 70 135 70 266 c 0,18,19
 70 589 70 589 621 623 c 2,20,-1
 725 629 l 1,21,-1
 725 666 l 2,22,23
 725 819 725 819 660 896.5 c 128,-1,24
 595 974 595 974 473 974 c 0,25,26
 391 974 391 974 311 937 c 128,-1,27
 231 900 231 900 202 847 c 1,28,-1
 180 950 l 1,29,30
 235 987 235 987 324 1015 c 128,-1,31
 413 1043 413 1043 484 1043 c 0,32,33
 665 1043 665 1043 759.5 952.5 c 128,-1,34
 854 862 854 862 854 684 c 2,35,-1
 855 129 l 2,36,37
 855 41 855 41 896 20 c 1,38,-1
 852 -21 l 2,39,40
 725 -141 725 -141 725 -208 c 0,41,42
 725 -282 725 -282 804 -282 c 0,43,44
 878 -282 878 -282 947 -221 c 1,45,-1
 972 -272 l 1,46,47
 880 -357 880 -357 774 -357 c 0,48,49
 616 -357 616 -357 616 -224 c 0,50,51
 616 -137 616 -137 755 -18 c 2,52,-1
 800 20 l 1,53,-1
 748 20 l 1,54,-1
 739 165 l 1,12,13
EndSplineSet
Validated: 1
EndChar

StartChar: Cacute
Encoding: 262 262 200
Width: 1452
GlyphClass: 2
Flags: W
LayerCount: 2
Fore
SplineSet
945 1874 m 1,0,-1
 1043 1774 l 1,1,-1
 712 1561 l 1,2,-1
 665 1614 l 1,3,-1
 945 1874 l 1,0,-1
251 751 m 0,4,5
 251 509 251 509 351 331 c 0,6,7
 496 73 496 73 794 73 c 0,8,9
 915 73 915 73 1042 113.5 c 128,-1,10
 1169 154 1169 154 1234 226 c 0,11,12
 1301 302 1301 302 1334 403 c 1,13,-1
 1334 138 l 1,14,15
 1327 148 1327 148 1316 148 c 0,16,17
 1300 148 1300 148 1258 119 c 0,18,19
 1178 62 1178 62 1042 30.5 c 128,-1,20
 906 -1 906 -1 783 -1 c 0,21,22
 498 -1 498 -1 304 194 c 0,23,24
 190 309 190 309 137.5 434 c 128,-1,25
 85 559 85 559 85 735 c 0,26,27
 85 1098 85 1098 306 1320 c 0,28,29
 500 1515 500 1515 785 1515 c 0,30,31
 908 1515 908 1515 1044 1483.5 c 128,-1,32
 1180 1452 1180 1452 1260 1395 c 0,33,34
 1302 1366 1302 1366 1318 1366 c 0,35,36
 1329 1366 1329 1366 1336 1376 c 1,37,-1
 1336 1111 l 1,38,39
 1303 1212 1303 1212 1236 1288 c 0,40,41
 1171 1360 1171 1360 1044 1400.5 c 128,-1,42
 917 1441 917 1441 796 1441 c 0,43,44
 498 1441 498 1441 353 1183 c 0,45,46
 251 1002 251 1002 251 751 c 0,4,5
EndSplineSet
Validated: 1
EndChar

StartChar: cacute
Encoding: 263 263 201
Width: 847
GlyphClass: 2
Flags: W
LayerCount: 2
Fore
SplineSet
699 1507 m 1,0,-1
 797 1409 l 1,1,-1
 492 1208 l 1,2,-1
 449 1253 l 1,3,-1
 699 1507 l 1,0,-1
222 513 m 0,4,5
 222 346 222 346 294 217 c 0,6,7
 383 57 383 57 562 57 c 0,8,9
 721 57 721 57 795 169 c 1,10,-1
 822 64 l 1,11,12
 713 -12 713 -12 555 -12 c 0,13,14
 351 -12 351 -12 220 123 c 0,15,16
 70 278 70 278 70 513 c 0,17,18
 70 753 70 753 220 908 c 0,19,20
 351 1043 351 1043 555 1043 c 0,21,22
 713 1043 713 1043 822 967 c 1,23,-1
 795 862 l 1,24,25
 721 974 721 974 562 974 c 0,26,27
 383 974 383 974 294 814 c 0,28,29
 222 685 222 685 222 513 c 0,4,5
EndSplineSet
Validated: 1
EndChar

StartChar: Ccircumflex
Encoding: 264 264 202
Width: 1452
GlyphClass: 2
Flags: W
LayerCount: 2
Fore
SplineSet
726 1849 m 1,0,-1
 822 1849 l 1,1,-1
 1052 1636 l 1,2,-1
 1003 1593 l 1,3,-1
 775 1745 l 1,4,-1
 542 1593 l 1,5,-1
 495 1636 l 1,6,-1
 726 1849 l 1,0,-1
251 751 m 0,7,8
 251 509 251 509 351 331 c 0,9,10
 496 73 496 73 794 73 c 0,11,12
 915 73 915 73 1042 113.5 c 128,-1,13
 1169 154 1169 154 1234 226 c 0,14,15
 1301 302 1301 302 1334 403 c 1,16,-1
 1334 138 l 1,17,18
 1327 148 1327 148 1316 148 c 0,19,20
 1300 148 1300 148 1258 119 c 0,21,22
 1178 62 1178 62 1042 30.5 c 128,-1,23
 906 -1 906 -1 783 -1 c 0,24,25
 498 -1 498 -1 304 194 c 0,26,27
 190 309 190 309 137.5 434 c 128,-1,28
 85 559 85 559 85 735 c 0,29,30
 85 1098 85 1098 306 1320 c 0,31,32
 500 1515 500 1515 785 1515 c 0,33,34
 908 1515 908 1515 1044 1483.5 c 128,-1,35
 1180 1452 1180 1452 1260 1395 c 0,36,37
 1302 1366 1302 1366 1318 1366 c 0,38,39
 1329 1366 1329 1366 1336 1376 c 1,40,-1
 1336 1111 l 1,41,42
 1303 1212 1303 1212 1236 1288 c 0,43,44
 1171 1360 1171 1360 1044 1400.5 c 128,-1,45
 917 1441 917 1441 796 1441 c 0,46,47
 498 1441 498 1441 353 1183 c 0,48,49
 251 1002 251 1002 251 751 c 0,7,8
EndSplineSet
Validated: 1
EndChar

StartChar: ccircumflex
Encoding: 265 265 203
Width: 847
GlyphClass: 2
Flags: W
LayerCount: 2
Fore
SplineSet
512 1441 m 1,0,-1
 598 1441 l 1,1,-1
 803 1243 l 1,2,-1
 764 1200 l 1,3,-1
 555 1337 l 1,4,-1
 344 1200 l 1,5,-1
 308 1243 l 1,6,-1
 512 1441 l 1,0,-1
222 513 m 0,7,8
 222 346 222 346 294 217 c 0,9,10
 383 57 383 57 562 57 c 0,11,12
 721 57 721 57 795 169 c 1,13,-1
 822 64 l 1,14,15
 713 -12 713 -12 555 -12 c 0,16,17
 351 -12 351 -12 220 123 c 0,18,19
 70 278 70 278 70 513 c 0,20,21
 70 753 70 753 220 908 c 0,22,23
 351 1043 351 1043 555 1043 c 0,24,25
 713 1043 713 1043 822 967 c 1,26,-1
 795 862 l 1,27,28
 721 974 721 974 562 974 c 0,29,30
 383 974 383 974 294 814 c 0,31,32
 222 685 222 685 222 513 c 0,7,8
EndSplineSet
Validated: 1
EndChar

StartChar: Cdotaccent
Encoding: 266 266 204
Width: 1452
GlyphClass: 2
Flags: W
LayerCount: 2
Fore
SplineSet
786 1803 m 0,0,1
 885 1803 885 1803 885 1707 c 0,2,3
 885 1608 885 1608 786 1608 c 0,4,5
 690 1608 690 1608 690 1704 c 0,6,7
 690 1803 690 1803 786 1803 c 0,0,1
251 751 m 0,8,9
 251 509 251 509 351 331 c 0,10,11
 496 73 496 73 794 73 c 0,12,13
 915 73 915 73 1042 113.5 c 128,-1,14
 1169 154 1169 154 1234 226 c 0,15,16
 1301 302 1301 302 1334 403 c 1,17,-1
 1334 138 l 1,18,19
 1327 148 1327 148 1316 148 c 0,20,21
 1300 148 1300 148 1258 119 c 0,22,23
 1178 62 1178 62 1042 30.5 c 128,-1,24
 906 -1 906 -1 783 -1 c 0,25,26
 498 -1 498 -1 304 194 c 0,27,28
 190 309 190 309 137.5 434 c 128,-1,29
 85 559 85 559 85 735 c 0,30,31
 85 1098 85 1098 306 1320 c 0,32,33
 500 1515 500 1515 785 1515 c 0,34,35
 908 1515 908 1515 1044 1483.5 c 128,-1,36
 1180 1452 1180 1452 1260 1395 c 0,37,38
 1302 1366 1302 1366 1318 1366 c 0,39,40
 1329 1366 1329 1366 1336 1376 c 1,41,-1
 1336 1111 l 1,42,43
 1303 1212 1303 1212 1236 1288 c 0,44,45
 1171 1360 1171 1360 1044 1400.5 c 128,-1,46
 917 1441 917 1441 796 1441 c 0,47,48
 498 1441 498 1441 353 1183 c 0,49,50
 251 1002 251 1002 251 751 c 0,8,9
EndSplineSet
Validated: 1
EndChar

StartChar: cdotaccent
Encoding: 267 267 205
Width: 847
GlyphClass: 2
Flags: W
LayerCount: 2
Fore
SplineSet
542 1410 m 0,0,1
 643 1410 643 1410 643 1310 c 0,2,3
 643 1209 643 1209 542 1209 c 0,4,5
 442 1209 442 1209 442 1307 c 0,6,7
 442 1410 442 1410 542 1410 c 0,0,1
222 513 m 0,8,9
 222 346 222 346 294 217 c 0,10,11
 383 57 383 57 562 57 c 0,12,13
 721 57 721 57 795 169 c 1,14,-1
 822 64 l 1,15,16
 713 -12 713 -12 555 -12 c 0,17,18
 351 -12 351 -12 220 123 c 0,19,20
 70 278 70 278 70 513 c 0,21,22
 70 753 70 753 220 908 c 0,23,24
 351 1043 351 1043 555 1043 c 0,25,26
 713 1043 713 1043 822 967 c 1,27,-1
 795 862 l 1,28,29
 721 974 721 974 562 974 c 0,30,31
 383 974 383 974 294 814 c 0,32,33
 222 685 222 685 222 513 c 0,8,9
EndSplineSet
Validated: 1
EndChar

StartChar: Ccaron
Encoding: 268 268 206
Width: 1452
GlyphClass: 2
Flags: W
LayerCount: 2
Fore
SplineSet
555 1841 m 1,0,-1
 787 1688 l 1,1,-1
 1016 1841 l 1,2,-1
 1065 1798 l 1,3,-1
 834 1583 l 1,4,-1
 739 1583 l 1,5,-1
 508 1798 l 1,6,-1
 555 1841 l 1,0,-1
251 751 m 0,7,8
 251 509 251 509 351 331 c 0,9,10
 496 73 496 73 794 73 c 0,11,12
 915 73 915 73 1042 113.5 c 128,-1,13
 1169 154 1169 154 1234 226 c 0,14,15
 1301 302 1301 302 1334 403 c 1,16,-1
 1334 138 l 1,17,18
 1327 148 1327 148 1316 148 c 0,19,20
 1300 148 1300 148 1258 119 c 0,21,22
 1178 62 1178 62 1042 30.5 c 128,-1,23
 906 -1 906 -1 783 -1 c 0,24,25
 498 -1 498 -1 304 194 c 0,26,27
 190 309 190 309 137.5 434 c 128,-1,28
 85 559 85 559 85 735 c 0,29,30
 85 1098 85 1098 306 1320 c 0,31,32
 500 1515 500 1515 785 1515 c 0,33,34
 908 1515 908 1515 1044 1483.5 c 128,-1,35
 1180 1452 1180 1452 1260 1395 c 0,36,37
 1302 1366 1302 1366 1318 1366 c 0,38,39
 1329 1366 1329 1366 1336 1376 c 1,40,-1
 1336 1111 l 1,41,42
 1303 1212 1303 1212 1236 1288 c 0,43,44
 1171 1360 1171 1360 1044 1400.5 c 128,-1,45
 917 1441 917 1441 796 1441 c 0,46,47
 498 1441 498 1441 353 1183 c 0,48,49
 251 1002 251 1002 251 751 c 0,7,8
EndSplineSet
Validated: 1
EndChar

StartChar: ccaron
Encoding: 269 269 207
Width: 847
GlyphClass: 2
Flags: W
LayerCount: 2
Fore
SplineSet
334 1474 m 1,0,-1
 545 1337 l 1,1,-1
 756 1474 l 1,2,-1
 791 1431 l 1,3,-1
 588 1231 l 1,4,-1
 500 1231 l 1,5,-1
 297 1431 l 1,6,-1
 334 1474 l 1,0,-1
222 513 m 0,7,8
 222 346 222 346 294 217 c 0,9,10
 383 57 383 57 562 57 c 0,11,12
 721 57 721 57 795 169 c 1,13,-1
 822 64 l 1,14,15
 713 -12 713 -12 555 -12 c 0,16,17
 351 -12 351 -12 220 123 c 0,18,19
 70 278 70 278 70 513 c 0,20,21
 70 753 70 753 220 908 c 0,22,23
 351 1043 351 1043 555 1043 c 0,24,25
 713 1043 713 1043 822 967 c 1,26,-1
 795 862 l 1,27,28
 721 974 721 974 562 974 c 0,29,30
 383 974 383 974 294 814 c 0,31,32
 222 685 222 685 222 513 c 0,7,8
EndSplineSet
Validated: 1
EndChar

StartChar: Dcaron
Encoding: 270 270 208
Width: 1440
GlyphClass: 2
Flags: W
LayerCount: 2
Fore
SplineSet
415 1841 m 1,0,-1
 647 1688 l 1,1,-1
 876 1841 l 1,2,-1
 923 1798 l 1,3,-1
 694 1583 l 1,4,-1
 598 1583 l 1,5,-1
 368 1798 l 1,6,-1
 415 1841 l 1,0,-1
315 239 m 2,7,8
 315 153 315 153 357.5 122.5 c 128,-1,9
 400 92 400 92 497 92 c 2,10,-1
 571 92 l 2,11,12
 829 92 829 92 954 180 c 0,13,14
 1189 342 1189 342 1189 755 c 0,15,16
 1189 1399 1189 1399 571 1399 c 2,17,-1
 497 1399 l 2,18,19
 401 1399 401 1399 358 1366.5 c 128,-1,20
 315 1334 315 1334 315 1243 c 2,21,-1
 315 239 l 2,7,8
172 1323 m 2,22,23
 172 1389 172 1389 156.5 1419.5 c 128,-1,24
 141 1450 141 1450 101 1464 c 1,25,-1
 587 1464 l 2,26,27
 905 1464 905 1464 1091 1327 c 0,28,29
 1355 1133 1355 1133 1355 745 c 0,30,31
 1355 258 1355 258 968 86 c 0,32,33
 818 20 818 20 577 20 c 2,34,-1
 105 20 l 1,35,36
 172 44 172 44 172 157 c 2,37,-1
 172 1323 l 2,22,23
EndSplineSet
Validated: 1
EndChar

StartChar: dcaron
Encoding: 271 271 209
Width: 1120
GlyphClass: 2
Flags: W
LayerCount: 2
Fore
SplineSet
1055 1109 m 1,0,1
 1149 1198 1149 1198 1168 1303 c 1,2,3
 1065 1307 1065 1307 1065 1406 c 0,4,5
 1065 1431 1065 1431 1078 1455 c 0,6,7
 1107 1509 1107 1509 1168 1509 c 0,8,9
 1194 1509 1194 1509 1217 1496 c 0,10,11
 1271 1464 1271 1464 1271 1401 c 0,12,13
 1271 1231 1271 1231 1082 1085 c 1,14,-1
 1055 1109 l 1,0,1
215 520 m 0,15,16
 215 433 215 433 235.5 355 c 128,-1,17
 256 277 256 277 294.5 215.5 c 128,-1,18
 333 154 333 154 395 118 c 128,-1,19
 457 82 457 82 535 82 c 0,20,21
 680 82 680 82 776 215 c 0,22,23
 848 315 848 315 848 416 c 2,24,-1
 848 686 l 2,25,26
 848 798 848 798 723 887 c 0,27,28
 634 954 634 954 526 954 c 0,29,30
 425 954 425 954 353 891.5 c 128,-1,31
 281 829 281 829 248 732.5 c 128,-1,32
 215 636 215 636 215 520 c 0,15,16
848 1354 m 2,33,34
 848 1451 848 1451 798 1469 c 1,35,36
 893 1477 893 1477 981 1495 c 1,37,-1
 981 129 l 2,38,39
 981 47 981 47 1021 20 c 1,40,-1
 854 20 l 1,41,-1
 844 196 l 1,42,43
 725 -2 725 -2 506 -2 c 0,44,45
 304 -2 304 -2 187 145.5 c 128,-1,46
 70 293 70 293 70 514 c 0,47,48
 70 768 70 768 217 915 c 0,49,50
 340 1038 340 1038 508 1038 c 0,51,52
 722 1038 722 1038 848 860 c 1,53,-1
 848 1354 l 2,33,34
EndSplineSet
Validated: 1
EndChar

StartChar: Dcroat
Encoding: 272 272 210
Width: 1440
GlyphClass: 2
Flags: W
LayerCount: 2
Fore
SplineSet
172 1323 m 2,0,1
 172 1389 172 1389 156.5 1419.5 c 128,-1,2
 141 1450 141 1450 101 1464 c 1,3,-1
 587 1464 l 2,4,5
 905 1464 905 1464 1091 1327 c 0,6,7
 1355 1133 1355 1133 1355 745 c 0,8,9
 1355 258 1355 258 968 86 c 0,10,11
 818 20 818 20 577 20 c 2,12,-1
 105 20 l 1,13,14
 172 44 172 44 172 157 c 2,15,-1
 172 708 l 1,16,-1
 -25 708 l 1,17,-1
 -25 782 l 1,18,-1
 172 782 l 1,19,-1
 172 1323 l 2,0,1
315 239 m 2,20,21
 315 153 315 153 357.5 122.5 c 128,-1,22
 400 92 400 92 497 92 c 2,23,-1
 571 92 l 2,24,25
 829 92 829 92 954 180 c 0,26,27
 1189 342 1189 342 1189 755 c 0,28,29
 1189 1399 1189 1399 571 1399 c 2,30,-1
 497 1399 l 2,31,32
 401 1399 401 1399 358 1366.5 c 128,-1,33
 315 1334 315 1334 315 1243 c 2,34,-1
 315 782 l 1,35,-1
 675 782 l 1,36,-1
 675 708 l 1,37,-1
 315 708 l 1,38,-1
 315 239 l 2,20,21
EndSplineSet
Validated: 1
EndChar

StartChar: dcroat
Encoding: 273 273 211
Width: 1120
GlyphClass: 2
Flags: W
LayerCount: 2
Fore
SplineSet
848 416 m 2,0,-1
 848 686 l 2,1,2
 848 798 848 798 723 887 c 0,3,4
 634 954 634 954 526 954 c 0,5,6
 386 954 386 954 299 833 c 0,7,8
 215 712 215 712 215 520 c 0,9,10
 215 314 215 314 311 193 c 0,11,12
 400 82 400 82 535 82 c 0,13,14
 680 82 680 82 776 215 c 0,15,16
 848 315 848 315 848 416 c 2,0,-1
848 1354 m 2,17,18
 848 1451 848 1451 798 1469 c 1,19,20
 893 1477 893 1477 981 1495 c 1,21,-1
 981 1280 l 1,22,-1
 1101 1280 l 1,23,-1
 1101 1190 l 1,24,-1
 981 1190 l 1,25,-1
 981 129 l 2,26,27
 981 47 981 47 1021 20 c 1,28,-1
 854 20 l 1,29,-1
 844 196 l 1,30,31
 725 -2 725 -2 506 -2 c 0,32,33
 304 -2 304 -2 187 145.5 c 128,-1,34
 70 293 70 293 70 514 c 0,35,36
 70 768 70 768 217 915 c 0,37,38
 340 1038 340 1038 508 1038 c 0,39,40
 722 1038 722 1038 848 860 c 1,41,-1
 848 1190 l 1,42,-1
 538 1190 l 1,43,-1
 538 1280 l 1,44,-1
 848 1280 l 1,45,-1
 848 1354 l 2,17,18
EndSplineSet
Validated: 1
EndChar

StartChar: Emacron
Encoding: 274 274 212
Width: 1178
GlyphClass: 2
Flags: W
LayerCount: 2
Fore
SplineSet
348 1769 m 1,0,-1
 866 1769 l 1,1,-1
 866 1677 l 1,2,-1
 348 1677 l 1,3,-1
 348 1769 l 1,0,-1
172 1325 m 2,4,5
 172 1389 172 1389 156.5 1419.5 c 128,-1,6
 141 1450 141 1450 101 1464 c 1,7,-1
 1112 1464 l 1,8,-1
 1122 1306 l 1,9,10
 1049 1399 1049 1399 792 1399 c 2,11,-1
 491 1399 l 2,12,13
 389 1399 389 1399 350 1370 c 128,-1,14
 311 1341 311 1341 311 1245 c 2,15,-1
 311 803 l 1,16,-1
 628 803 l 2,17,18
 761 803 761 803 803 871 c 1,19,-1
 803 661 l 1,20,21
 758 731 758 731 628 731 c 2,22,-1
 311 731 l 1,23,-1
 311 241 l 2,24,25
 311 148 311 148 350.5 118 c 128,-1,26
 390 88 390 88 491 88 c 2,27,-1
 792 88 l 2,28,29
 941 88 941 88 1023 112 c 128,-1,30
 1105 136 1105 136 1149 196 c 1,31,-1
 1137 20 l 1,32,-1
 103 20 l 1,33,34
 139 32 139 32 155.5 65 c 128,-1,35
 172 98 172 98 172 157 c 2,36,-1
 172 1325 l 2,4,5
EndSplineSet
Validated: 1
EndChar

StartChar: emacron
Encoding: 275 275 213
Width: 1055
GlyphClass: 2
Flags: W
LayerCount: 2
Fore
SplineSet
289 1368 m 1,0,-1
 807 1368 l 1,1,-1
 807 1278 l 1,2,-1
 289 1278 l 1,3,-1
 289 1368 l 1,0,-1
846 621 m 1,4,5
 840 797 840 797 744 894 c 0,6,7
 661 974 661 974 541 974 c 0,8,9
 398 974 398 974 303 849 c 0,10,11
 235 760 235 760 220 621 c 1,12,-1
 846 621 l 1,4,5
951 195 m 1,13,14
 819 -12 819 -12 562 -12 c 0,15,16
 348 -12 348 -12 209 127 c 0,17,18
 70 270 70 270 70 510 c 0,19,20
 70 765 70 765 217 912 c 0,21,22
 345 1043 345 1043 543 1043 c 0,23,24
 735 1043 735 1043 854 920 c 0,25,26
 985 789 985 789 985 580 c 2,27,-1
 985 543 l 1,28,-1
 213 543 l 1,29,-1
 213 508 l 2,30,31
 213 306 213 306 336 180 c 0,32,33
 439 78 439 78 586 78 c 0,34,35
 806 78 806 78 926 291 c 1,36,-1
 951 195 l 1,13,14
EndSplineSet
Validated: 1
EndChar

StartChar: Ebreve
Encoding: 276 276 214
Width: 1178
GlyphClass: 2
Flags: W
LayerCount: 2
Fore
SplineSet
890 1831 m 1,0,1
 887 1719 887 1719 800 1659 c 0,2,3
 729 1610 729 1610 618 1610 c 0,4,5
 502 1610 502 1610 427 1663 c 0,6,7
 346 1723 346 1723 343 1831 c 1,8,-1
 405 1831 l 1,9,10
 426 1708 426 1708 618 1708 c 0,11,12
 805 1708 805 1708 827 1831 c 1,13,-1
 890 1831 l 1,0,1
172 1325 m 2,14,15
 172 1389 172 1389 156.5 1419.5 c 128,-1,16
 141 1450 141 1450 101 1464 c 1,17,-1
 1112 1464 l 1,18,-1
 1122 1306 l 1,19,20
 1049 1399 1049 1399 792 1399 c 2,21,-1
 491 1399 l 2,22,23
 389 1399 389 1399 350 1370 c 128,-1,24
 311 1341 311 1341 311 1245 c 2,25,-1
 311 803 l 1,26,-1
 628 803 l 2,27,28
 761 803 761 803 803 871 c 1,29,-1
 803 661 l 1,30,31
 758 731 758 731 628 731 c 2,32,-1
 311 731 l 1,33,-1
 311 241 l 2,34,35
 311 148 311 148 350.5 118 c 128,-1,36
 390 88 390 88 491 88 c 2,37,-1
 792 88 l 2,38,39
 941 88 941 88 1023 112 c 128,-1,40
 1105 136 1105 136 1149 196 c 1,41,-1
 1137 20 l 1,42,-1
 103 20 l 1,43,44
 139 32 139 32 155.5 65 c 128,-1,45
 172 98 172 98 172 157 c 2,46,-1
 172 1325 l 2,14,15
EndSplineSet
Validated: 1
EndChar

StartChar: ebreve
Encoding: 277 277 215
Width: 1055
GlyphClass: 2
Flags: W
LayerCount: 2
Fore
SplineSet
793 1450 m 1,0,1
 790 1239 790 1239 537 1239 c 0,2,3
 286 1239 286 1239 283 1450 c 1,4,-1
 341 1450 l 1,5,6
 362 1327 362 1327 537 1327 c 256,7,8
 712 1327 712 1327 734 1450 c 1,9,-1
 793 1450 l 1,0,1
846 621 m 1,10,11
 840 797 840 797 744 894 c 0,12,13
 661 974 661 974 541 974 c 0,14,15
 398 974 398 974 303 849 c 0,16,17
 235 760 235 760 220 621 c 1,18,-1
 846 621 l 1,10,11
951 195 m 1,19,20
 819 -12 819 -12 562 -12 c 0,21,22
 348 -12 348 -12 209 127 c 0,23,24
 70 270 70 270 70 510 c 0,25,26
 70 765 70 765 217 912 c 0,27,28
 345 1043 345 1043 543 1043 c 0,29,30
 735 1043 735 1043 854 920 c 0,31,32
 985 789 985 789 985 580 c 2,33,-1
 985 543 l 1,34,-1
 213 543 l 1,35,-1
 213 508 l 2,36,37
 213 306 213 306 336 180 c 0,38,39
 439 78 439 78 586 78 c 0,40,41
 806 78 806 78 926 291 c 1,42,-1
 951 195 l 1,19,20
EndSplineSet
Validated: 1
EndChar

StartChar: Edotaccent
Encoding: 278 278 216
Width: 1178
GlyphClass: 2
Flags: W
LayerCount: 2
Fore
SplineSet
654 1835 m 0,0,1
 756 1835 756 1835 756 1735 c 0,2,3
 756 1630 756 1630 654 1630 c 0,4,5
 551 1630 551 1630 551 1732 c 0,6,7
 551 1835 551 1835 654 1835 c 0,0,1
172 1325 m 2,8,9
 172 1389 172 1389 156.5 1419.5 c 128,-1,10
 141 1450 141 1450 101 1464 c 1,11,-1
 1112 1464 l 1,12,-1
 1122 1306 l 1,13,14
 1049 1399 1049 1399 792 1399 c 2,15,-1
 491 1399 l 2,16,17
 389 1399 389 1399 350 1370 c 128,-1,18
 311 1341 311 1341 311 1245 c 2,19,-1
 311 803 l 1,20,-1
 628 803 l 2,21,22
 761 803 761 803 803 871 c 1,23,-1
 803 661 l 1,24,25
 758 731 758 731 628 731 c 2,26,-1
 311 731 l 1,27,-1
 311 241 l 2,28,29
 311 148 311 148 350.5 118 c 128,-1,30
 390 88 390 88 491 88 c 2,31,-1
 792 88 l 2,32,33
 941 88 941 88 1023 112 c 128,-1,34
 1105 136 1105 136 1149 196 c 1,35,-1
 1137 20 l 1,36,-1
 103 20 l 1,37,38
 139 32 139 32 155.5 65 c 128,-1,39
 172 98 172 98 172 157 c 2,40,-1
 172 1325 l 2,8,9
EndSplineSet
Validated: 1
EndChar

StartChar: edotaccent
Encoding: 279 279 217
Width: 1055
GlyphClass: 2
Flags: W
LayerCount: 2
Fore
SplineSet
541 1410 m 0,0,1
 642 1410 642 1410 642 1310 c 0,2,3
 642 1209 642 1209 541 1209 c 0,4,5
 441 1209 441 1209 441 1307 c 0,6,7
 441 1410 441 1410 541 1410 c 0,0,1
846 621 m 1,8,9
 840 797 840 797 744 894 c 0,10,11
 661 974 661 974 541 974 c 0,12,13
 398 974 398 974 303 849 c 0,14,15
 235 760 235 760 220 621 c 1,16,-1
 846 621 l 1,8,9
951 195 m 1,17,18
 819 -12 819 -12 562 -12 c 0,19,20
 348 -12 348 -12 209 127 c 0,21,22
 70 270 70 270 70 510 c 0,23,24
 70 765 70 765 217 912 c 0,25,26
 345 1043 345 1043 543 1043 c 0,27,28
 735 1043 735 1043 854 920 c 0,29,30
 985 789 985 789 985 580 c 2,31,-1
 985 543 l 1,32,-1
 213 543 l 1,33,-1
 213 508 l 2,34,35
 213 306 213 306 336 180 c 0,36,37
 439 78 439 78 586 78 c 0,38,39
 806 78 806 78 926 291 c 1,40,-1
 951 195 l 1,17,18
EndSplineSet
Validated: 1
EndChar

StartChar: Eogonek
Encoding: 280 280 218
Width: 1178
GlyphClass: 2
Flags: W
LayerCount: 2
Fore
SplineSet
172 1325 m 2,0,1
 172 1389 172 1389 156.5 1419.5 c 128,-1,2
 141 1450 141 1450 101 1464 c 1,3,-1
 1112 1464 l 1,4,-1
 1122 1306 l 1,5,6
 1049 1399 1049 1399 792 1399 c 2,7,-1
 491 1399 l 2,8,9
 389 1399 389 1399 350 1370 c 128,-1,10
 311 1341 311 1341 311 1245 c 2,11,-1
 311 803 l 1,12,-1
 628 803 l 2,13,14
 761 803 761 803 803 871 c 1,15,-1
 803 661 l 1,16,17
 758 731 758 731 628 731 c 2,18,-1
 311 731 l 1,19,-1
 311 241 l 2,20,21
 311 148 311 148 350.5 118 c 128,-1,22
 390 88 390 88 491 88 c 2,23,-1
 792 88 l 2,24,25
 941 88 941 88 1023 112 c 128,-1,26
 1105 136 1105 136 1149 196 c 1,27,-1
 1137 20 l 1,28,-1
 684 20 l 1,29,-1
 624 -40 l 2,30,31
 497 -166 497 -166 497 -226 c 0,32,33
 497 -300 497 -300 576 -300 c 0,34,35
 650 -300 650 -300 719 -239 c 1,36,-1
 744 -290 l 1,37,38
 651 -375 651 -375 546 -375 c 0,39,40
 387 -375 387 -375 387 -242 c 0,41,42
 387 -158 387 -158 527 -36 c 2,43,-1
 591 20 l 1,44,-1
 103 20 l 1,45,46
 139 32 139 32 155.5 65 c 128,-1,47
 172 98 172 98 172 157 c 2,48,-1
 172 1325 l 2,0,1
EndSplineSet
Validated: 1
EndChar

StartChar: eogonek
Encoding: 281 281 219
Width: 1055
GlyphClass: 2
Flags: W
LayerCount: 2
Fore
SplineSet
846 621 m 1,0,1
 840 797 840 797 744 894 c 0,2,3
 661 974 661 974 541 974 c 0,4,5
 398 974 398 974 303 849 c 0,6,7
 235 760 235 760 220 621 c 1,8,-1
 846 621 l 1,0,1
513 -10 m 1,9,10
 332 4 332 4 209 127 c 0,11,12
 70 270 70 270 70 510 c 0,13,14
 70 765 70 765 217 912 c 0,15,16
 345 1043 345 1043 543 1043 c 0,17,18
 735 1043 735 1043 854 920 c 0,19,20
 985 789 985 789 985 580 c 2,21,-1
 985 543 l 1,22,-1
 213 543 l 1,23,-1
 213 508 l 2,24,25
 213 306 213 306 336 180 c 0,26,27
 439 78 439 78 586 78 c 0,28,29
 806 78 806 78 926 291 c 1,30,-1
 951 195 l 1,31,32
 832 8 832 8 610 -10 c 1,33,-1
 579 -40 l 2,34,35
 452 -160 452 -160 452 -226 c 0,36,37
 452 -300 452 -300 531 -300 c 0,38,39
 605 -300 605 -300 674 -239 c 1,40,-1
 699 -290 l 1,41,42
 606 -375 606 -375 501 -375 c 0,43,44
 342 -375 342 -375 342 -242 c 0,45,46
 342 -155 342 -155 482 -36 c 2,47,-1
 513 -10 l 1,9,10
EndSplineSet
Validated: 1
EndChar

StartChar: Ecaron
Encoding: 282 282 220
Width: 1178
GlyphClass: 2
Flags: W
LayerCount: 2
Fore
SplineSet
383 1841 m 1,0,-1
 612 1688 l 1,1,-1
 843 1841 l 1,2,-1
 889 1798 l 1,3,-1
 661 1583 l 1,4,-1
 565 1583 l 1,5,-1
 334 1798 l 1,6,-1
 383 1841 l 1,0,-1
172 1325 m 2,7,8
 172 1389 172 1389 156.5 1419.5 c 128,-1,9
 141 1450 141 1450 101 1464 c 1,10,-1
 1112 1464 l 1,11,-1
 1122 1306 l 1,12,13
 1049 1399 1049 1399 792 1399 c 2,14,-1
 491 1399 l 2,15,16
 389 1399 389 1399 350 1370 c 128,-1,17
 311 1341 311 1341 311 1245 c 2,18,-1
 311 803 l 1,19,-1
 628 803 l 2,20,21
 761 803 761 803 803 871 c 1,22,-1
 803 661 l 1,23,24
 758 731 758 731 628 731 c 2,25,-1
 311 731 l 1,26,-1
 311 241 l 2,27,28
 311 148 311 148 350.5 118 c 128,-1,29
 390 88 390 88 491 88 c 2,30,-1
 792 88 l 2,31,32
 941 88 941 88 1023 112 c 128,-1,33
 1105 136 1105 136 1149 196 c 1,34,-1
 1137 20 l 1,35,-1
 103 20 l 1,36,37
 139 32 139 32 155.5 65 c 128,-1,38
 172 98 172 98 172 157 c 2,39,-1
 172 1325 l 2,7,8
EndSplineSet
Validated: 1
EndChar

StartChar: ecaron
Encoding: 283 283 221
Width: 1055
GlyphClass: 2
Flags: W
LayerCount: 2
Fore
SplineSet
344 1474 m 1,0,-1
 553 1337 l 1,1,-1
 764 1474 l 1,2,-1
 801 1431 l 1,3,-1
 596 1231 l 1,4,-1
 510 1231 l 1,5,-1
 306 1431 l 1,6,-1
 344 1474 l 1,0,-1
846 621 m 1,7,8
 840 797 840 797 744 894 c 0,9,10
 661 974 661 974 541 974 c 0,11,12
 398 974 398 974 303 849 c 0,13,14
 235 760 235 760 220 621 c 1,15,-1
 846 621 l 1,7,8
951 195 m 1,16,17
 819 -12 819 -12 562 -12 c 0,18,19
 348 -12 348 -12 209 127 c 0,20,21
 70 270 70 270 70 510 c 0,22,23
 70 765 70 765 217 912 c 0,24,25
 345 1043 345 1043 543 1043 c 0,26,27
 735 1043 735 1043 854 920 c 0,28,29
 985 789 985 789 985 580 c 2,30,-1
 985 543 l 1,31,-1
 213 543 l 1,32,-1
 213 508 l 2,33,34
 213 306 213 306 336 180 c 0,35,36
 439 78 439 78 586 78 c 0,37,38
 806 78 806 78 926 291 c 1,39,-1
 951 195 l 1,16,17
EndSplineSet
Validated: 1
EndChar

StartChar: Gcircumflex
Encoding: 284 284 222
Width: 1417
GlyphClass: 2
Flags: W
LayerCount: 2
Fore
SplineSet
761 1849 m 1,0,-1
 857 1849 l 1,1,-1
 1087 1636 l 1,2,-1
 1038 1593 l 1,3,-1
 810 1745 l 1,4,-1
 579 1593 l 1,5,-1
 532 1636 l 1,6,-1
 761 1849 l 1,0,-1
1201 551 m 2,7,8
 1201 609 1201 609 1185.5 642.5 c 128,-1,9
 1170 676 1170 676 1137 688 c 1,10,-1
 1400 688 l 1,11,12
 1336 663 1336 663 1336 551 c 2,13,-1
 1336 26 l 1,14,-1
 1291 26 l 1,15,-1
 1228 145 l 1,16,17
 1060 -29 1060 -29 791 -29 c 0,18,19
 488 -29 488 -29 294 165 c 0,20,21
 85 377 85 377 85 733 c 0,22,23
 85 1097 85 1097 308 1320 c 0,24,25
 401 1413 401 1413 557.5 1464 c 128,-1,26
 714 1515 714 1515 865 1515 c 0,27,28
 1090 1515 1090 1515 1260 1395 c 0,29,30
 1302 1366 1302 1366 1318 1366 c 0,31,32
 1329 1366 1329 1366 1336 1376 c 1,33,-1
 1336 1117 l 1,34,35
 1303 1212 1303 1212 1236 1286 c 0,36,37
 1099 1441 1099 1441 876 1441 c 0,38,39
 717 1441 717 1441 569.5 1373.5 c 128,-1,40
 422 1306 422 1306 353 1183 c 0,41,42
 251 997 251 997 251 745 c 0,43,44
 251 442 251 442 407 250 c 0,45,46
 564 55 564 55 806 55 c 0,47,48
 1033 55 1033 55 1150 196 c 0,49,50
 1201 257 1201 257 1201 350 c 2,51,-1
 1201 551 l 2,7,8
EndSplineSet
Validated: 1
EndChar

StartChar: gcircumflex
Encoding: 285 285 223
Width: 955
GlyphClass: 2
Flags: W
LayerCount: 2
Fore
SplineSet
452 1439 m 1,0,-1
 538 1439 l 1,1,-1
 743 1241 l 1,2,-1
 704 1198 l 1,3,-1
 495 1335 l 1,4,-1
 284 1198 l 1,5,-1
 247 1241 l 1,6,-1
 452 1439 l 1,0,-1
486 80 m 0,7,8
 166 80 166 80 166 -114 c 0,9,10
 166 -221 166 -221 268 -280 c 0,11,12
 356 -331 356 -331 496 -331 c 0,13,14
 696 -331 696 -331 791 -233 c 0,15,16
 842 -182 842 -182 842 -112 c 0,17,18
 842 80 842 80 486 80 c 0,7,8
475 967 m 0,19,20
 357 967 357 967 281 891 c 0,21,22
 205 816 205 816 205 693 c 0,23,24
 205 435 205 435 477 435 c 0,25,26
 615 435 615 435 690 517 c 0,27,28
 754 586 754 586 754 701 c 0,29,30
 754 813 754 813 680 887 c 0,31,32
 603 967 603 967 475 967 c 0,19,20
693 998 m 1,33,34
 803 1126 803 1126 918 1126 c 0,35,36
 956 1126 956 1126 980 1114 c 1,37,-1
 943 1043 l 1,38,39
 876 1052 876 1052 825.5 1029 c 128,-1,40
 775 1006 775 1006 748 969 c 1,41,42
 885 878 885 878 885 699 c 0,43,44
 885 512 885 512 727 422 c 0,45,46
 628 365 628 365 500 365 c 0,47,48
 417 365 417 365 322 389 c 1,49,50
 248 359 248 359 248 303 c 0,51,52
 248 202 248 202 475 187 c 2,53,-1
 590 178 l 2,54,55
 977 151 977 151 977 -98 c 0,56,57
 977 -228 977 -228 860 -311 c 0,58,59
 730 -405 730 -405 498 -405 c 0,60,61
 296 -405 296 -405 164 -331 c 0,62,63
 31 -257 31 -257 31 -127 c 0,64,65
 31 71 31 71 328 117 c 1,66,-1
 328 123 l 1,67,68
 133 166 133 166 133 281 c 0,69,70
 133 381 133 381 256 418 c 1,71,72
 70 500 70 500 70 688 c 0,73,74
 70 854 70 854 209 956 c 0,75,76
 322 1038 322 1038 477 1038 c 0,77,78
 601 1038 601 1038 693 998 c 1,33,34
EndSplineSet
Validated: 33
EndChar

StartChar: Gbreve
Encoding: 286 286 224
Width: 1417
GlyphClass: 2
Flags: W
LayerCount: 2
Fore
SplineSet
1089 1831 m 1,0,1
 1086 1719 1086 1719 999 1659 c 0,2,3
 928 1610 928 1610 817 1610 c 0,4,5
 701 1610 701 1610 626 1663 c 0,6,7
 545 1723 545 1723 542 1831 c 1,8,-1
 604 1831 l 1,9,10
 625 1708 625 1708 817 1708 c 0,11,12
 1004 1708 1004 1708 1026 1831 c 1,13,-1
 1089 1831 l 1,0,1
1201 551 m 2,14,15
 1201 609 1201 609 1185.5 642.5 c 128,-1,16
 1170 676 1170 676 1137 688 c 1,17,-1
 1400 688 l 1,18,19
 1336 663 1336 663 1336 551 c 2,20,-1
 1336 26 l 1,21,-1
 1291 26 l 1,22,-1
 1228 145 l 1,23,24
 1060 -29 1060 -29 791 -29 c 0,25,26
 488 -29 488 -29 294 165 c 0,27,28
 85 377 85 377 85 733 c 0,29,30
 85 1097 85 1097 308 1320 c 0,31,32
 401 1413 401 1413 557.5 1464 c 128,-1,33
 714 1515 714 1515 865 1515 c 0,34,35
 1090 1515 1090 1515 1260 1395 c 0,36,37
 1302 1366 1302 1366 1318 1366 c 0,38,39
 1329 1366 1329 1366 1336 1376 c 1,40,-1
 1336 1117 l 1,41,42
 1303 1212 1303 1212 1236 1286 c 0,43,44
 1099 1441 1099 1441 876 1441 c 0,45,46
 717 1441 717 1441 569.5 1373.5 c 128,-1,47
 422 1306 422 1306 353 1183 c 0,48,49
 251 997 251 997 251 745 c 0,50,51
 251 442 251 442 407 250 c 0,52,53
 564 55 564 55 806 55 c 0,54,55
 1033 55 1033 55 1150 196 c 0,56,57
 1201 257 1201 257 1201 350 c 2,58,-1
 1201 551 l 2,14,15
EndSplineSet
Validated: 1
EndChar

StartChar: gbreve
Encoding: 287 287 225
Width: 955
GlyphClass: 2
Flags: W
LayerCount: 2
Fore
SplineSet
756 1450 m 1,0,1
 753 1239 753 1239 500 1239 c 0,2,3
 249 1239 249 1239 246 1450 c 1,4,-1
 304 1450 l 1,5,6
 325 1327 325 1327 500 1327 c 256,7,8
 675 1327 675 1327 697 1450 c 1,9,-1
 756 1450 l 1,0,1
486 80 m 0,10,11
 166 80 166 80 166 -114 c 0,12,13
 166 -221 166 -221 268 -280 c 0,14,15
 356 -331 356 -331 496 -331 c 0,16,17
 696 -331 696 -331 791 -233 c 0,18,19
 842 -182 842 -182 842 -112 c 0,20,21
 842 80 842 80 486 80 c 0,10,11
475 967 m 0,22,23
 357 967 357 967 281 891 c 0,24,25
 205 816 205 816 205 693 c 0,26,27
 205 435 205 435 477 435 c 0,28,29
 615 435 615 435 690 517 c 0,30,31
 754 586 754 586 754 701 c 0,32,33
 754 813 754 813 680 887 c 0,34,35
 603 967 603 967 475 967 c 0,22,23
693 998 m 1,36,37
 803 1126 803 1126 918 1126 c 0,38,39
 956 1126 956 1126 980 1114 c 1,40,-1
 943 1043 l 1,41,42
 876 1052 876 1052 825.5 1029 c 128,-1,43
 775 1006 775 1006 748 969 c 1,44,45
 885 878 885 878 885 699 c 0,46,47
 885 512 885 512 727 422 c 0,48,49
 628 365 628 365 500 365 c 0,50,51
 417 365 417 365 322 389 c 1,52,53
 248 359 248 359 248 303 c 0,54,55
 248 202 248 202 475 187 c 2,56,-1
 590 178 l 2,57,58
 977 151 977 151 977 -98 c 0,59,60
 977 -228 977 -228 860 -311 c 0,61,62
 730 -405 730 -405 498 -405 c 0,63,64
 296 -405 296 -405 164 -331 c 0,65,66
 31 -257 31 -257 31 -127 c 0,67,68
 31 71 31 71 328 117 c 1,69,-1
 328 123 l 1,70,71
 133 166 133 166 133 281 c 0,72,73
 133 381 133 381 256 418 c 1,74,75
 70 500 70 500 70 688 c 0,76,77
 70 854 70 854 209 956 c 0,78,79
 322 1038 322 1038 477 1038 c 0,80,81
 601 1038 601 1038 693 998 c 1,36,37
EndSplineSet
Validated: 33
EndChar

StartChar: Gdotaccent
Encoding: 288 288 226
Width: 1417
GlyphClass: 2
Flags: W
LayerCount: 2
Fore
SplineSet
786 1803 m 0,0,1
 885 1803 885 1803 885 1707 c 0,2,3
 885 1608 885 1608 786 1608 c 0,4,5
 690 1608 690 1608 690 1704 c 0,6,7
 690 1803 690 1803 786 1803 c 0,0,1
1201 551 m 2,8,9
 1201 609 1201 609 1185.5 642.5 c 128,-1,10
 1170 676 1170 676 1137 688 c 1,11,-1
 1400 688 l 1,12,13
 1336 663 1336 663 1336 551 c 2,14,-1
 1336 26 l 1,15,-1
 1291 26 l 1,16,-1
 1228 145 l 1,17,18
 1060 -29 1060 -29 791 -29 c 0,19,20
 488 -29 488 -29 294 165 c 0,21,22
 85 377 85 377 85 733 c 0,23,24
 85 1097 85 1097 308 1320 c 0,25,26
 401 1413 401 1413 557.5 1464 c 128,-1,27
 714 1515 714 1515 865 1515 c 0,28,29
 1090 1515 1090 1515 1260 1395 c 0,30,31
 1302 1366 1302 1366 1318 1366 c 0,32,33
 1329 1366 1329 1366 1336 1376 c 1,34,-1
 1336 1117 l 1,35,36
 1303 1212 1303 1212 1236 1286 c 0,37,38
 1099 1441 1099 1441 876 1441 c 0,39,40
 717 1441 717 1441 569.5 1373.5 c 128,-1,41
 422 1306 422 1306 353 1183 c 0,42,43
 251 997 251 997 251 745 c 0,44,45
 251 442 251 442 407 250 c 0,46,47
 564 55 564 55 806 55 c 0,48,49
 1033 55 1033 55 1150 196 c 0,50,51
 1201 257 1201 257 1201 350 c 2,52,-1
 1201 551 l 2,8,9
EndSplineSet
Validated: 1
EndChar

StartChar: gdotaccent
Encoding: 289 289 227
Width: 955
GlyphClass: 2
Flags: W
LayerCount: 2
Fore
SplineSet
481 1410 m 0,0,1
 582 1410 582 1410 582 1310 c 0,2,3
 582 1209 582 1209 481 1209 c 0,4,5
 381 1209 381 1209 381 1307 c 0,6,7
 381 1410 381 1410 481 1410 c 0,0,1
486 80 m 0,8,9
 166 80 166 80 166 -114 c 0,10,11
 166 -221 166 -221 268 -280 c 0,12,13
 356 -331 356 -331 496 -331 c 0,14,15
 696 -331 696 -331 791 -233 c 0,16,17
 842 -182 842 -182 842 -112 c 0,18,19
 842 80 842 80 486 80 c 0,8,9
475 967 m 0,20,21
 357 967 357 967 281 891 c 0,22,23
 205 816 205 816 205 693 c 0,24,25
 205 435 205 435 477 435 c 0,26,27
 615 435 615 435 690 517 c 0,28,29
 754 586 754 586 754 701 c 0,30,31
 754 813 754 813 680 887 c 0,32,33
 603 967 603 967 475 967 c 0,20,21
693 998 m 1,34,35
 803 1126 803 1126 918 1126 c 0,36,37
 956 1126 956 1126 980 1114 c 1,38,-1
 943 1043 l 1,39,40
 876 1052 876 1052 825.5 1029 c 128,-1,41
 775 1006 775 1006 748 969 c 1,42,43
 885 878 885 878 885 699 c 0,44,45
 885 512 885 512 727 422 c 0,46,47
 628 365 628 365 500 365 c 0,48,49
 417 365 417 365 322 389 c 1,50,51
 248 359 248 359 248 303 c 0,52,53
 248 202 248 202 475 187 c 2,54,-1
 590 178 l 2,55,56
 977 151 977 151 977 -98 c 0,57,58
 977 -228 977 -228 860 -311 c 0,59,60
 730 -405 730 -405 498 -405 c 0,61,62
 296 -405 296 -405 164 -331 c 0,63,64
 31 -257 31 -257 31 -127 c 0,65,66
 31 71 31 71 328 117 c 1,67,-1
 328 123 l 1,68,69
 133 166 133 166 133 281 c 0,70,71
 133 381 133 381 256 418 c 1,72,73
 70 500 70 500 70 688 c 0,74,75
 70 854 70 854 209 956 c 0,76,77
 322 1038 322 1038 477 1038 c 0,78,79
 601 1038 601 1038 693 998 c 1,34,35
EndSplineSet
Validated: 33
EndChar

StartChar: uni0122
Encoding: 290 290 228
Width: 1417
GlyphClass: 2
Flags: W
LayerCount: 2
Fore
SplineSet
643 -497 m 1,0,1
 737 -408 737 -408 756 -303 c 1,2,3
 653 -299 653 -299 653 -200 c 0,4,5
 653 -175 653 -175 666 -151 c 0,6,7
 695 -97 695 -97 756 -97 c 0,8,9
 782 -97 782 -97 805 -110 c 0,10,11
 859 -142 859 -142 859 -205 c 0,12,13
 859 -375 859 -375 670 -521 c 1,14,-1
 643 -497 l 1,0,1
1201 551 m 2,15,16
 1201 609 1201 609 1185.5 642.5 c 128,-1,17
 1170 676 1170 676 1137 688 c 1,18,-1
 1400 688 l 1,19,20
 1336 663 1336 663 1336 551 c 2,21,-1
 1336 26 l 1,22,-1
 1291 26 l 1,23,-1
 1228 145 l 1,24,25
 1060 -29 1060 -29 791 -29 c 0,26,27
 488 -29 488 -29 294 165 c 0,28,29
 85 377 85 377 85 733 c 0,30,31
 85 1097 85 1097 308 1320 c 0,32,33
 401 1413 401 1413 557.5 1464 c 128,-1,34
 714 1515 714 1515 865 1515 c 0,35,36
 1090 1515 1090 1515 1260 1395 c 0,37,38
 1302 1366 1302 1366 1318 1366 c 0,39,40
 1329 1366 1329 1366 1336 1376 c 1,41,-1
 1336 1117 l 1,42,43
 1303 1212 1303 1212 1236 1286 c 0,44,45
 1099 1441 1099 1441 876 1441 c 0,46,47
 717 1441 717 1441 569.5 1373.5 c 128,-1,48
 422 1306 422 1306 353 1183 c 0,49,50
 251 997 251 997 251 745 c 0,51,52
 251 442 251 442 407 250 c 0,53,54
 564 55 564 55 806 55 c 0,55,56
 1033 55 1033 55 1150 196 c 0,57,58
 1201 257 1201 257 1201 350 c 2,59,-1
 1201 551 l 2,15,16
EndSplineSet
Validated: 1
EndChar

StartChar: uni0123
Encoding: 291 291 229
Width: 955
GlyphClass: 2
Flags: W
LayerCount: 2
Fore
SplineSet
593 1583 m 1,0,1
 499 1494 499 1494 480 1389 c 1,2,3
 583 1385 583 1385 583 1286 c 0,4,5
 583 1261 583 1261 571 1237 c 0,6,7
 541 1183 541 1183 480 1183 c 0,8,9
 455 1183 455 1183 431 1196 c 0,10,11
 377 1228 377 1228 377 1291 c 0,12,13
 377 1461 377 1461 567 1607 c 1,14,-1
 593 1583 l 1,0,1
486 80 m 0,15,16
 166 80 166 80 166 -114 c 0,17,18
 166 -221 166 -221 268 -280 c 0,19,20
 356 -331 356 -331 496 -331 c 0,21,22
 696 -331 696 -331 791 -233 c 0,23,24
 842 -182 842 -182 842 -112 c 0,25,26
 842 80 842 80 486 80 c 0,15,16
475 967 m 0,27,28
 357 967 357 967 281 891 c 0,29,30
 205 816 205 816 205 693 c 0,31,32
 205 435 205 435 477 435 c 0,33,34
 615 435 615 435 690 517 c 0,35,36
 754 586 754 586 754 701 c 0,37,38
 754 813 754 813 680 887 c 0,39,40
 603 967 603 967 475 967 c 0,27,28
693 998 m 1,41,42
 803 1126 803 1126 918 1126 c 0,43,44
 956 1126 956 1126 980 1114 c 1,45,-1
 943 1043 l 1,46,47
 876 1052 876 1052 825.5 1029 c 128,-1,48
 775 1006 775 1006 748 969 c 1,49,50
 885 878 885 878 885 699 c 0,51,52
 885 512 885 512 727 422 c 0,53,54
 628 365 628 365 500 365 c 0,55,56
 417 365 417 365 322 389 c 1,57,58
 248 359 248 359 248 303 c 0,59,60
 248 202 248 202 475 187 c 2,61,-1
 590 178 l 2,62,63
 977 151 977 151 977 -98 c 0,64,65
 977 -228 977 -228 860 -311 c 0,66,67
 730 -405 730 -405 498 -405 c 0,68,69
 296 -405 296 -405 164 -331 c 0,70,71
 31 -257 31 -257 31 -127 c 0,72,73
 31 71 31 71 328 117 c 1,74,-1
 328 123 l 1,75,76
 133 166 133 166 133 281 c 0,77,78
 133 381 133 381 256 418 c 1,79,80
 70 500 70 500 70 688 c 0,81,82
 70 854 70 854 209 956 c 0,83,84
 322 1038 322 1038 477 1038 c 0,85,86
 601 1038 601 1038 693 998 c 1,41,42
EndSplineSet
Validated: 33
EndChar

StartChar: Hcircumflex
Encoding: 292 292 230
Width: 1397
GlyphClass: 2
Flags: W
LayerCount: 2
Fore
SplineSet
653 1849 m 1,0,-1
 747 1849 l 1,1,-1
 979 1636 l 1,2,-1
 929 1593 l 1,3,-1
 700 1745 l 1,4,-1
 469 1593 l 1,5,-1
 422 1636 l 1,6,-1
 653 1849 l 1,0,-1
313 157 m 2,7,8
 313 98 313 98 328.5 65.5 c 128,-1,9
 344 33 344 33 378 20 c 1,10,-1
 105 20 l 1,11,12
 172 45 172 45 172 157 c 2,13,-1
 172 1323 l 2,14,15
 172 1384 172 1384 155 1417.5 c 128,-1,16
 138 1451 138 1451 100 1464 c 1,17,-1
 384 1464 l 1,18,19
 347 1451 347 1451 330 1418 c 128,-1,20
 313 1385 313 1385 313 1323 c 2,21,-1
 313 809 l 1,22,-1
 1084 809 l 1,23,-1
 1084 1321 l 2,24,25
 1084 1382 1084 1382 1063 1415.5 c 128,-1,26
 1042 1449 1042 1449 998 1464 c 1,27,-1
 1301 1464 l 1,28,29
 1260 1451 1260 1451 1242.5 1418.5 c 128,-1,30
 1225 1386 1225 1386 1225 1321 c 2,31,-1
 1225 157 l 2,32,33
 1225 48 1225 48 1295 20 c 1,34,-1
 1020 20 l 1,35,36
 1084 48 1084 48 1084 157 c 2,37,-1
 1084 727 l 1,38,-1
 313 727 l 1,39,-1
 313 157 l 2,7,8
EndSplineSet
Validated: 1
EndChar

StartChar: hcircumflex
Encoding: 293 293 231
Width: 1095
GlyphClass: 2
Flags: W
LayerCount: 2
Fore
SplineSet
221 1810 m 1,0,-1
 309 1810 l 1,1,-1
 512 1612 l 1,2,-1
 475 1569 l 1,3,-1
 264 1704 l 1,4,-1
 55 1569 l 1,5,-1
 18 1612 l 1,6,-1
 221 1810 l 1,0,-1
143 1356 m 2,7,8
 143 1453 143 1453 91 1470 c 1,9,10
 189 1478 189 1478 278 1495 c 1,11,-1
 278 836 l 1,12,13
 410 1034 410 1034 620 1034 c 0,14,15
 956 1034 956 1034 956 666 c 2,16,-1
 956 127 l 2,17,18
 956 43 956 43 995 20 c 1,19,-1
 779 20 l 1,20,21
 819 48 819 48 819 127 c 2,22,-1
 819 637 l 2,23,24
 819 946 819 946 592 946 c 0,25,26
 370 946 370 946 278 701 c 1,27,-1
 278 127 l 2,28,29
 278 43 278 43 317 20 c 1,30,-1
 100 20 l 1,31,32
 143 47 143 47 143 127 c 2,33,-1
 143 1356 l 2,7,8
EndSplineSet
Validated: 1
EndChar

StartChar: Hbar
Encoding: 294 294 232
Width: 1397
GlyphClass: 2
Flags: W
LayerCount: 2
Fore
SplineSet
313 157 m 2,0,1
 313 98 313 98 328.5 65.5 c 128,-1,2
 344 33 344 33 378 20 c 1,3,-1
 105 20 l 1,4,5
 172 45 172 45 172 157 c 2,6,-1
 172 1190 l 1,7,-1
 -15 1190 l 1,8,-1
 -15 1280 l 1,9,-1
 172 1280 l 1,10,-1
 172 1323 l 2,11,12
 172 1384 172 1384 155 1417.5 c 128,-1,13
 138 1451 138 1451 100 1464 c 1,14,-1
 384 1464 l 1,15,16
 347 1451 347 1451 330 1418 c 128,-1,17
 313 1385 313 1385 313 1323 c 2,18,-1
 313 1280 l 1,19,-1
 1084 1278 l 1,20,-1
 1084 1321 l 2,21,22
 1084 1382 1084 1382 1063 1415.5 c 128,-1,23
 1042 1449 1042 1449 998 1464 c 1,24,-1
 1301 1464 l 1,25,26
 1260 1451 1260 1451 1242.5 1418.5 c 128,-1,27
 1225 1386 1225 1386 1225 1321 c 2,28,-1
 1225 1278 l 1,29,-1
 1412 1278 l 1,30,-1
 1412 1188 l 1,31,-1
 1225 1188 l 1,32,-1
 1225 157 l 2,33,34
 1225 48 1225 48 1295 20 c 1,35,-1
 1020 20 l 1,36,37
 1084 48 1084 48 1084 157 c 2,38,-1
 1084 727 l 1,39,-1
 313 727 l 1,40,-1
 313 157 l 2,0,1
313 1190 m 1,41,-1
 313 809 l 1,42,-1
 1084 809 l 1,43,-1
 1084 1188 l 1,44,-1
 313 1190 l 1,41,-1
EndSplineSet
Validated: 1
EndChar

StartChar: hbar
Encoding: 295 295 233
Width: 1095
GlyphClass: 2
Flags: W
LayerCount: 2
Fore
SplineSet
143 1356 m 2,0,1
 143 1453 143 1453 91 1470 c 1,2,3
 189 1478 189 1478 278 1495 c 1,4,-1
 278 1280 l 1,5,-1
 532 1280 l 1,6,-1
 532 1190 l 1,7,-1
 278 1190 l 1,8,-1
 278 836 l 1,9,10
 410 1034 410 1034 620 1034 c 0,11,12
 956 1034 956 1034 956 666 c 2,13,-1
 956 127 l 2,14,15
 956 43 956 43 995 20 c 1,16,-1
 779 20 l 1,17,18
 819 48 819 48 819 127 c 2,19,-1
 819 637 l 2,20,21
 819 946 819 946 592 946 c 0,22,23
 370 946 370 946 278 701 c 1,24,-1
 278 127 l 2,25,26
 278 43 278 43 317 20 c 1,27,-1
 100 20 l 1,28,29
 143 47 143 47 143 127 c 2,30,-1
 143 1190 l 1,31,-1
 -15 1190 l 1,32,-1
 -15 1280 l 1,33,-1
 143 1280 l 1,34,-1
 143 1356 l 2,0,1
EndSplineSet
Validated: 1
EndChar

StartChar: Itilde
Encoding: 296 296 234
Width: 496
GlyphClass: 2
Flags: W
LayerCount: 2
Fore
SplineSet
-72 1661 m 1,0,1
 -11 1802 -11 1802 112 1802 c 0,2,3
 187 1802 187 1802 290 1736 c 0,4,5
 359 1691 359 1691 417 1691 c 0,6,7
 488 1691 488 1691 534 1774 c 1,8,-1
 589 1737 l 1,9,10
 530 1597 530 1597 405 1597 c 0,11,12
 326 1597 326 1597 223 1663 c 0,13,14
 154 1708 154 1708 100 1708 c 0,15,16
 23 1708 23 1708 -19 1626 c 1,17,-1
 -72 1661 l 1,0,1
321 157 m 2,18,19
 321 99 321 99 337.5 66 c 128,-1,20
 354 33 354 33 390 20 c 1,21,-1
 114 20 l 1,22,23
 176 43 176 43 176 157 c 2,24,-1
 176 1323 l 2,25,26
 176 1386 176 1386 159.5 1418.5 c 128,-1,27
 143 1451 143 1451 104 1464 c 1,28,-1
 396 1464 l 1,29,30
 321 1436 321 1436 321 1323 c 2,31,-1
 321 157 l 2,18,19
EndSplineSet
Validated: 1
EndChar

StartChar: itilde
Encoding: 297 297 235
Width: 419
GlyphClass: 2
Flags: W
LayerCount: 2
Fore
SplineSet
-81 1308 m 1,0,1
 -48 1433 -48 1433 78 1433 c 0,2,3
 145 1433 145 1433 236 1376 c 0,4,5
 302 1335 302 1335 338 1335 c 0,6,7
 397 1335 397 1335 437 1411 c 1,8,-1
 488 1372 l 1,9,10
 441 1251 441 1251 332 1251 c 0,11,12
 262 1251 262 1251 173 1306 c 0,13,14
 106 1347 106 1347 66 1347 c 0,15,16
 1 1347 1 1347 -30 1276 c 1,17,-1
 -81 1308 l 1,0,1
145 899 m 2,18,19
 145 996 145 996 95 1014 c 1,20,21
 191 1023 191 1023 280 1041 c 1,22,-1
 280 127 l 2,23,24
 280 43 280 43 319 20 c 1,25,-1
 101 20 l 1,26,27
 145 47 145 47 145 127 c 2,28,-1
 145 899 l 2,18,19
EndSplineSet
Validated: 1
EndChar

StartChar: Imacron
Encoding: 298 298 236
Width: 496
GlyphClass: 2
Flags: W
LayerCount: 2
Fore
SplineSet
-9 1769 m 1,0,-1
 510 1769 l 1,1,-1
 510 1677 l 1,2,-1
 -9 1677 l 1,3,-1
 -9 1769 l 1,0,-1
321 157 m 2,4,5
 321 99 321 99 337.5 66 c 128,-1,6
 354 33 354 33 390 20 c 1,7,-1
 114 20 l 1,8,9
 176 43 176 43 176 157 c 2,10,-1
 176 1323 l 2,11,12
 176 1386 176 1386 159.5 1418.5 c 128,-1,13
 143 1451 143 1451 104 1464 c 1,14,-1
 396 1464 l 1,15,16
 321 1436 321 1436 321 1323 c 2,17,-1
 321 157 l 2,4,5
EndSplineSet
Validated: 1
EndChar

StartChar: imacron
Encoding: 299 299 237
Width: 419
GlyphClass: 2
Flags: W
LayerCount: 2
Fore
SplineSet
-49 1366 m 1,0,-1
 469 1366 l 1,1,-1
 469 1276 l 1,2,-1
 -49 1276 l 1,3,-1
 -49 1366 l 1,0,-1
145 899 m 2,4,5
 145 996 145 996 95 1014 c 1,6,7
 191 1023 191 1023 280 1041 c 1,8,-1
 280 127 l 2,9,10
 280 43 280 43 319 20 c 1,11,-1
 101 20 l 1,12,13
 145 47 145 47 145 127 c 2,14,-1
 145 899 l 2,4,5
EndSplineSet
Validated: 1
EndChar

StartChar: Ibreve
Encoding: 300 300 238
Width: 496
GlyphClass: 2
Flags: W
LayerCount: 2
Fore
SplineSet
523 1831 m 1,0,1
 520 1719 520 1719 433 1659 c 0,2,3
 362 1610 362 1610 251 1610 c 0,4,5
 135 1610 135 1610 60 1663 c 0,6,7
 -21 1723 -21 1723 -24 1831 c 1,8,-1
 38 1831 l 1,9,10
 59 1708 59 1708 251 1708 c 0,11,12
 438 1708 438 1708 460 1831 c 1,13,-1
 523 1831 l 1,0,1
321 157 m 2,14,15
 321 99 321 99 337.5 66 c 128,-1,16
 354 33 354 33 390 20 c 1,17,-1
 114 20 l 1,18,19
 176 43 176 43 176 157 c 2,20,-1
 176 1323 l 2,21,22
 176 1386 176 1386 159.5 1418.5 c 128,-1,23
 143 1451 143 1451 104 1464 c 1,24,-1
 396 1464 l 1,25,26
 321 1436 321 1436 321 1323 c 2,27,-1
 321 157 l 2,14,15
EndSplineSet
Validated: 1
EndChar

